STARTFONT 2.1
COMMENT
COMMENT Converted from OpenType font "RobotoMono-Regular.ttf" by "otf2bdf 3.0".
COMMENT
FONT -FreeType-Roboto Mono-Medium-R-Normal--24-240-72-72-P-114-ISO10646-1
SIZE 24 72 72
FONTBOUNDINGBOX 30 31 -11 -6
STARTPROPERTIES 19
FOUNDRY "FreeType"
FAMILY_NAME "Roboto Mono"
WEIGHT_NAME "Medium"
SLANT "R"
SETWIDTH_NAME "Normal"
ADD_STYLE_NAME ""
PIXEL_SIZE 24
POINT_SIZE 240
RESOLUTION_X 72
RESOLUTION_Y 72
SPACING "P"
AVERAGE_WIDTH 114
CHARSET_REGISTRY "ISO10646"
CHARSET_ENCODING "1"
FONT_ASCENT 25
FONT_DESCENT 6
COPYRIGHT "Copyright 2015 The Roboto Mono Project Authors (https://github.com/googlefonts/robotomono)"
_OTF_FONTFILE "RobotoMono-Regular.ttf"
_OTF_PSNAME "RobotoMono-Regular"
ENDPROPERTIES
CHARS 876
STARTCHAR 000D
ENCODING 13
SWIDTH 583 0
DWIDTH 14 0
BBX 0 0 0 0
BITMAP
ENDCHAR
STARTCHAR 0020
ENCODING 32
SWIDTH 583 0
DWIDTH 14 0
BBX 0 0 0 0
BITMAP
ENDCHAR
STARTCHAR 0021
ENCODING 33
SWIDTH 583 0
DWIDTH 14 0
BBX 2 17 6 0
BITMAP
C0
C0
C0
C0
C0
C0
C0
C0
C0
C0
C0
C0
00
00
C0
C0
C0
ENDCHAR
STARTCHAR 0022
ENCODING 34
SWIDTH 625 0
DWIDTH 15 0
BBX 6 6 4 12
BITMAP
CC
CC
CC
CC
CC
CC
ENDCHAR
STARTCHAR 0023
ENCODING 35
SWIDTH 625 0
DWIDTH 15 0
BBX 13 17 1 0
BITMAP
0620
0620
0460
0460
0C60
7FF8
7FF8
08C0
08C0
18C0
FFF0
FFF0
1180
1180
3180
3100
3100
ENDCHAR
STARTCHAR 0024
ENCODING 36
SWIDTH 625 0
DWIDTH 15 0
BBX 11 22 2 -2
BITMAP
0600
0600
0F00
3FC0
70C0
60E0
6060
6060
7000
3800
3F00
0F80
01C0
00E0
0060
C060
E060
70E0
3FC0
0F00
0600
0600
ENDCHAR
STARTCHAR 0025
ENCODING 37
SWIDTH 666 0
DWIDTH 16 0
BBX 14 17 1 0
BITMAP
7800
FC00
CC00
CC60
CCC0
FCC0
7980
0100
0300
0670
06F8
0D8C
098C
198C
018C
01FC
00F8
ENDCHAR
STARTCHAR 0026
ENCODING 38
SWIDTH 583 0
DWIDTH 14 0
BBX 12 17 1 0
BITMAP
0F00
3F80
3180
3180
3180
3300
1E00
1C00
3C00
7630
E730
C3B0
C1E0
C1E0
E1E0
7FE0
1E30
ENDCHAR
STARTCHAR 0027
ENCODING 39
SWIDTH 625 0
DWIDTH 15 0
BBX 2 6 6 12
BITMAP
C0
C0
C0
C0
C0
C0
ENDCHAR
STARTCHAR 0028
ENCODING 40
SWIDTH 583 0
DWIDTH 14 0
BBX 6 24 4 -6
BITMAP
04
0C
18
30
30
60
60
60
C0
C0
C0
C0
C0
C0
C0
C0
E0
60
60
30
30
18
18
0C
ENDCHAR
STARTCHAR 0029
ENCODING 41
SWIDTH 625 0
DWIDTH 15 0
BBX 6 25 4 -6
BITMAP
C0
60
60
30
18
18
18
0C
0C
0C
0C
0C
0C
0C
0C
0C
0C
18
18
18
30
30
60
C0
80
ENDCHAR
STARTCHAR 002A
ENCODING 42
SWIDTH 625 0
DWIDTH 15 0
BBX 12 11 2 5
BITMAP
0600
0600
0600
4600
F6F0
7FE0
0600
0F00
1980
39C0
30C0
ENDCHAR
STARTCHAR 002B
ENCODING 43
SWIDTH 583 0
DWIDTH 14 0
BBX 12 13 1 2
BITMAP
0600
0600
0600
0600
0600
0600
FFF0
FFF0
0600
0600
0600
0600
0600
ENDCHAR
STARTCHAR 002C
ENCODING 44
SWIDTH 583 0
DWIDTH 14 0
BBX 3 6 4 -4
BITMAP
60
60
60
60
60
C0
ENDCHAR
STARTCHAR 002D
ENCODING 45
SWIDTH 625 0
DWIDTH 15 0
BBX 9 2 3 7
BITMAP
FF80
FF80
ENDCHAR
STARTCHAR 002E
ENCODING 46
SWIDTH 583 0
DWIDTH 14 0
BBX 3 3 6 0
BITMAP
E0
E0
E0
ENDCHAR
STARTCHAR 002F
ENCODING 47
SWIDTH 583 0
DWIDTH 14 0
BBX 9 19 3 -2
BITMAP
0180
0300
0300
0300
0600
0600
0600
0C00
0C00
1800
1800
1800
3000
3000
6000
6000
6000
C000
C000
ENDCHAR
STARTCHAR 0030
ENCODING 48
SWIDTH 583 0
DWIDTH 14 0
BBX 11 17 2 0
BITMAP
1F00
3F80
60C0
E0E0
C060
C0E0
C1E0
C360
CE60
DC60
F060
E060
C060
E0E0
60C0
3F80
1F00
ENDCHAR
STARTCHAR 0031
ENCODING 49
SWIDTH 583 0
DWIDTH 14 0
BBX 7 17 2 0
BITMAP
06
1E
FE
E6
06
06
06
06
06
06
06
06
06
06
06
06
06
ENDCHAR
STARTCHAR 0032
ENCODING 50
SWIDTH 583 0
DWIDTH 14 0
BBX 11 17 1 0
BITMAP
1F00
3FC0
60C0
E060
C060
0060
00E0
00C0
0180
0380
0700
0E00
1C00
3800
7000
FFE0
FFE0
ENDCHAR
STARTCHAR 0033
ENCODING 51
SWIDTH 583 0
DWIDTH 14 0
BBX 11 17 1 0
BITMAP
1F00
7F80
E1C0
C0C0
00C0
00C0
01C0
1F80
1F80
01C0
00E0
0060
C060
C060
60C0
7FC0
1F00
ENDCHAR
STARTCHAR 0034
ENCODING 52
SWIDTH 583 0
DWIDTH 14 0
BBX 12 17 1 0
BITMAP
01C0
01C0
03C0
06C0
06C0
0CC0
1CC0
18C0
30C0
70C0
60C0
FFF0
FFF0
00C0
00C0
00C0
00C0
ENDCHAR
STARTCHAR 0035
ENCODING 53
SWIDTH 583 0
DWIDTH 14 0
BBX 11 17 2 0
BITMAP
3FE0
3FE0
3000
3000
6000
6000
6F00
7FC0
60C0
0060
0060
0060
E060
6060
70E0
3FC0
1F00
ENDCHAR
STARTCHAR 0036
ENCODING 54
SWIDTH 583 0
DWIDTH 14 0
BBX 11 17 2 0
BITMAP
0780
1F80
3800
7000
6000
CF00
DF80
F1C0
E0E0
C060
C060
C060
C060
60E0
70C0
3F80
1F00
ENDCHAR
STARTCHAR 0037
ENCODING 55
SWIDTH 583 0
DWIDTH 14 0
BBX 12 17 1 0
BITMAP
FFF0
FFF0
0060
0060
00C0
00C0
01C0
0180
0380
0300
0700
0600
0E00
0C00
1C00
1800
1800
ENDCHAR
STARTCHAR 0038
ENCODING 56
SWIDTH 583 0
DWIDTH 14 0
BBX 11 17 2 0
BITMAP
3F00
7F80
E1C0
C0C0
C0C0
C0C0
6180
3F00
3F80
60C0
E0E0
C060
C060
C060
60C0
7FC0
1F00
ENDCHAR
STARTCHAR 0039
ENCODING 57
SWIDTH 583 0
DWIDTH 14 0
BBX 11 17 2 0
BITMAP
1F00
7F80
61C0
E0C0
C060
C060
C060
E0E0
60E0
7FE0
1E60
0060
00C0
01C0
0380
3F00
3C00
ENDCHAR
STARTCHAR 003A
ENCODING 58
SWIDTH 583 0
DWIDTH 14 0
BBX 3 13 6 0
BITMAP
E0
E0
E0
00
00
00
00
00
00
00
E0
E0
E0
ENDCHAR
STARTCHAR 003B
ENCODING 59
SWIDTH 583 0
DWIDTH 14 0
BBX 3 17 6 -4
BITMAP
E0
E0
E0
00
00
00
00
00
00
00
60
60
60
60
E0
C0
C0
ENDCHAR
STARTCHAR 003C
ENCODING 60
SWIDTH 583 0
DWIDTH 14 0
BBX 10 10 2 2
BITMAP
0040
01C0
0FC0
3E00
F800
E000
7800
1F00
07C0
01C0
ENDCHAR
STARTCHAR 003D
ENCODING 61
SWIDTH 583 0
DWIDTH 14 0
BBX 10 7 2 4
BITMAP
FFC0
FFC0
0000
0000
0000
FFC0
FFC0
ENDCHAR
STARTCHAR 003E
ENCODING 62
SWIDTH 583 0
DWIDTH 14 0
BBX 11 10 2 2
BITMAP
8000
E000
7C00
1F00
03E0
00E0
07C0
3E00
F800
E000
ENDCHAR
STARTCHAR 003F
ENCODING 63
SWIDTH 583 0
DWIDTH 14 0
BBX 10 17 2 0
BITMAP
3F00
7F80
E1C0
C0C0
00C0
00C0
01C0
0380
0700
0E00
0C00
0C00
0000
0000
0C00
0C00
0C00
ENDCHAR
STARTCHAR 0040
ENCODING 64
SWIDTH 625 0
DWIDTH 15 0
BBX 13 17 1 0
BITMAP
0F80
1FE0
3030
6390
47D8
CC88
8888
9888
9888
9888
9998
8FF0
CEE0
4000
6000
3FC0
0F80
ENDCHAR
STARTCHAR 0041
ENCODING 65
SWIDTH 583 0
DWIDTH 14 0
BBX 13 17 1 0
BITMAP
0600
0700
0700
0F00
0D80
0D80
1980
18C0
18C0
38C0
30E0
3FE0
7FE0
6070
6030
E030
C038
ENDCHAR
STARTCHAR 0042
ENCODING 66
SWIDTH 583 0
DWIDTH 14 0
BBX 11 17 2 0
BITMAP
FF00
FFC0
C0E0
C060
C060
C060
C0C0
FF80
FF80
C0C0
C060
C060
C060
C060
C0E0
FFC0
FF00
ENDCHAR
STARTCHAR 0043
ENCODING 67
SWIDTH 583 0
DWIDTH 14 0
BBX 12 17 1 0
BITMAP
0F80
3FC0
70E0
6060
E070
C000
C000
C000
C000
C000
C000
C000
E070
6060
70E0
3FC0
0F80
ENDCHAR
STARTCHAR 0044
ENCODING 68
SWIDTH 583 0
DWIDTH 14 0
BBX 11 17 2 0
BITMAP
FE00
FF80
C180
C0C0
C0E0
C060
C060
C060
C060
C060
C060
C060
C0E0
C0C0
C1C0
FF80
FE00
ENDCHAR
STARTCHAR 0045
ENCODING 69
SWIDTH 583 0
DWIDTH 14 0
BBX 11 17 2 0
BITMAP
FFE0
FFE0
C000
C000
C000
C000
C000
FFC0
FFC0
C000
C000
C000
C000
C000
C000
FFE0
FFE0
ENDCHAR
STARTCHAR 0046
ENCODING 70
SWIDTH 583 0
DWIDTH 14 0
BBX 11 17 2 0
BITMAP
FFE0
FFE0
C000
C000
C000
C000
C000
C000
FFC0
FFC0
C000
C000
C000
C000
C000
C000
C000
ENDCHAR
STARTCHAR 0047
ENCODING 71
SWIDTH 583 0
DWIDTH 14 0
BBX 12 17 1 0
BITMAP
0F80
3FC0
70E0
6070
E030
C000
C000
C000
C3F0
C3F0
C030
C030
6030
6030
3070
3FE0
0F80
ENDCHAR
STARTCHAR 0048
ENCODING 72
SWIDTH 625 0
DWIDTH 15 0
BBX 11 17 2 0
BITMAP
C060
C060
C060
C060
C060
C060
C060
FFE0
FFE0
C060
C060
C060
C060
C060
C060
C060
C060
ENDCHAR
STARTCHAR 0049
ENCODING 73
SWIDTH 583 0
DWIDTH 14 0
BBX 10 17 2 0
BITMAP
FFC0
FFC0
0C00
0C00
0C00
0C00
0C00
0C00
0C00
0C00
0C00
0C00
0C00
0C00
0C00
FFC0
FFC0
ENDCHAR
STARTCHAR 004A
ENCODING 74
SWIDTH 583 0
DWIDTH 14 0
BBX 11 17 1 0
BITMAP
0060
0060
0060
0060
0060
0060
0060
0060
0060
0060
0060
0060
E060
6060
70C0
3FC0
1F00
ENDCHAR
STARTCHAR 004B
ENCODING 75
SWIDTH 583 0
DWIDTH 14 0
BBX 12 17 2 0
BITMAP
C0E0
C0C0
C180
C380
C700
CE00
CC00
DC00
FC00
FE00
E700
C300
C380
C1C0
C0C0
C0E0
C070
ENDCHAR
STARTCHAR 004C
ENCODING 76
SWIDTH 583 0
DWIDTH 14 0
BBX 11 17 2 0
BITMAP
C000
C000
C000
C000
C000
C000
C000
C000
C000
C000
C000
C000
C000
C000
C000
FFE0
FFE0
ENDCHAR
STARTCHAR 004D
ENCODING 77
SWIDTH 625 0
DWIDTH 15 0
BBX 11 17 2 0
BITMAP
E0E0
E0E0
F0E0
F1E0
D1E0
DB60
DB60
DB60
CE60
CE60
CE60
C460
C060
C060
C060
C060
C060
ENDCHAR
STARTCHAR 004E
ENCODING 78
SWIDTH 625 0
DWIDTH 15 0
BBX 11 17 2 0
BITMAP
C060
E060
E060
F060
F860
D860
DC60
CC60
CE60
C660
C760
C360
C3E0
C1E0
C0E0
C0E0
C060
ENDCHAR
STARTCHAR 004F
ENCODING 79
SWIDTH 583 0
DWIDTH 14 0
BBX 12 17 1 0
BITMAP
0F00
3FC0
70E0
6060
E070
C030
C030
C030
C030
C030
C030
C030
E070
6060
70E0
3FC0
0F00
ENDCHAR
STARTCHAR 0050
ENCODING 80
SWIDTH 583 0
DWIDTH 14 0
BBX 11 17 2 0
BITMAP
FF00
FFC0
C0E0
C060
C060
C060
C060
C0E0
FFC0
FF00
C000
C000
C000
C000
C000
C000
C000
ENDCHAR
STARTCHAR 0051
ENCODING 81
SWIDTH 583 0
DWIDTH 14 0
BBX 12 19 1 -3
BITMAP
0F00
3FC0
70E0
6060
E030
C030
C030
C030
C030
C030
C030
C030
E070
6060
70E0
3FC0
0FC0
00F0
0030
ENDCHAR
STARTCHAR 0052
ENCODING 82
SWIDTH 583 0
DWIDTH 14 0
BBX 11 17 2 0
BITMAP
FF00
FFC0
C0C0
C0E0
C060
C060
C0E0
C0C0
FF80
FF00
C300
C380
C180
C1C0
C0C0
C0E0
C060
ENDCHAR
STARTCHAR 0053
ENCODING 83
SWIDTH 583 0
DWIDTH 14 0
BBX 11 17 2 0
BITMAP
1F00
7FC0
60C0
C060
C060
C000
6000
7C00
1F00
07C0
00E0
0060
C060
C060
E0E0
7FC0
1F00
ENDCHAR
STARTCHAR 0054
ENCODING 84
SWIDTH 625 0
DWIDTH 15 0
BBX 13 17 1 0
BITMAP
FFF8
FFF8
0600
0600
0600
0600
0600
0600
0600
0600
0600
0600
0600
0600
0600
0600
0600
ENDCHAR
STARTCHAR 0055
ENCODING 85
SWIDTH 625 0
DWIDTH 15 0
BBX 11 17 2 0
BITMAP
C060
C060
C060
C060
C060
C060
C060
C060
C060
C060
C060
C060
C060
E0E0
70C0
3F80
1F00
ENDCHAR
STARTCHAR 0056
ENCODING 86
SWIDTH 583 0
DWIDTH 14 0
BBX 12 17 1 0
BITMAP
C030
E030
6070
6060
7060
3060
30C0
30C0
18C0
1980
1980
1D80
0F80
0F00
0F00
0700
0600
ENDCHAR
STARTCHAR 0057
ENCODING 87
SWIDTH 583 0
DWIDTH 14 0
BBX 13 17 1 0
BITMAP
C618
C718
C718
C730
C730
6D30
6D30
6DB0
6DB0
69B0
69B0
78A0
78E0
78E0
38E0
30E0
30E0
ENDCHAR
STARTCHAR 0058
ENCODING 88
SWIDTH 583 0
DWIDTH 14 0
BBX 12 17 1 0
BITMAP
E030
7070
3060
38E0
18C0
1D80
0F80
0700
0700
0F00
0D80
1D80
18C0
38E0
7060
6070
E030
ENDCHAR
STARTCHAR 0059
ENCODING 89
SWIDTH 583 0
DWIDTH 14 0
BBX 12 17 1 0
BITMAP
C030
E070
6060
70E0
30C0
38C0
1980
1D80
0F00
0F00
0600
0600
0600
0600
0600
0600
0600
ENDCHAR
STARTCHAR 005A
ENCODING 90
SWIDTH 583 0
DWIDTH 14 0
BBX 11 17 1 0
BITMAP
FFE0
FFE0
00C0
01C0
0180
0380
0300
0600
0E00
0C00
1800
3800
3000
6000
6000
FFE0
FFE0
ENDCHAR
STARTCHAR 005B
ENCODING 91
SWIDTH 583 0
DWIDTH 14 0
BBX 5 23 5 -4
BITMAP
F8
F8
C0
C0
C0
C0
C0
C0
C0
C0
C0
C0
C0
C0
C0
C0
C0
C0
C0
C0
C0
F8
F8
ENDCHAR
STARTCHAR 005C
ENCODING 92
SWIDTH 583 0
DWIDTH 14 0
BBX 9 19 3 -2
BITMAP
C000
C000
6000
6000
6000
3000
3000
1800
1800
1800
0C00
0C00
0600
0600
0600
0300
0300
0300
0180
ENDCHAR
STARTCHAR 005D
ENCODING 93
SWIDTH 583 0
DWIDTH 14 0
BBX 5 23 4 -4
BITMAP
F8
F8
18
18
18
18
18
18
18
18
18
18
18
18
18
18
18
18
18
18
18
F8
F8
ENDCHAR
STARTCHAR 005E
ENCODING 94
SWIDTH 583 0
DWIDTH 14 0
BBX 8 9 3 8
BITMAP
18
1C
3C
3C
36
66
63
C3
C3
ENDCHAR
STARTCHAR 005F
ENCODING 95
SWIDTH 625 0
DWIDTH 15 0
BBX 11 2 2 -2
BITMAP
FFE0
FFE0
ENDCHAR
STARTCHAR 0060
ENCODING 96
SWIDTH 583 0
DWIDTH 14 0
BBX 4 3 5 14
BITMAP
E0
70
30
ENDCHAR
STARTCHAR 0061
ENCODING 97
SWIDTH 583 0
DWIDTH 14 0
BBX 11 13 2 0
BITMAP
1F00
7F80
61C0
C0C0
00C0
1FC0
7FC0
E0C0
C0C0
C0C0
E1C0
7FC0
3EE0
ENDCHAR
STARTCHAR 0062
ENCODING 98
SWIDTH 625 0
DWIDTH 15 0
BBX 11 18 2 0
BITMAP
C000
C000
C000
C000
C000
DF00
FF80
E1C0
C0E0
C060
C060
C060
C060
C060
C0E0
E1C0
FF80
CF00
ENDCHAR
STARTCHAR 0063
ENCODING 99
SWIDTH 625 0
DWIDTH 15 0
BBX 11 13 2 0
BITMAP
1F00
3FC0
70C0
E060
C060
C000
C000
C000
C000
E060
70E0
3FC0
1F00
ENDCHAR
STARTCHAR 0064
ENCODING 100
SWIDTH 625 0
DWIDTH 15 0
BBX 11 18 2 0
BITMAP
0060
0060
0060
0060
0060
1F60
3FE0
70E0
E060
C060
C060
C060
C060
C060
6060
70E0
3FE0
1F60
ENDCHAR
STARTCHAR 0065
ENCODING 101
SWIDTH 625 0
DWIDTH 15 0
BBX 11 13 2 0
BITMAP
1F00
3FC0
70C0
6060
C060
FFE0
FFE0
C000
C000
E000
7060
3FC0
1F80
ENDCHAR
STARTCHAR 0066
ENCODING 102
SWIDTH 625 0
DWIDTH 15 0
BBX 12 19 2 0
BITMAP
01E0
07F0
0E00
0C00
0C00
0C00
FFE0
FFE0
0C00
0C00
0C00
0C00
0C00
0C00
0C00
0C00
0C00
0C00
0C00
ENDCHAR
STARTCHAR 0067
ENCODING 103
SWIDTH 625 0
DWIDTH 15 0
BBX 11 18 2 -5
BITMAP
1F60
3FE0
70E0
E060
C060
C060
C060
C060
C060
E060
70E0
3FE0
1F60
0060
00E0
60C0
7FC0
1F00
ENDCHAR
STARTCHAR 0068
ENCODING 104
SWIDTH 583 0
DWIDTH 14 0
BBX 10 18 2 0
BITMAP
C000
C000
C000
C000
C000
CF00
DF80
E1C0
C0C0
C0C0
C0C0
C0C0
C0C0
C0C0
C0C0
C0C0
C0C0
C0C0
ENDCHAR
STARTCHAR 0069
ENCODING 105
SWIDTH 583 0
DWIDTH 14 0
BBX 11 17 2 0
BITMAP
0C00
0C00
0C00
0000
FC00
FC00
0C00
0C00
0C00
0C00
0C00
0C00
0C00
0C00
0C00
FFE0
FFE0
ENDCHAR
STARTCHAR 006A
ENCODING 106
SWIDTH 583 0
DWIDTH 14 0
BBX 7 22 2 -5
BITMAP
06
06
06
00
7E
7E
06
06
06
06
06
06
06
06
06
06
06
06
06
0E
FC
F8
ENDCHAR
STARTCHAR 006B
ENCODING 107
SWIDTH 583 0
DWIDTH 14 0
BBX 11 18 2 0
BITMAP
C000
C000
C000
C000
C000
C1C0
C380
C700
CE00
DC00
F800
FC00
EE00
C700
C300
C380
C1C0
C0E0
ENDCHAR
STARTCHAR 006C
ENCODING 108
SWIDTH 583 0
DWIDTH 14 0
BBX 11 18 2 0
BITMAP
FC00
FC00
0C00
0C00
0C00
0C00
0C00
0C00
0C00
0C00
0C00
0C00
0C00
0C00
0C00
0C00
FFE0
FFE0
ENDCHAR
STARTCHAR 006D
ENCODING 109
SWIDTH 583 0
DWIDTH 14 0
BBX 12 13 1 0
BITMAP
DCE0
FFF0
C630
C630
C630
C630
C630
C630
C630
C630
C630
C630
C630
ENDCHAR
STARTCHAR 006E
ENCODING 110
SWIDTH 583 0
DWIDTH 14 0
BBX 10 13 2 0
BITMAP
CF00
DF80
E1C0
C0C0
C0C0
C0C0
C0C0
C0C0
C0C0
C0C0
C0C0
C0C0
C0C0
ENDCHAR
STARTCHAR 006F
ENCODING 111
SWIDTH 583 0
DWIDTH 14 0
BBX 11 13 1 0
BITMAP
1F00
3F80
70C0
E0E0
C060
C060
C060
C060
C060
E0E0
70C0
3F80
1F00
ENDCHAR
STARTCHAR 0070
ENCODING 112
SWIDTH 625 0
DWIDTH 15 0
BBX 11 18 2 -5
BITMAP
DF00
FF80
E1C0
C0E0
C060
C060
C060
C060
C060
C0E0
E1C0
FF80
DF00
C000
C000
C000
C000
C000
ENDCHAR
STARTCHAR 0071
ENCODING 113
SWIDTH 625 0
DWIDTH 15 0
BBX 11 18 2 -5
BITMAP
1F60
3FE0
70E0
E060
C060
C060
C060
C060
C060
E060
70E0
3FE0
1F60
0060
0060
0060
0060
0060
ENDCHAR
STARTCHAR 0072
ENCODING 114
SWIDTH 625 0
DWIDTH 15 0
BBX 9 13 4 0
BITMAP
CF80
DF80
F000
E000
C000
C000
C000
C000
C000
C000
C000
C000
C000
ENDCHAR
STARTCHAR 0073
ENCODING 115
SWIDTH 625 0
DWIDTH 15 0
BBX 11 13 2 0
BITMAP
1F00
3FC0
70E0
6060
6000
3C00
1F80
01C0
0060
C060
E0E0
7FC0
1F80
ENDCHAR
STARTCHAR 0074
ENCODING 116
SWIDTH 583 0
DWIDTH 14 0
BBX 10 16 2 0
BITMAP
1800
1800
1800
FFC0
FFC0
1800
1800
1800
1800
1800
1800
1800
1800
1C00
0FC0
07C0
ENDCHAR
STARTCHAR 0075
ENCODING 117
SWIDTH 583 0
DWIDTH 14 0
BBX 10 13 2 0
BITMAP
C0C0
C0C0
C0C0
C0C0
C0C0
C0C0
C0C0
C0C0
C0C0
C0C0
E1C0
7FC0
3EC0
ENDCHAR
STARTCHAR 0076
ENCODING 118
SWIDTH 583 0
DWIDTH 14 0
BBX 12 13 1 0
BITMAP
E030
6070
6060
3060
30C0
30C0
18C0
1980
0D80
0D00
0F00
0700
0600
ENDCHAR
STARTCHAR 0077
ENCODING 119
SWIDTH 583 0
DWIDTH 14 0
BBX 13 13 1 0
BITMAP
C618
C618
C710
C730
CF30
4D30
6DB0
69A0
79A0
38E0
38E0
30E0
30C0
ENDCHAR
STARTCHAR 0078
ENCODING 120
SWIDTH 583 0
DWIDTH 14 0
BBX 11 13 2 0
BITMAP
C0E0
60C0
7180
3380
1F00
1E00
0E00
1E00
1B00
3380
71C0
E0C0
C0E0
ENDCHAR
STARTCHAR 0079
ENCODING 121
SWIDTH 583 0
DWIDTH 14 0
BBX 12 18 1 -5
BITMAP
C030
E030
6060
7060
30E0
38C0
18C0
1980
0D80
0F00
0F00
0700
0600
0600
0C00
1C00
7800
7000
ENDCHAR
STARTCHAR 007A
ENCODING 122
SWIDTH 625 0
DWIDTH 15 0
BBX 11 13 2 0
BITMAP
FFC0
FFC0
0180
0380
0700
0E00
0C00
1800
3800
7000
6000
FFE0
FFE0
ENDCHAR
STARTCHAR 007B
ENCODING 123
SWIDTH 583 0
DWIDTH 14 0
BBX 9 23 3 -4
BITMAP
0380
0780
0600
0C00
0C00
0C00
0C00
0C00
0C00
1C00
F800
F000
1800
0C00
0C00
0C00
0C00
0C00
0C00
0E00
0600
0780
0300
ENDCHAR
STARTCHAR 007C
ENCODING 124
SWIDTH 625 0
DWIDTH 15 0
BBX 2 22 6 -5
BITMAP
C0
C0
C0
C0
C0
C0
C0
C0
C0
C0
C0
C0
C0
C0
C0
C0
C0
C0
C0
C0
C0
C0
ENDCHAR
STARTCHAR 007D
ENCODING 125
SWIDTH 583 0
DWIDTH 14 0
BBX 8 23 4 -4
BITMAP
C0
E0
70
30
30
30
30
30
30
18
1F
0F
18
38
30
30
30
30
30
30
60
E0
C0
ENDCHAR
STARTCHAR 007E
ENCODING 126
SWIDTH 625 0
DWIDTH 15 0
BBX 13 5 1 5
BITMAP
3800
7E08
C718
C3F8
00F0
ENDCHAR
STARTCHAR 00A0
ENCODING 160
SWIDTH 583 0
DWIDTH 14 0
BBX 0 0 0 0
BITMAP
ENDCHAR
STARTCHAR 00A1
ENCODING 161
SWIDTH 583 0
DWIDTH 14 0
BBX 2 18 6 -5
BITMAP
C0
C0
C0
00
00
00
C0
C0
C0
C0
C0
C0
C0
C0
C0
C0
C0
C0
ENDCHAR
STARTCHAR 00A2
ENCODING 162
SWIDTH 625 0
DWIDTH 15 0
BBX 11 18 2 -3
BITMAP
0600
0600
0700
3F80
71C0
60E0
E060
C000
C000
C000
C000
E060
6060
71C0
3F80
0600
0600
0600
ENDCHAR
STARTCHAR 00A3
ENCODING 163
SWIDTH 583 0
DWIDTH 14 0
BBX 12 17 1 0
BITMAP
07C0
1FE0
3870
3030
3000
3000
3000
3000
FF00
FF00
3000
3000
3000
3000
7000
FFF0
FFF0
ENDCHAR
STARTCHAR 00A4
ENCODING 164
SWIDTH 625 0
DWIDTH 15 0
BBX 12 13 2 0
BITMAP
DF30
FFF0
70E0
6060
E070
C030
C030
C030
E070
6060
70E0
FFF0
5F30
ENDCHAR
STARTCHAR 00A5
ENCODING 165
SWIDTH 625 0
DWIDTH 15 0
BBX 13 17 1 0
BITMAP
E018
6030
7030
3860
1860
1CC0
0DC0
0780
7FF0
0300
0300
7FF0
7FF0
0300
0300
0300
0300
ENDCHAR
STARTCHAR 00A6
ENCODING 166
SWIDTH 583 0
DWIDTH 14 0
BBX 2 20 6 -3
BITMAP
C0
C0
C0
C0
C0
C0
C0
C0
C0
00
00
C0
C0
C0
C0
C0
C0
C0
C0
C0
ENDCHAR
STARTCHAR 00A7
ENCODING 167
SWIDTH 583 0
DWIDTH 14 0
BBX 12 23 1 -6
BITMAP
0F80
3FE0
7060
6070
6030
6000
7800
3F00
7FC0
E1E0
C070
C030
E030
7830
3FE0
07C0
00E0
0070
C030
E030
7070
7FE0
1F80
ENDCHAR
STARTCHAR 00A8
ENCODING 168
SWIDTH 583 0
DWIDTH 14 0
BBX 7 2 3 15
BITMAP
C6
C6
ENDCHAR
STARTCHAR 00A9
ENCODING 169
SWIDTH 583 0
DWIDTH 14 0
BBX 12 13 1 0
BITMAP
0F00
30C0
6F60
5920
9190
9010
9010
9190
9910
4F20
6060
30C0
0F00
ENDCHAR
STARTCHAR 00AA
ENCODING 170
SWIDTH 625 0
DWIDTH 15 0
BBX 8 9 3 8
BITMAP
3E
7E
63
03
3F
63
C3
7F
7B
ENDCHAR
STARTCHAR 00AB
ENCODING 171
SWIDTH 583 0
DWIDTH 14 0
BBX 9 9 2 1
BITMAP
0980
1980
3300
6600
EE00
6600
3300
1980
0980
ENDCHAR
STARTCHAR 00AC
ENCODING 172
SWIDTH 625 0
DWIDTH 15 0
BBX 10 5 2 5
BITMAP
FFC0
FFC0
00C0
00C0
00C0
ENDCHAR
STARTCHAR 00AD
ENCODING 173
SWIDTH 625 0
DWIDTH 15 0
BBX 9 2 3 7
BITMAP
FF80
FF80
ENDCHAR
STARTCHAR 00AE
ENCODING 174
SWIDTH 583 0
DWIDTH 14 0
BBX 12 13 1 0
BITMAP
0F00
30C0
6060
4F20
8890
8890
8F10
8910
8910
48A0
6060
30C0
0F00
ENDCHAR
STARTCHAR 00AF
ENCODING 175
SWIDTH 583 0
DWIDTH 14 0
BBX 8 2 3 15
BITMAP
FF
FF
ENDCHAR
STARTCHAR 00B0
ENCODING 176
SWIDTH 583 0
DWIDTH 14 0
BBX 6 6 4 11
BITMAP
78
FC
84
84
FC
78
ENDCHAR
STARTCHAR 00B1
ENCODING 177
SWIDTH 625 0
DWIDTH 15 0
BBX 11 15 2 0
BITMAP
0600
0600
0600
0600
0600
FFE0
FFE0
0600
0600
0600
0600
0600
0000
FFC0
FFC0
ENDCHAR
STARTCHAR 00B2
ENCODING 178
SWIDTH 583 0
DWIDTH 14 0
BBX 7 9 4 8
BITMAP
7C
FE
C6
06
0C
18
70
FE
FE
ENDCHAR
STARTCHAR 00B3
ENCODING 179
SWIDTH 625 0
DWIDTH 15 0
BBX 7 9 4 8
BITMAP
7C
FE
C6
06
38
06
C6
FE
7C
ENDCHAR
STARTCHAR 00B4
ENCODING 180
SWIDTH 583 0
DWIDTH 14 0
BBX 4 3 5 14
BITMAP
30
60
C0
ENDCHAR
STARTCHAR 00B5
ENCODING 181
SWIDTH 583 0
DWIDTH 14 0
BBX 10 18 2 -5
BITMAP
C0C0
C0C0
C0C0
C0C0
C0C0
C0C0
C0C0
C0C0
C0C0
C0C0
E1C0
FFC0
DEC0
C000
C000
C000
C000
C000
ENDCHAR
STARTCHAR 00B6
ENCODING 182
SWIDTH 583 0
DWIDTH 14 0
BBX 9 17 2 0
BITMAP
1F80
3F80
7F80
FF80
FF80
FF80
FF80
FF80
7F80
3F80
1F80
0180
0180
0180
0180
0180
0180
ENDCHAR
STARTCHAR 00B7
ENCODING 183
SWIDTH 583 0
DWIDTH 14 0
BBX 2 3 6 7
BITMAP
C0
C0
C0
ENDCHAR
STARTCHAR 00B8
ENCODING 184
SWIDTH 625 0
DWIDTH 15 0
BBX 4 5 5 -5
BITMAP
C0
F0
30
F0
E0
ENDCHAR
STARTCHAR 00B9
ENCODING 185
SWIDTH 583 0
DWIDTH 14 0
BBX 5 9 4 8
BITMAP
38
F8
98
18
18
18
18
18
18
ENDCHAR
STARTCHAR 00BA
ENCODING 186
SWIDTH 583 0
DWIDTH 14 0
BBX 8 9 3 8
BITMAP
3C
7E
C3
C3
C3
C3
C3
7E
3C
ENDCHAR
STARTCHAR 00BB
ENCODING 187
SWIDTH 583 0
DWIDTH 14 0
BBX 9 9 3 2
BITMAP
CC00
6600
6300
3300
1980
3300
6300
6600
CC00
ENDCHAR
STARTCHAR 00BC
ENCODING 188
SWIDTH 625 0
DWIDTH 15 0
BBX 14 17 0 0
BITMAP
3800
F800
1840
1840
18C0
1880
1980
1900
0300
0338
0638
0678
0CD8
0C98
01FC
01FC
0018
ENDCHAR
STARTCHAR 00BD
ENCODING 189
SWIDTH 625 0
DWIDTH 15 0
BBX 14 17 0 0
BITMAP
3800
F800
1880
18C0
1980
1980
1B00
1B00
0670
06F8
0D8C
0C08
1818
1830
00C0
01FC
01FC
ENDCHAR
STARTCHAR 00BE
ENCODING 190
SWIDTH 625 0
DWIDTH 15 0
BBX 14 18 0 0
BITMAP
3C00
7E00
C600
0620
3860
0640
06C0
C680
7F80
3900
0338
0238
0678
04D8
0C98
01FC
01FC
0018
ENDCHAR
STARTCHAR 00BF
ENCODING 191
SWIDTH 583 0
DWIDTH 14 0
BBX 10 18 2 -5
BITMAP
0C00
0C00
0C00
0000
0000
0C00
0C00
1C00
3800
3000
6000
E000
C000
C000
C0C0
E1C0
7F80
3F00
ENDCHAR
STARTCHAR 00C0
ENCODING 192
SWIDTH 583 0
DWIDTH 14 0
BBX 13 22 1 0
BITMAP
1800
0C00
0600
0200
0000
0600
0700
0700
0F00
0D80
0D80
1980
18C0
18C0
38C0
30E0
3FE0
7FE0
6070
6030
E030
C038
ENDCHAR
STARTCHAR 00C1
ENCODING 193
SWIDTH 583 0
DWIDTH 14 0
BBX 13 22 1 0
BITMAP
00C0
0180
0300
0600
0000
0600
0700
0700
0F00
0D80
0D80
1980
18C0
18C0
38C0
30E0
3FE0
7FE0
6070
6030
E030
C038
ENDCHAR
STARTCHAR 00C2
ENCODING 194
SWIDTH 583 0
DWIDTH 14 0
BBX 13 22 1 0
BITMAP
0700
0D80
18C0
0000
0000
0700
0700
0700
0F00
0D80
0D80
1D80
18C0
18C0
18C0
3060
3FE0
3FE0
6070
6030
6030
C038
ENDCHAR
STARTCHAR 00C3
ENCODING 195
SWIDTH 583 0
DWIDTH 14 0
BBX 12 22 1 0
BITMAP
1C40
3FC0
2380
0000
0000
0600
0600
0F00
0F00
0F00
1980
1980
1980
31C0
30C0
30C0
7FE0
7FE0
6060
E070
C030
C030
ENDCHAR
STARTCHAR 00C4
ENCODING 196
SWIDTH 583 0
DWIDTH 14 0
BBX 12 21 2 0
BITMAP
3180
3180
0000
0000
0E00
0E00
0E00
0F00
1B00
1B00
1980
3180
3180
31C0
60C0
7FC0
7FC0
E060
C060
C060
C070
ENDCHAR
STARTCHAR 00C5
ENCODING 197
SWIDTH 625 0
DWIDTH 15 0
BBX 13 23 1 0
BITMAP
0700
0880
0880
0880
0700
0000
0700
0700
0700
0D80
0D80
0D80
1DC0
18C0
18C0
38E0
3060
3FE0
7FF0
6030
6030
E030
C018
ENDCHAR
STARTCHAR 00C6
ENCODING 198
SWIDTH 625 0
DWIDTH 15 0
BBX 13 17 1 0
BITMAP
03F8
03F8
0780
0780
0D80
0D80
0D80
19F8
19F8
3980
3180
3F80
7F80
6180
6180
C1F8
C1F8
ENDCHAR
STARTCHAR 00C7
ENCODING 199
SWIDTH 625 0
DWIDTH 15 0
BBX 12 22 1 -5
BITMAP
0F80
3FE0
7070
6030
E030
C000
C000
C000
C000
C000
C000
C000
E030
6030
7070
3FE0
0F80
0700
0180
0180
0780
0700
ENDCHAR
STARTCHAR 00C8
ENCODING 200
SWIDTH 583 0
DWIDTH 14 0
BBX 11 22 2 0
BITMAP
7000
3800
1800
0C00
0000
FFE0
FFE0
C000
C000
C000
C000
C000
FFC0
FFC0
C000
C000
C000
C000
C000
C000
FFE0
FFE0
ENDCHAR
STARTCHAR 00C9
ENCODING 201
SWIDTH 583 0
DWIDTH 14 0
BBX 11 22 2 0
BITMAP
0380
0300
0600
0C00
0000
FFE0
FFE0
C000
C000
C000
C000
C000
FFC0
FFC0
C000
C000
C000
C000
C000
C000
FFE0
FFE0
ENDCHAR
STARTCHAR 00CA
ENCODING 202
SWIDTH 583 0
DWIDTH 14 0
BBX 11 22 2 0
BITMAP
0E00
1F00
3180
0000
0000
FFE0
FFE0
C000
C000
C000
C000
C000
FFC0
FFC0
C000
C000
C000
C000
C000
C000
FFE0
FFE0
ENDCHAR
STARTCHAR 00CB
ENCODING 203
SWIDTH 583 0
DWIDTH 14 0
BBX 11 21 2 0
BITMAP
3180
3180
0000
0000
FFE0
FFE0
C000
C000
C000
C000
C000
FFC0
FFC0
C000
C000
C000
C000
C000
C000
FFE0
FFE0
ENDCHAR
STARTCHAR 00CC
ENCODING 204
SWIDTH 583 0
DWIDTH 14 0
BBX 10 22 2 0
BITMAP
7000
3000
1800
0C00
0000
FFC0
FFC0
0C00
0C00
0C00
0C00
0C00
0C00
0C00
0C00
0C00
0C00
0C00
0C00
0C00
FFC0
FFC0
ENDCHAR
STARTCHAR 00CD
ENCODING 205
SWIDTH 583 0
DWIDTH 14 0
BBX 10 22 2 0
BITMAP
0300
0600
0C00
0800
0000
FFC0
FFC0
0C00
0C00
0C00
0C00
0C00
0C00
0C00
0C00
0C00
0C00
0C00
0C00
0C00
FFC0
FFC0
ENDCHAR
STARTCHAR 00CE
ENCODING 206
SWIDTH 583 0
DWIDTH 14 0
BBX 10 22 2 0
BITMAP
1C00
3600
6300
0000
0000
FFC0
FFC0
0C00
0C00
0C00
0C00
0C00
0C00
0C00
0C00
0C00
0C00
0C00
0C00
0C00
FFC0
FFC0
ENDCHAR
STARTCHAR 00CF
ENCODING 207
SWIDTH 583 0
DWIDTH 14 0
BBX 10 21 2 0
BITMAP
6300
6300
0000
0000
FFC0
FFC0
0C00
0C00
0C00
0C00
0C00
0C00
0C00
0C00
0C00
0C00
0C00
0C00
0C00
FFC0
FFC0
ENDCHAR
STARTCHAR 00D0
ENCODING 208
SWIDTH 583 0
DWIDTH 14 0
BBX 14 17 -1 0
BITMAP
1FC0
1FE0
1870
1818
181C
180C
180C
FE0C
FE0C
180C
180C
180C
181C
1818
1870
1FE0
1FC0
ENDCHAR
STARTCHAR 00D1
ENCODING 209
SWIDTH 625 0
DWIDTH 15 0
BBX 11 22 2 0
BITMAP
3880
7F80
4300
0000
0000
C060
E060
E060
F060
F860
D860
DC60
CC60
CE60
C660
C760
C360
C3E0
C1E0
C0E0
C0E0
C060
ENDCHAR
STARTCHAR 00D2
ENCODING 210
SWIDTH 583 0
DWIDTH 14 0
BBX 12 22 1 0
BITMAP
1800
0C00
0600
0000
0000
0F00
3FC0
70E0
6060
E070
C030
C030
C030
C030
C030
C030
C030
E070
6060
70E0
3FC0
0F00
ENDCHAR
STARTCHAR 00D3
ENCODING 211
SWIDTH 583 0
DWIDTH 14 0
BBX 12 22 1 0
BITMAP
01C0
0300
0200
0000
0000
0F00
3FC0
70E0
6060
E070
C030
C030
C030
C030
C030
C030
C030
E070
6060
70E0
3FC0
0F00
ENDCHAR
STARTCHAR 00D4
ENCODING 212
SWIDTH 583 0
DWIDTH 14 0
BBX 12 23 1 0
BITMAP
0200
0700
0D80
18C0
0000
0000
0F00
3FC0
70E0
6060
E030
C030
C030
C030
C030
C030
C030
C030
E030
6060
70E0
3FC0
0F00
ENDCHAR
STARTCHAR 00D5
ENCODING 213
SWIDTH 583 0
DWIDTH 14 0
BBX 12 22 1 0
BITMAP
1C40
3FC0
3180
0000
0000
0F00
3FC0
70E0
6060
E070
C030
C030
C030
C030
C030
C030
C030
E070
6060
70E0
3FC0
0F00
ENDCHAR
STARTCHAR 00D6
ENCODING 214
SWIDTH 583 0
DWIDTH 14 0
BBX 12 22 1 0
BITMAP
18C0
18C0
0000
0000
0000
0F00
3FC0
70E0
6060
E070
C030
C030
C030
C030
C030
C030
C030
E070
6060
70E0
3FC0
0F00
ENDCHAR
STARTCHAR 00D7
ENCODING 215
SWIDTH 583 0
DWIDTH 14 0
BBX 10 11 2 2
BITMAP
4040
E0C0
7180
3B00
1E00
0E00
1F00
3B80
71C0
E0C0
4000
ENDCHAR
STARTCHAR 00D8
ENCODING 216
SWIDTH 583 0
DWIDTH 14 0
BBX 12 19 1 -1
BITMAP
0010
0F30
3FE0
70E0
60E0
E0F0
C1B0
C130
C330
C630
C430
CC30
C830
F870
7060
70E0
7FC0
4F00
C000
ENDCHAR
STARTCHAR 00D9
ENCODING 217
SWIDTH 625 0
DWIDTH 15 0
BBX 11 22 2 0
BITMAP
3800
1C00
0C00
0600
0000
C060
C060
C060
C060
C060
C060
C060
C060
C060
C060
C060
C060
C060
E0E0
70C0
3F80
1F00
ENDCHAR
STARTCHAR 00DA
ENCODING 218
SWIDTH 625 0
DWIDTH 15 0
BBX 11 22 2 0
BITMAP
01C0
0180
0300
0600
0000
C060
C060
C060
C060
C060
C060
C060
C060
C060
C060
C060
C060
C060
E0E0
70C0
3F80
1F00
ENDCHAR
STARTCHAR 00DB
ENCODING 219
SWIDTH 625 0
DWIDTH 15 0
BBX 11 22 2 0
BITMAP
0600
0F80
19C0
0000
0000
C060
C060
C060
C060
C060
C060
C060
C060
C060
C060
C060
C060
C060
E0E0
70C0
3F80
1F00
ENDCHAR
STARTCHAR 00DC
ENCODING 220
SWIDTH 625 0
DWIDTH 15 0
BBX 11 21 2 0
BITMAP
18C0
18C0
0000
0000
C060
C060
C060
C060
C060
C060
C060
C060
C060
C060
C060
C060
C060
E0E0
70C0
3F80
1F00
ENDCHAR
STARTCHAR 00DD
ENCODING 221
SWIDTH 583 0
DWIDTH 14 0
BBX 12 22 1 0
BITMAP
01C0
0180
0300
0600
0000
C030
E070
6060
70E0
30C0
38C0
1980
1D80
0F00
0F00
0600
0600
0600
0600
0600
0600
0600
ENDCHAR
STARTCHAR 00DE
ENCODING 222
SWIDTH 583 0
DWIDTH 14 0
BBX 11 17 2 0
BITMAP
C000
C000
C000
FF00
FFC0
C1C0
C060
C060
C060
C060
C0E0
FFC0
FF00
C000
C000
C000
C000
ENDCHAR
STARTCHAR 00DF
ENCODING 223
SWIDTH 625 0
DWIDTH 15 0
BBX 11 19 2 0
BITMAP
1E00
3F00
6380
E180
C180
C180
C300
C700
C600
C600
C700
C380
C1C0
C0E0
C060
C060
C0E0
DFC0
CF80
ENDCHAR
STARTCHAR 00E0
ENCODING 224
SWIDTH 583 0
DWIDTH 14 0
BBX 11 18 2 0
BITMAP
3800
1800
0C00
0000
0000
1F00
7F80
61C0
E0C0
00C0
1FC0
7FC0
E0C0
C0C0
C0C0
E1C0
7FC0
3EE0
ENDCHAR
STARTCHAR 00E1
ENCODING 225
SWIDTH 583 0
DWIDTH 14 0
BBX 11 18 2 0
BITMAP
0380
0300
0600
0000
0000
1F00
7F80
61C0
C0C0
00C0
07C0
7FC0
60C0
C0C0
C0C0
E1C0
7FC0
3EE0
ENDCHAR
STARTCHAR 00E2
ENCODING 226
SWIDTH 583 0
DWIDTH 14 0
BBX 11 18 2 0
BITMAP
0E00
1B00
3180
0000
0000
1F00
7F80
61C0
C0C0
00C0
1FC0
7FC0
E0C0
C0C0
C0C0
E1C0
7FC0
3EE0
ENDCHAR
STARTCHAR 00E3
ENCODING 227
SWIDTH 583 0
DWIDTH 14 0
BBX 11 18 2 0
BITMAP
3880
3F80
6300
0000
0000
1F00
7F80
61C0
C0C0
00C0
1FC0
7FC0
E0C0
C0C0
C0C0
E1C0
7FC0
3EE0
ENDCHAR
STARTCHAR 00E4
ENCODING 228
SWIDTH 583 0
DWIDTH 14 0
BBX 11 18 2 0
BITMAP
3180
3180
0000
0000
0000
1F00
7F80
61C0
C0C0
00C0
1FC0
7FC0
E0C0
C0C0
C0C0
E1C0
7FC0
3EE0
ENDCHAR
STARTCHAR 00E5
ENCODING 229
SWIDTH 583 0
DWIDTH 14 0
BBX 11 19 2 0
BITMAP
0E00
1100
1100
1100
0E00
0000
1F00
7F80
61C0
C0C0
00C0
1FC0
7FC0
E0C0
C0C0
C0C0
E1C0
7FC0
3EE0
ENDCHAR
STARTCHAR 00E6
ENCODING 230
SWIDTH 625 0
DWIDTH 15 0
BBX 13 13 1 0
BITMAP
3DE0
7FF0
E718
0618
0618
3FF8
7FF8
E600
C600
C600
C700
FFF8
79F0
ENDCHAR
STARTCHAR 00E7
ENCODING 231
SWIDTH 625 0
DWIDTH 15 0
BBX 11 18 2 -5
BITMAP
1F00
3FC0
70C0
E060
C060
C000
C000
C000
C000
E060
70E0
3FC0
1F00
0C00
0700
0300
0F00
0E00
ENDCHAR
STARTCHAR 00E8
ENCODING 232
SWIDTH 625 0
DWIDTH 15 0
BBX 11 18 2 0
BITMAP
3800
1800
0C00
0000
0000
1F00
3FC0
70C0
6060
C060
FFE0
FFE0
C000
C000
E000
7060
3FC0
1F80
ENDCHAR
STARTCHAR 00E9
ENCODING 233
SWIDTH 625 0
DWIDTH 15 0
BBX 11 18 2 0
BITMAP
0380
0300
0600
0000
0000
1F00
3FC0
70C0
6060
C060
FFE0
FFE0
C000
C000
E000
7060
3FC0
1F80
ENDCHAR
STARTCHAR 00EA
ENCODING 234
SWIDTH 625 0
DWIDTH 15 0
BBX 11 18 2 0
BITMAP
0E00
1B00
3180
0000
0000
1F00
3F80
70C0
60E0
C060
FFE0
FFE0
C000
C000
E040
70E0
3FC0
1F80
ENDCHAR
STARTCHAR 00EB
ENCODING 235
SWIDTH 625 0
DWIDTH 15 0
BBX 11 18 2 0
BITMAP
3180
3180
0000
0000
0000
1F00
3FC0
70C0
6060
E060
FFE0
FFE0
C000
E000
E040
70E0
3FC0
1F80
ENDCHAR
STARTCHAR 00EC
ENCODING 236
SWIDTH 583 0
DWIDTH 14 0
BBX 11 18 2 0
BITMAP
3000
1800
0C00
0000
0000
FC00
FC00
0C00
0C00
0C00
0C00
0C00
0C00
0C00
0C00
0C00
FFE0
FFE0
ENDCHAR
STARTCHAR 00ED
ENCODING 237
SWIDTH 583 0
DWIDTH 14 0
BBX 11 18 2 0
BITMAP
0380
0700
0600
0000
0000
FC00
FC00
0C00
0C00
0C00
0C00
0C00
0C00
0C00
0C00
0C00
FFE0
FFE0
ENDCHAR
STARTCHAR 00EE
ENCODING 238
SWIDTH 583 0
DWIDTH 14 0
BBX 11 18 2 0
BITMAP
0C00
1F00
3380
0000
0000
FC00
FC00
0C00
0C00
0C00
0C00
0C00
0C00
0C00
0C00
0C00
FFE0
FFE0
ENDCHAR
STARTCHAR 00EF
ENCODING 239
SWIDTH 583 0
DWIDTH 14 0
BBX 11 17 2 0
BITMAP
3180
3180
0000
0000
FC00
FC00
0C00
0C00
0C00
0C00
0C00
0C00
0C00
0C00
0C00
FFE0
FFE0
ENDCHAR
STARTCHAR 00F0
ENCODING 240
SWIDTH 625 0
DWIDTH 15 0
BBX 12 18 1 0
BITMAP
0E20
0FE0
03C0
07C0
1CE0
0060
0F60
3FB0
70F0
6030
C030
C030
C030
C070
E060
70E0
3FC0
1F00
ENDCHAR
STARTCHAR 00F1
ENCODING 241
SWIDTH 583 0
DWIDTH 14 0
BBX 10 18 2 0
BITMAP
3980
7F80
4700
0000
0000
CF00
DF80
E1C0
C0C0
C0C0
C0C0
C0C0
C0C0
C0C0
C0C0
C0C0
C0C0
C0C0
ENDCHAR
STARTCHAR 00F2
ENCODING 242
SWIDTH 583 0
DWIDTH 14 0
BBX 11 18 1 0
BITMAP
3800
1800
0C00
0000
0000
1F00
3F80
70C0
E0E0
C060
C060
C060
C060
C060
E0E0
70C0
3F80
1F00
ENDCHAR
STARTCHAR 00F3
ENCODING 243
SWIDTH 583 0
DWIDTH 14 0
BBX 11 18 1 0
BITMAP
0380
0300
0600
0000
0000
1F00
3F80
70C0
E0E0
C060
C060
C060
C060
C060
E0E0
70C0
3F80
1F00
ENDCHAR
STARTCHAR 00F4
ENCODING 244
SWIDTH 583 0
DWIDTH 14 0
BBX 11 18 1 0
BITMAP
0E00
1B00
3180
0000
0000
1F00
3F80
70C0
E0E0
C060
C060
C060
C060
C060
E0E0
70C0
3F80
1F00
ENDCHAR
STARTCHAR 00F5
ENCODING 245
SWIDTH 583 0
DWIDTH 14 0
BBX 11 18 1 0
BITMAP
1C80
3F80
2300
0000
0000
1F00
3F80
70C0
E0E0
C060
C060
C060
C060
C060
E0E0
70C0
3F80
1F00
ENDCHAR
STARTCHAR 00F6
ENCODING 246
SWIDTH 583 0
DWIDTH 14 0
BBX 11 18 1 0
BITMAP
3180
3180
0000
0000
0000
1F00
3F80
70C0
E0E0
C060
C060
C060
C060
C060
E0E0
70C0
3F80
1F00
ENDCHAR
STARTCHAR 00F7
ENCODING 247
SWIDTH 583 0
DWIDTH 14 0
BBX 12 12 1 2
BITMAP
0600
0600
0600
0000
0000
FFF0
FFF0
0000
0000
0600
0600
0600
ENDCHAR
STARTCHAR 00F8
ENCODING 248
SWIDTH 583 0
DWIDTH 14 0
BBX 11 17 1 -2
BITMAP
0040
00C0
1F80
3F80
71C0
E3E0
C260
C660
C460
CC60
C860
68E0
70C0
3F80
3F00
2000
6000
ENDCHAR
STARTCHAR 00F9
ENCODING 249
SWIDTH 583 0
DWIDTH 14 0
BBX 10 18 2 0
BITMAP
3000
1800
0800
0000
0000
C0C0
C0C0
C0C0
C0C0
C0C0
C0C0
C0C0
C0C0
C0C0
C0C0
E1C0
7FC0
3EC0
ENDCHAR
STARTCHAR 00FA
ENCODING 250
SWIDTH 583 0
DWIDTH 14 0
BBX 10 18 2 0
BITMAP
0300
0600
0400
0000
0000
C0C0
C0C0
C0C0
C0C0
C0C0
C0C0
C0C0
C0C0
C0C0
C0C0
E1C0
7FC0
3EC0
ENDCHAR
STARTCHAR 00FB
ENCODING 251
SWIDTH 583 0
DWIDTH 14 0
BBX 10 18 2 0
BITMAP
0C00
1F00
3380
0000
0000
C0C0
C0C0
C0C0
C0C0
C0C0
C0C0
C0C0
C0C0
C0C0
C0C0
E1C0
7FC0
3EC0
ENDCHAR
STARTCHAR 00FC
ENCODING 252
SWIDTH 583 0
DWIDTH 14 0
BBX 10 17 2 0
BITMAP
3180
3180
0000
0000
C0C0
C0C0
C0C0
C0C0
C0C0
C0C0
C0C0
C0C0
C0C0
C0C0
E1C0
7FC0
3EC0
ENDCHAR
STARTCHAR 00FD
ENCODING 253
SWIDTH 583 0
DWIDTH 14 0
BBX 12 23 1 -5
BITMAP
01C0
0180
0300
0000
0000
C030
E030
6060
7060
30E0
38C0
18C0
1980
0D80
0F00
0F00
0700
0600
0600
0C00
1C00
7800
7000
ENDCHAR
STARTCHAR 00FE
ENCODING 254
SWIDTH 625 0
DWIDTH 15 0
BBX 11 24 2 -5
BITMAP
C000
C000
C000
C000
C000
C000
DF00
FF80
E1C0
C0E0
C060
C060
C060
C060
C060
C0E0
E1C0
FF80
DF00
C000
C000
C000
C000
C000
ENDCHAR
STARTCHAR 00FF
ENCODING 255
SWIDTH 583 0
DWIDTH 14 0
BBX 12 22 1 -5
BITMAP
18C0
18C0
0000
0000
E030
6030
7070
3060
30E0
38C0
18C0
1D80
0D80
0D80
0700
0700
0600
0600
0C00
0C00
7800
7000
ENDCHAR
STARTCHAR 0100
ENCODING 256
SWIDTH 583 0
DWIDTH 14 0
BBX 12 21 1 0
BITMAP
3FC0
3FC0
0000
0000
0600
0600
0F00
0F00
0F00
1980
1980
1980
3180
30C0
30C0
7FC0
7FE0
6060
6060
C070
C030
ENDCHAR
STARTCHAR 0101
ENCODING 257
SWIDTH 583 0
DWIDTH 14 0
BBX 11 17 2 0
BITMAP
3FC0
3FC0
0000
0000
1F00
7F80
61C0
C0C0
00C0
1FC0
7FC0
E0C0
C0C0
C0C0
E1C0
7FC0
3EE0
ENDCHAR
STARTCHAR 0102
ENCODING 258
SWIDTH 625 0
DWIDTH 15 0
BBX 13 22 1 0
BITMAP
18C0
1FC0
0F80
0000
0000
0700
0700
0700
0F80
0D80
0D80
1D80
18C0
18C0
18C0
3060
3FE0
3FE0
6070
6030
6030
C038
ENDCHAR
STARTCHAR 0103
ENCODING 259
SWIDTH 583 0
DWIDTH 14 0
BBX 11 18 2 0
BITMAP
3180
3F00
1E00
0000
0000
1F00
7F80
61C0
E0C0
00C0
07C0
7FC0
60C0
C0C0
C0C0
E1C0
7FC0
3EE0
ENDCHAR
STARTCHAR 0104
ENCODING 260
SWIDTH 583 0
DWIDTH 14 0
BBX 13 22 1 -5
BITMAP
0600
0700
0F00
0F00
0F80
1D80
1980
19C0
38C0
30C0
30E0
3FE0
7FE0
6070
6030
C030
C038
0060
00C0
00C0
00F0
0078
ENDCHAR
STARTCHAR 0105
ENCODING 261
SWIDTH 583 0
DWIDTH 14 0
BBX 11 18 2 -5
BITMAP
1F00
7F80
61C0
C0C0
00C0
1FC0
7FC0
E0C0
C0C0
C0C0
E1C0
7FC0
3EE0
0180
0300
0300
03C0
01E0
ENDCHAR
STARTCHAR 0106
ENCODING 262
SWIDTH 583 0
DWIDTH 14 0
BBX 12 22 1 0
BITMAP
01C0
0180
0300
0200
0000
0F80
3FC0
70E0
6060
E030
C000
C000
C000
C000
C000
C000
C000
E070
6060
70E0
3FC0
0F80
ENDCHAR
STARTCHAR 0107
ENCODING 263
SWIDTH 625 0
DWIDTH 15 0
BBX 11 18 2 0
BITMAP
0180
0300
0600
0000
0000
1F00
3FC0
70E0
E060
C000
C000
C000
C000
C000
E060
70C0
3FC0
1F00
ENDCHAR
STARTCHAR 0108
ENCODING 264
SWIDTH 583 0
DWIDTH 14 0
BBX 12 23 1 0
BITMAP
0200
0700
0D80
18C0
0000
0000
0F80
3FC0
70E0
6060
E070
C000
C000
C000
C000
C000
C000
C000
E070
6060
70E0
3FC0
0F00
ENDCHAR
STARTCHAR 0109
ENCODING 265
SWIDTH 625 0
DWIDTH 15 0
BBX 11 18 2 0
BITMAP
0600
1F00
3980
0000
0000
1F00
3FC0
70C0
E060
C060
C000
C000
C000
C000
E060
70E0
3FC0
1F00
ENDCHAR
STARTCHAR 010A
ENCODING 266
SWIDTH 583 0
DWIDTH 14 0
BBX 12 22 1 0
BITMAP
0300
0300
0300
0000
0000
0F80
3FC0
70E0
6060
E030
C000
C000
C000
C000
C000
C000
C000
E030
6070
70E0
3FC0
0F80
ENDCHAR
STARTCHAR 010B
ENCODING 267
SWIDTH 625 0
DWIDTH 15 0
BBX 11 18 2 0
BITMAP
0600
0600
0600
0000
0000
1F00
3FC0
70C0
E060
C060
C000
C000
C000
C000
E060
70E0
3FC0
1F00
ENDCHAR
STARTCHAR 010C
ENCODING 268
SWIDTH 583 0
DWIDTH 14 0
BBX 12 23 1 0
BITMAP
18C0
0D80
0700
0200
0000
0000
0F80
3FC0
70E0
6060
E030
C000
C000
C000
C000
C000
C000
C000
E030
6060
70E0
3FC0
0F80
ENDCHAR
STARTCHAR 010D
ENCODING 269
SWIDTH 625 0
DWIDTH 15 0
BBX 11 18 2 0
BITMAP
3980
0F00
0600
0000
0000
1F00
3FC0
70C0
E060
C060
C000
C000
C000
C000
E060
70E0
3FC0
1F00
ENDCHAR
STARTCHAR 010E
ENCODING 270
SWIDTH 583 0
DWIDTH 14 0
BBX 11 22 2 0
BITMAP
3300
1E00
0C00
0000
0000
FE00
FF80
C180
C0C0
C0E0
C060
C060
C060
C060
C060
C060
C060
C0E0
C0C0
C1C0
FF80
FE00
ENDCHAR
STARTCHAR 010F
ENCODING 271
SWIDTH 583 0
DWIDTH 14 0
BBX 16 19 1 0
BITMAP
0003
0063
0063
0063
0063
0066
1F60
3FE0
70E0
E060
C060
C060
C060
C060
C060
6060
70E0
3FE0
1F60
ENDCHAR
STARTCHAR 0110
ENCODING 272
SWIDTH 583 0
DWIDTH 14 0
BBX 14 17 -1 0
BITMAP
1FC0
1FE0
1870
1818
181C
180C
180C
FE0C
FE0C
180C
180C
180C
181C
1818
1870
1FE0
1FC0
ENDCHAR
STARTCHAR 0111
ENCODING 273
SWIDTH 583 0
DWIDTH 14 0
BBX 13 18 1 0
BITMAP
0060
03F8
03F8
0060
0060
1F60
3FE0
70E0
E060
C060
C060
C060
C060
C060
6060
70E0
3FE0
1F60
ENDCHAR
STARTCHAR 0112
ENCODING 274
SWIDTH 583 0
DWIDTH 14 0
BBX 11 21 2 0
BITMAP
7F80
7F80
0000
0000
FFE0
FFE0
C000
C000
C000
C000
C000
FF80
FF80
C000
C000
C000
C000
C000
C000
FFE0
FFE0
ENDCHAR
STARTCHAR 0113
ENCODING 275
SWIDTH 625 0
DWIDTH 15 0
BBX 12 17 1 0
BITMAP
3FC0
3FC0
0000
0000
0F80
1FC0
3060
6070
6030
7FF0
FFF0
6000
6000
6000
3070
3FE0
0F80
ENDCHAR
STARTCHAR 0114
ENCODING 276
SWIDTH 583 0
DWIDTH 14 0
BBX 11 22 2 0
BITMAP
2100
3F00
1E00
0000
0000
FFE0
FFE0
C000
C000
C000
C000
C000
FFC0
FFC0
C000
C000
C000
C000
C000
C000
FFE0
FFE0
ENDCHAR
STARTCHAR 0115
ENCODING 277
SWIDTH 625 0
DWIDTH 15 0
BBX 11 18 2 0
BITMAP
3180
1F80
0F00
0000
0000
1F00
3FC0
70C0
6060
C060
FFE0
FFE0
C000
C000
E000
7060
3FC0
1F80
ENDCHAR
STARTCHAR 0116
ENCODING 278
SWIDTH 583 0
DWIDTH 14 0
BBX 11 22 2 0
BITMAP
0C00
0C00
0C00
0000
0000
FFE0
FFE0
C000
C000
C000
C000
C000
FFC0
FFC0
C000
C000
C000
C000
C000
C000
FFE0
FFE0
ENDCHAR
STARTCHAR 0117
ENCODING 279
SWIDTH 625 0
DWIDTH 15 0
BBX 12 18 1 0
BITMAP
0600
0600
0600
0000
0000
0F80
1FC0
3060
6070
6030
7FF0
FFF0
6000
6000
7020
3870
3FE0
0F80
ENDCHAR
STARTCHAR 0118
ENCODING 280
SWIDTH 583 0
DWIDTH 14 0
BBX 11 22 2 -5
BITMAP
FFE0
FFE0
C000
C000
C000
C000
C000
FFC0
FFC0
C000
C000
C000
C000
C000
C000
FFE0
FFE0
0180
0300
0300
03C0
01C0
ENDCHAR
STARTCHAR 0119
ENCODING 281
SWIDTH 625 0
DWIDTH 15 0
BBX 11 18 2 -5
BITMAP
1F00
3FC0
70C0
6060
C060
FFE0
FFE0
C000
C000
E000
7060
3FC0
0F80
0300
0600
0600
0780
0300
ENDCHAR
STARTCHAR 011A
ENCODING 282
SWIDTH 583 0
DWIDTH 14 0
BBX 11 22 2 0
BITMAP
3180
1F00
0C00
0000
0000
FFE0
FFE0
C000
C000
C000
C000
C000
FFC0
FFC0
C000
C000
C000
C000
C000
C000
FFE0
FFE0
ENDCHAR
STARTCHAR 011B
ENCODING 283
SWIDTH 625 0
DWIDTH 15 0
BBX 11 18 2 0
BITMAP
3180
1B00
0E00
0000
0000
1F00
3FC0
70C0
6060
C060
FFE0
FFE0
C000
C000
E000
7060
3FC0
1F80
ENDCHAR
STARTCHAR 011C
ENCODING 284
SWIDTH 583 0
DWIDTH 14 0
BBX 12 23 1 0
BITMAP
0200
0700
0D80
18C0
0000
0000
0F80
3FC0
70E0
6070
E030
C000
C000
C000
C3F0
C3F0
C030
C030
6030
6030
3070
3FE0
0F80
ENDCHAR
STARTCHAR 011D
ENCODING 285
SWIDTH 625 0
DWIDTH 15 0
BBX 11 23 2 -5
BITMAP
0E00
1B00
3180
0000
0000
1F60
3FE0
70E0
E060
C060
C060
C060
C060
C060
E060
70E0
3FE0
1F60
0060
00E0
60C0
7FC0
1F00
ENDCHAR
STARTCHAR 011E
ENCODING 286
SWIDTH 583 0
DWIDTH 14 0
BBX 12 23 1 0
BITMAP
18C0
18C0
1F80
0700
0000
0000
0F80
3FC0
70E0
6070
E030
C000
C000
C000
C3F0
C3F0
C030
C030
6030
6030
3070
3FE0
0F80
ENDCHAR
STARTCHAR 011F
ENCODING 287
SWIDTH 625 0
DWIDTH 15 0
BBX 11 23 2 -5
BITMAP
3180
3F80
1F00
0000
0000
1F60
3FE0
70E0
E060
C060
C060
C060
C060
C060
E060
70E0
3FE0
1F60
0060
00E0
60C0
7FC0
1F00
ENDCHAR
STARTCHAR 0120
ENCODING 288
SWIDTH 583 0
DWIDTH 14 0
BBX 12 22 1 0
BITMAP
0600
0600
0600
0000
0000
0F80
3FC0
70E0
6070
E030
C000
C000
C000
C3F0
C3F0
C030
C030
6030
6030
3070
3FE0
0F80
ENDCHAR
STARTCHAR 0121
ENCODING 289
SWIDTH 625 0
DWIDTH 15 0
BBX 11 23 2 -5
BITMAP
0C00
0C00
0C00
0000
0000
1F60
3FE0
70E0
E060
C060
C060
C060
C060
C060
E060
70E0
3FE0
1F60
0060
00E0
60C0
7FC0
1F00
ENDCHAR
STARTCHAR 0122
ENCODING 290
SWIDTH 583 0
DWIDTH 14 0
BBX 12 23 1 -6
BITMAP
0F80
3FC0
70E0
6070
E030
C000
C000
C000
C3F0
C3F0
C030
C030
6030
6030
3070
3FE0
0F80
0000
0600
0600
0600
0C00
0400
ENDCHAR
STARTCHAR 0123
ENCODING 291
SWIDTH 625 0
DWIDTH 15 0
BBX 11 25 2 -5
BITMAP
0600
0E00
0C00
0C00
0C00
0000
0000
1F60
3FE0
70E0
E060
C060
C060
C060
C060
C060
E060
70E0
3FE0
1F60
0060
00E0
60C0
7FC0
1F00
ENDCHAR
STARTCHAR 0124
ENCODING 292
SWIDTH 625 0
DWIDTH 15 0
BBX 11 22 2 0
BITMAP
0E00
1B00
3180
0000
0000
C060
C060
C060
C060
C060
C060
C060
FFE0
FFE0
C060
C060
C060
C060
C060
C060
C060
C060
ENDCHAR
STARTCHAR 0125
ENCODING 293
SWIDTH 625 0
DWIDTH 15 0
BBX 13 23 0 0
BITMAP
1000
3800
6C00
C600
0000
3000
3000
3000
3000
3000
33E0
37F0
3838
3018
3018
3018
3018
3018
3018
3018
3018
3018
3018
ENDCHAR
STARTCHAR 0126
ENCODING 294
SWIDTH 666 0
DWIDTH 16 0
BBX 14 17 1 0
BITMAP
6030
6030
6030
FFFC
FFFC
6030
6030
7FF0
7FF0
6030
6030
6030
6030
6030
6030
6030
6030
ENDCHAR
STARTCHAR 0127
ENCODING 295
SWIDTH 625 0
DWIDTH 15 0
BBX 12 18 1 0
BITMAP
3000
3000
FE00
FE00
3000
33C0
37E0
3870
3030
3030
3030
3030
3030
3030
3030
3030
3030
3030
ENDCHAR
STARTCHAR 0128
ENCODING 296
SWIDTH 583 0
DWIDTH 14 0
BBX 10 22 2 0
BITMAP
3100
7F00
4600
0000
0000
FFC0
FFC0
0C00
0C00
0C00
0C00
0C00
0C00
0C00
0C00
0C00
0C00
0C00
0C00
0C00
FFC0
FFC0
ENDCHAR
STARTCHAR 0129
ENCODING 297
SWIDTH 583 0
DWIDTH 14 0
BBX 11 18 2 0
BITMAP
38C0
3F80
6300
0000
0000
FC00
FC00
0C00
0C00
0C00
0C00
0C00
0C00
0C00
0C00
0C00
FFE0
FFE0
ENDCHAR
STARTCHAR 012A
ENCODING 298
SWIDTH 583 0
DWIDTH 14 0
BBX 10 21 2 0
BITMAP
7F80
7F80
0000
0000
FFC0
FFC0
0C00
0C00
0C00
0C00
0C00
0C00
0C00
0C00
0C00
0C00
0C00
0C00
0C00
FFC0
FFC0
ENDCHAR
STARTCHAR 012B
ENCODING 299
SWIDTH 583 0
DWIDTH 14 0
BBX 11 17 2 0
BITMAP
7F80
7F80
0000
0000
FC00
FC00
0C00
0C00
0C00
0C00
0C00
0C00
0C00
0C00
0C00
FFE0
FFE0
ENDCHAR
STARTCHAR 012C
ENCODING 300
SWIDTH 583 0
DWIDTH 14 0
BBX 10 22 2 0
BITMAP
6300
3F00
3E00
0000
0000
FFC0
FFC0
0C00
0C00
0C00
0C00
0C00
0C00
0C00
0C00
0C00
0C00
0C00
0C00
0C00
FFC0
FFC0
ENDCHAR
STARTCHAR 012D
ENCODING 301
SWIDTH 583 0
DWIDTH 14 0
BBX 11 18 2 0
BITMAP
2180
3380
1F00
0E00
0000
FC00
FC00
0C00
0C00
0C00
0C00
0C00
0C00
0C00
0C00
0C00
FFE0
FFE0
ENDCHAR
STARTCHAR 012E
ENCODING 302
SWIDTH 583 0
DWIDTH 14 0
BBX 10 22 2 -5
BITMAP
FFC0
FFC0
0C00
0C00
0C00
0C00
0C00
0C00
0C00
0C00
0C00
0C00
0C00
0C00
0C00
FFC0
FFC0
0C00
1800
1800
1E00
0E00
ENDCHAR
STARTCHAR 012F
ENCODING 303
SWIDTH 583 0
DWIDTH 14 0
BBX 11 22 2 -5
BITMAP
0C00
0C00
0C00
0000
FC00
FC00
0C00
0C00
0C00
0C00
0C00
0C00
0C00
0C00
0C00
FFE0
FFE0
0C00
1800
1800
1C00
0E00
ENDCHAR
STARTCHAR 0130
ENCODING 304
SWIDTH 583 0
DWIDTH 14 0
BBX 10 22 2 0
BITMAP
0C00
0C00
0C00
0000
0000
FFC0
FFC0
0C00
0C00
0C00
0C00
0C00
0C00
0C00
0C00
0C00
0C00
0C00
0C00
0C00
FFC0
FFC0
ENDCHAR
STARTCHAR 0131
ENCODING 305
SWIDTH 583 0
DWIDTH 14 0
BBX 11 13 2 0
BITMAP
FC00
FC00
0C00
0C00
0C00
0C00
0C00
0C00
0C00
0C00
0C00
FFE0
FFE0
ENDCHAR
STARTCHAR 0132
ENCODING 306
SWIDTH 583 0
DWIDTH 14 0
BBX 11 17 1 0
BITMAP
C060
C060
C060
C060
C060
C060
C060
C060
C060
C060
C060
C060
C060
CC60
CC60
CFE0
C7C0
ENDCHAR
STARTCHAR 0133
ENCODING 307
SWIDTH 625 0
DWIDTH 15 0
BBX 12 22 1 -5
BITMAP
1830
1830
1830
0000
F9F0
F9F0
1830
1830
1830
1830
1830
1830
1830
1830
1830
FF30
FF30
0030
0030
0060
07E0
0FC0
ENDCHAR
STARTCHAR 0134
ENCODING 308
SWIDTH 583 0
DWIDTH 14 0
BBX 13 22 1 0
BITMAP
0060
01F0
0398
0000
0000
0060
0060
0060
0060
0060
0060
0060
0060
0060
0060
0060
0060
C060
C0E0
60C0
7F80
1F00
ENDCHAR
STARTCHAR 0135
ENCODING 309
SWIDTH 625 0
DWIDTH 15 0
BBX 9 23 3 -5
BITMAP
0600
1F00
3980
0000
0000
FE00
FE00
0600
0600
0600
0600
0600
0600
0600
0600
0600
0600
0600
0600
0600
0C00
FC00
F800
ENDCHAR
STARTCHAR 0136
ENCODING 310
SWIDTH 625 0
DWIDTH 15 0
BBX 12 23 2 -6
BITMAP
C070
C0E0
C1C0
C380
C700
C600
CE00
DC00
FE00
FE00
E700
C380
C180
C1C0
C0E0
C060
C070
0000
0600
0600
0600
0C00
0400
ENDCHAR
STARTCHAR 0137
ENCODING 311
SWIDTH 625 0
DWIDTH 15 0
BBX 11 24 2 -6
BITMAP
C000
C000
C000
C000
C000
C0C0
C180
C300
CF00
DE00
FC00
FE00
EE00
C700
C380
C1C0
C0C0
C0E0
0000
0C00
0C00
0C00
1800
0800
ENDCHAR
STARTCHAR 0138
ENCODING 312
SWIDTH 583 0
DWIDTH 14 0
BBX 11 13 2 0
BITMAP
C0C0
C180
C300
C700
CE00
DC00
FC00
FE00
E700
C300
C380
C1C0
C0E0
ENDCHAR
STARTCHAR 0139
ENCODING 313
SWIDTH 583 0
DWIDTH 14 0
BBX 11 21 2 0
BITMAP
3000
6000
C000
0000
C000
C000
C000
C000
C000
C000
C000
C000
C000
C000
C000
C000
C000
C000
C000
FFE0
FFE0
ENDCHAR
STARTCHAR 013A
ENCODING 314
SWIDTH 583 0
DWIDTH 14 0
BBX 11 23 2 0
BITMAP
0380
0300
0600
0C00
0000
FC00
FC00
0C00
0C00
0C00
0C00
0C00
0C00
0C00
0C00
0C00
0C00
0C00
0C00
0C00
0C00
FFE0
FFE0
ENDCHAR
STARTCHAR 013B
ENCODING 315
SWIDTH 583 0
DWIDTH 14 0
BBX 11 23 2 -6
BITMAP
C000
C000
C000
C000
C000
C000
C000
C000
C000
C000
C000
C000
C000
C000
C000
FFE0
FFE0
0000
0C00
0C00
0C00
1800
0800
ENDCHAR
STARTCHAR 013C
ENCODING 316
SWIDTH 583 0
DWIDTH 14 0
BBX 11 24 2 -6
BITMAP
FC00
FC00
0C00
0C00
0C00
0C00
0C00
0C00
0C00
0C00
0C00
0C00
0C00
0C00
0C00
0C00
FFE0
FFE0
0000
0C00
0C00
0C00
0C00
0800
ENDCHAR
STARTCHAR 013D
ENCODING 317
SWIDTH 583 0
DWIDTH 14 0
BBX 11 17 2 0
BITMAP
C180
C180
C180
C180
C300
C300
C000
C000
C000
C000
C000
C000
C000
C000
C000
FFE0
FFE0
ENDCHAR
STARTCHAR 013E
ENCODING 318
SWIDTH 625 0
DWIDTH 15 0
BBX 12 18 2 0
BITMAP
FC30
FC30
0C30
0C30
0C60
0C60
0C00
0C00
0C00
0C00
0C00
0C00
0C00
0C00
0C00
0C00
FFE0
FFE0
ENDCHAR
STARTCHAR 013F
ENCODING 319
SWIDTH 583 0
DWIDTH 14 0
BBX 11 17 2 0
BITMAP
C000
C000
C000
C000
C000
C000
C600
C600
C600
C000
C000
C000
C000
C000
C000
FFE0
FFE0
ENDCHAR
STARTCHAR 0140
ENCODING 320
SWIDTH 583 0
DWIDTH 14 0
BBX 10 18 2 0
BITMAP
FC00
FC00
0C00
0C00
0C00
0C00
0C00
0CC0
0CC0
0CC0
0C00
0C00
0C00
0C00
0C00
0C00
FFC0
FFC0
ENDCHAR
STARTCHAR 0141
ENCODING 321
SWIDTH 583 0
DWIDTH 14 0
BBX 13 17 0 0
BITMAP
3000
3000
3000
3000
3000
3000
3200
3E00
FC00
F000
3000
3000
3000
3000
3000
3FF8
3FF8
ENDCHAR
STARTCHAR 0142
ENCODING 322
SWIDTH 583 0
DWIDTH 14 0
BBX 11 18 2 0
BITMAP
FC00
FC00
0C00
0C00
0C00
0C40
0FC0
0F80
3C00
FC00
CC00
0C00
0C00
0C00
0C00
0C00
FFE0
FFE0
ENDCHAR
STARTCHAR 0143
ENCODING 323
SWIDTH 625 0
DWIDTH 15 0
BBX 11 22 2 0
BITMAP
0380
0300
0600
0C00
0000
C060
E060
E060
F060
F860
D860
DC60
CC60
CE60
C660
C760
C360
C3E0
C1E0
C0E0
C0E0
C060
ENDCHAR
STARTCHAR 0144
ENCODING 324
SWIDTH 583 0
DWIDTH 14 0
BBX 10 18 2 0
BITMAP
0300
0600
0C00
0000
0000
CF00
DF80
E1C0
C0C0
C0C0
C0C0
C0C0
C0C0
C0C0
C0C0
C0C0
C0C0
C0C0
ENDCHAR
STARTCHAR 0145
ENCODING 325
SWIDTH 625 0
DWIDTH 15 0
BBX 11 23 2 -6
BITMAP
C060
E060
E060
F060
F860
D860
DC60
CC60
CE60
C660
C760
C360
C3E0
C1E0
C0E0
C0E0
C060
0000
0C00
0C00
0C00
1800
0800
ENDCHAR
STARTCHAR 0146
ENCODING 326
SWIDTH 583 0
DWIDTH 14 0
BBX 10 19 2 -6
BITMAP
CF00
DF80
E1C0
C0C0
C0C0
C0C0
C0C0
C0C0
C0C0
C0C0
C0C0
C0C0
C0C0
0000
0C00
0C00
0C00
1800
0800
ENDCHAR
STARTCHAR 0147
ENCODING 327
SWIDTH 625 0
DWIDTH 15 0
BBX 11 22 2 0
BITMAP
3380
1F00
0C00
0000
0000
C060
E060
E060
F060
F860
D860
DC60
CC60
CE60
C660
C760
C360
C3E0
C1E0
C0E0
C0E0
C060
ENDCHAR
STARTCHAR 0148
ENCODING 328
SWIDTH 583 0
DWIDTH 14 0
BBX 10 18 2 0
BITMAP
3300
1E00
0C00
0000
0000
CF00
DF80
E1C0
C0C0
C0C0
C0C0
C0C0
C0C0
C0C0
C0C0
C0C0
C0C0
C0C0
ENDCHAR
STARTCHAR 0149
ENCODING 329
SWIDTH 625 0
DWIDTH 15 0
BBX 13 19 0 0
BITMAP
6000
6000
6000
6000
6000
C000
19E0
1FF0
1C38
1818
1818
1818
1818
1818
1818
1818
1818
1818
1818
ENDCHAR
STARTCHAR 014A
ENCODING 330
SWIDTH 583 0
DWIDTH 14 0
BBX 10 22 2 -5
BITMAP
C0C0
E0C0
E0C0
F0C0
F0C0
D8C0
D8C0
CCC0
CCC0
CEC0
C6C0
C7C0
C3C0
C3C0
C1C0
C1C0
C0C0
00C0
00C0
00C0
07C0
0780
ENDCHAR
STARTCHAR 014B
ENCODING 331
SWIDTH 583 0
DWIDTH 14 0
BBX 10 18 2 -5
BITMAP
CF00
FF80
E1C0
C0C0
C0C0
C0C0
C0C0
C0C0
C0C0
C0C0
C0C0
C0C0
C0C0
00C0
00C0
00C0
07C0
0700
ENDCHAR
STARTCHAR 014C
ENCODING 332
SWIDTH 583 0
DWIDTH 14 0
BBX 12 22 1 0
BITMAP
3FC0
3FC0
0000
0000
0000
0F00
3FC0
70E0
6060
E070
C030
C030
C030
C030
C030
C030
C030
E070
6060
70E0
3FC0
0F00
ENDCHAR
STARTCHAR 014D
ENCODING 333
SWIDTH 583 0
DWIDTH 14 0
BBX 11 17 1 0
BITMAP
3FC0
3FC0
0000
0000
1F00
3F80
70C0
E0E0
C060
C060
C060
C060
C060
E0E0
70C0
3F80
1F00
ENDCHAR
STARTCHAR 014E
ENCODING 334
SWIDTH 583 0
DWIDTH 14 0
BBX 12 23 1 0
BITMAP
18C0
18C0
1F80
0700
0000
0000
0F00
3FC0
70E0
6060
E070
C030
C030
C030
C030
C030
C030
C030
E070
6060
70E0
3FC0
0F00
ENDCHAR
STARTCHAR 014F
ENCODING 335
SWIDTH 583 0
DWIDTH 14 0
BBX 11 18 1 0
BITMAP
30C0
1F80
0F00
0000
0000
1F00
3F80
70C0
E060
C060
C020
C020
C020
C060
E060
70C0
3F80
1F00
ENDCHAR
STARTCHAR 0150
ENCODING 336
SWIDTH 583 0
DWIDTH 14 0
BBX 12 22 1 0
BITMAP
0770
06C0
0D80
0000
0000
0F00
3FC0
70E0
6060
E070
C030
C030
C030
C030
C030
C030
C030
E070
6060
70E0
3FC0
0F00
ENDCHAR
STARTCHAR 0151
ENCODING 337
SWIDTH 583 0
DWIDTH 14 0
BBX 11 18 1 0
BITMAP
06E0
0DC0
1B00
0000
0000
1F00
3F80
70C0
E0E0
C060
C060
C060
C060
C060
E0E0
70C0
3F80
1F00
ENDCHAR
STARTCHAR 0152
ENCODING 338
SWIDTH 625 0
DWIDTH 15 0
BBX 13 17 1 0
BITMAP
1FF8
7FF8
6300
C300
C300
C300
C300
C3F0
C3F0
C300
C300
C300
C300
C300
6300
7FF8
1FF8
ENDCHAR
STARTCHAR 0153
ENCODING 339
SWIDTH 625 0
DWIDTH 15 0
BBX 13 13 1 0
BITMAP
3CE0
7FF0
E798
C318
C318
C3F8
C3F8
C300
C300
C300
E780
7FF0
3CF0
ENDCHAR
STARTCHAR 0154
ENCODING 340
SWIDTH 583 0
DWIDTH 14 0
BBX 11 22 2 0
BITMAP
0380
0300
0600
0C00
0000
FF00
FFC0
C0C0
C0E0
C060
C060
C0E0
C0C0
FF80
FF00
C300
C380
C180
C1C0
C0C0
C0E0
C060
ENDCHAR
STARTCHAR 0155
ENCODING 341
SWIDTH 625 0
DWIDTH 15 0
BBX 9 18 4 0
BITMAP
0C00
1800
1000
0000
0000
CF80
DF80
F000
E000
C000
C000
C000
C000
C000
C000
C000
C000
C000
ENDCHAR
STARTCHAR 0156
ENCODING 342
SWIDTH 583 0
DWIDTH 14 0
BBX 11 23 2 -6
BITMAP
FF00
FFC0
C0C0
C0E0
C060
C060
C0E0
C0C0
FF80
FF00
C300
C380
C180
C1C0
C0C0
C0E0
C060
0000
0C00
0C00
0C00
1800
0800
ENDCHAR
STARTCHAR 0157
ENCODING 343
SWIDTH 625 0
DWIDTH 15 0
BBX 10 19 3 -6
BITMAP
67C0
6FC0
7800
7000
6000
6000
6000
6000
6000
6000
6000
6000
6000
0000
6000
6000
6000
E000
4000
ENDCHAR
STARTCHAR 0158
ENCODING 344
SWIDTH 583 0
DWIDTH 14 0
BBX 11 22 2 0
BITMAP
3180
1B00
0E00
0C00
0000
FF00
FFC0
C0C0
C0E0
C060
C060
C0E0
C0C0
FF80
FF00
C300
C380
C180
C1C0
C0C0
C0E0
C060
ENDCHAR
STARTCHAR 0159
ENCODING 345
SWIDTH 625 0
DWIDTH 15 0
BBX 9 18 4 0
BITMAP
CC00
7800
3000
0000
0000
CF80
DF80
F000
E000
C000
C000
C000
C000
C000
C000
C000
C000
C000
ENDCHAR
STARTCHAR 015A
ENCODING 346
SWIDTH 583 0
DWIDTH 14 0
BBX 11 22 2 0
BITMAP
0380
0300
0600
0C00
0000
1F00
7FC0
60C0
C060
C060
C000
6000
7C00
1F00
07C0
00E0
0060
C060
C060
E0E0
7FC0
1F00
ENDCHAR
STARTCHAR 015B
ENCODING 347
SWIDTH 625 0
DWIDTH 15 0
BBX 11 18 2 0
BITMAP
0180
0300
0600
0000
0000
1F00
3FC0
70E0
6060
6000
3C00
1F80
01C0
0060
C060
E0E0
7FC0
1F80
ENDCHAR
STARTCHAR 015C
ENCODING 348
SWIDTH 583 0
DWIDTH 14 0
BBX 11 23 2 0
BITMAP
0400
0E00
1B00
3180
0000
0000
1F00
7FC0
60C0
C060
C060
C000
6000
7C00
1F00
07C0
00E0
0060
C060
C060
E0E0
7FC0
1F00
ENDCHAR
STARTCHAR 015D
ENCODING 349
SWIDTH 625 0
DWIDTH 15 0
BBX 11 18 2 0
BITMAP
0E00
1F00
3180
0000
0000
1F00
3FC0
70E0
6060
6000
3C00
1F80
01C0
0060
C060
E0E0
7FC0
1F80
ENDCHAR
STARTCHAR 015E
ENCODING 350
SWIDTH 583 0
DWIDTH 14 0
BBX 11 22 2 -5
BITMAP
1F00
7FC0
60C0
C060
C060
C000
6000
7C00
1F00
07C0
00E0
0060
C060
C060
E0E0
7FC0
1F00
0C00
0300
0300
0F00
0E00
ENDCHAR
STARTCHAR 015F
ENCODING 351
SWIDTH 625 0
DWIDTH 15 0
BBX 11 18 2 -5
BITMAP
1F00
3FC0
70E0
6060
6000
3C00
1F80
01C0
00E0
C060
E0E0
7FC0
1F80
0C00
0700
0300
0F00
0E00
ENDCHAR
STARTCHAR 0160
ENCODING 352
SWIDTH 583 0
DWIDTH 14 0
BBX 11 23 2 0
BITMAP
3180
1B00
0E00
0400
0000
0000
1F00
7FC0
60C0
C060
C060
C000
6000
7C00
1F00
07C0
00E0
0060
C060
C060
E0E0
7FC0
1F00
ENDCHAR
STARTCHAR 0161
ENCODING 353
SWIDTH 625 0
DWIDTH 15 0
BBX 11 18 2 0
BITMAP
3180
1B00
0E00
0000
0000
1F00
3FC0
70E0
6060
6000
3C00
1F80
01C0
0060
C060
E0E0
7FC0
1F80
ENDCHAR
STARTCHAR 0162
ENCODING 354
SWIDTH 625 0
DWIDTH 15 0
BBX 13 22 1 -5
BITMAP
FFF8
FFF8
0600
0600
0600
0600
0600
0600
0600
0600
0600
0600
0600
0600
0600
0600
0600
0600
0780
0180
0180
0700
ENDCHAR
STARTCHAR 0163
ENCODING 355
SWIDTH 583 0
DWIDTH 14 0
BBX 10 21 2 -5
BITMAP
1800
1800
1800
FFC0
FFC0
1800
1800
1800
1800
1800
1800
1800
1800
1C00
0FC0
07C0
0600
0380
0180
0780
0700
ENDCHAR
STARTCHAR 0164
ENCODING 356
SWIDTH 625 0
DWIDTH 15 0
BBX 13 22 1 0
BITMAP
18C0
0D80
0700
0600
0000
FFF8
FFF8
0600
0600
0600
0600
0600
0600
0600
0600
0600
0600
0600
0600
0600
0600
0600
ENDCHAR
STARTCHAR 0165
ENCODING 357
SWIDTH 583 0
DWIDTH 14 0
BBX 12 21 1 0
BITMAP
0030
0030
0030
0030
0070
1860
1840
1800
FFC0
FFC0
1800
1800
1800
1800
1800
1800
1800
1800
1C00
0FC0
07C0
ENDCHAR
STARTCHAR 0166
ENCODING 358
SWIDTH 625 0
DWIDTH 15 0
BBX 13 17 1 0
BITMAP
FFF8
FFF8
0600
0600
0600
1FC0
1FC0
0600
0600
0600
0600
0600
0600
0600
0600
0600
0600
ENDCHAR
STARTCHAR 0167
ENCODING 359
SWIDTH 583 0
DWIDTH 14 0
BBX 10 16 2 0
BITMAP
1800
1800
1800
FFC0
FFC0
1800
1800
7F00
7F00
1800
1800
1800
1800
1C00
0FC0
07C0
ENDCHAR
STARTCHAR 0168
ENCODING 360
SWIDTH 625 0
DWIDTH 15 0
BBX 11 22 2 0
BITMAP
1C40
3FC0
2380
0000
0000
C060
C060
C060
C060
C060
C060
C060
C060
C060
C060
C060
C060
C060
E0E0
70C0
3F80
1F00
ENDCHAR
STARTCHAR 0169
ENCODING 361
SWIDTH 583 0
DWIDTH 14 0
BBX 10 18 2 0
BITMAP
3880
7F80
4700
0000
0000
C0C0
C0C0
C0C0
C0C0
C0C0
C0C0
C0C0
C0C0
C0C0
C0C0
E1C0
7FC0
3EC0
ENDCHAR
STARTCHAR 016A
ENCODING 362
SWIDTH 625 0
DWIDTH 15 0
BBX 11 21 2 0
BITMAP
3FC0
3FC0
0000
0000
C060
C060
C060
C060
C060
C060
C060
C060
C060
C060
C060
C060
C060
E0E0
70C0
3F80
1F00
ENDCHAR
STARTCHAR 016B
ENCODING 363
SWIDTH 583 0
DWIDTH 14 0
BBX 10 17 2 0
BITMAP
7F80
7F80
0000
0000
C0C0
C0C0
C0C0
C0C0
C0C0
C0C0
C0C0
C0C0
C0C0
C0C0
E1C0
7FC0
3EC0
ENDCHAR
STARTCHAR 016C
ENCODING 364
SWIDTH 625 0
DWIDTH 15 0
BBX 11 22 2 0
BITMAP
18C0
1F80
0F00
0000
0000
C060
C060
C060
C060
C060
C060
C060
C060
C060
C060
C060
C060
C060
E0E0
70C0
3F80
1F00
ENDCHAR
STARTCHAR 016D
ENCODING 365
SWIDTH 583 0
DWIDTH 14 0
BBX 10 18 2 0
BITMAP
2180
3300
3F00
0C00
0000
C0C0
C0C0
C0C0
C0C0
C0C0
C0C0
C0C0
C0C0
C0C0
C0C0
E1C0
7FC0
3EC0
ENDCHAR
STARTCHAR 016E
ENCODING 366
SWIDTH 625 0
DWIDTH 15 0
BBX 11 23 2 0
BITMAP
0600
0900
0900
0900
0600
0000
C060
C060
C060
C060
C060
C060
C060
C060
C060
C060
C060
C060
C060
E0E0
70C0
3F80
1F00
ENDCHAR
STARTCHAR 016F
ENCODING 367
SWIDTH 583 0
DWIDTH 14 0
BBX 10 19 2 0
BITMAP
0C00
1200
1200
1200
0C00
0000
C0C0
C0C0
C0C0
C0C0
C0C0
C0C0
C0C0
C0C0
C0C0
C0C0
E1C0
7FC0
3EC0
ENDCHAR
STARTCHAR 0170
ENCODING 368
SWIDTH 625 0
DWIDTH 15 0
BBX 11 22 2 0
BITMAP
0760
0EC0
0D80
0000
0000
C060
C060
C060
C060
C060
C060
C060
C060
C060
C060
C060
C060
C060
E0E0
70C0
3F80
1F00
ENDCHAR
STARTCHAR 0171
ENCODING 369
SWIDTH 583 0
DWIDTH 14 0
BBX 10 18 2 0
BITMAP
0CC0
1980
1B00
0000
0000
C0C0
C0C0
C0C0
C0C0
C0C0
C0C0
C0C0
C0C0
C0C0
C0C0
E1C0
7FC0
3EC0
ENDCHAR
STARTCHAR 0172
ENCODING 370
SWIDTH 541 0
DWIDTH 13 0
BBX 10 22 2 -5
BITMAP
C0C0
C0C0
C0C0
C0C0
C0C0
C0C0
C0C0
C0C0
C0C0
C0C0
C0C0
C0C0
C0C0
E1C0
6180
7F80
1F00
0E00
0C00
0C00
0E00
0600
ENDCHAR
STARTCHAR 0173
ENCODING 371
SWIDTH 583 0
DWIDTH 14 0
BBX 11 18 2 -5
BITMAP
C0C0
C0C0
C0C0
C0C0
C0C0
C0C0
C0C0
C0C0
C0C0
C0C0
E1C0
7FC0
3EC0
0180
0300
0300
03C0
01E0
ENDCHAR
STARTCHAR 0174
ENCODING 372
SWIDTH 625 0
DWIDTH 15 0
BBX 13 22 1 0
BITMAP
0700
0D80
18C0
0000
0000
C318
C718
C718
6718
6730
6530
6DB0
6DB0
6DB0
6DB0
6CB0
68F0
38E0
38E0
38E0
38E0
3060
ENDCHAR
STARTCHAR 0175
ENCODING 373
SWIDTH 625 0
DWIDTH 15 0
BBX 13 18 1 0
BITMAP
0700
0D80
18C0
0000
0000
C218
C718
C718
4510
6530
6D30
6DB0
6DB0
28A0
28A0
38E0
38E0
3060
ENDCHAR
STARTCHAR 0176
ENCODING 374
SWIDTH 625 0
DWIDTH 15 0
BBX 12 22 1 0
BITMAP
0600
0F80
19C0
0000
0000
E030
6030
7060
3060
38C0
18C0
1980
0D80
0F00
0F00
0600
0600
0600
0600
0600
0600
0600
ENDCHAR
STARTCHAR 0177
ENCODING 375
SWIDTH 583 0
DWIDTH 14 0
BBX 12 23 1 -5
BITMAP
0700
0D80
18C0
0000
0000
E030
6030
6070
7060
30E0
38C0
18C0
1980
0D80
0F00
0700
0700
0600
0600
0C00
1C00
7800
7000
ENDCHAR
STARTCHAR 0178
ENCODING 376
SWIDTH 583 0
DWIDTH 14 0
BBX 11 22 1 0
BITMAP
3180
3180
3180
0000
0000
C060
E060
60E0
60C0
31C0
3180
1B80
1B00
0B00
0F00
0600
0600
0600
0600
0600
0600
0600
ENDCHAR
STARTCHAR 0179
ENCODING 377
SWIDTH 583 0
DWIDTH 14 0
BBX 11 22 1 0
BITMAP
01C0
0180
0300
0200
0000
FFE0
FFE0
00C0
01C0
0180
0380
0300
0600
0E00
0C00
1800
3800
3000
6000
6000
FFE0
FFE0
ENDCHAR
STARTCHAR 017A
ENCODING 378
SWIDTH 625 0
DWIDTH 15 0
BBX 11 18 2 0
BITMAP
0380
0300
0600
0000
0000
FFC0
FFC0
0180
0380
0700
0E00
0C00
1800
3800
7000
6000
FFE0
FFE0
ENDCHAR
STARTCHAR 017B
ENCODING 379
SWIDTH 583 0
DWIDTH 14 0
BBX 11 21 1 0
BITMAP
0600
0600
0600
0000
FFE0
FFE0
00C0
01C0
0180
0380
0700
0600
0E00
0C00
1800
3800
3000
7000
6000
FFE0
FFE0
ENDCHAR
STARTCHAR 017C
ENCODING 380
SWIDTH 625 0
DWIDTH 15 0
BBX 11 17 2 0
BITMAP
0600
0600
0600
0000
FFC0
FFC0
0180
0380
0700
0600
0C00
1C00
3800
7000
7000
FFE0
FFE0
ENDCHAR
STARTCHAR 017D
ENCODING 381
SWIDTH 583 0
DWIDTH 14 0
BBX 11 22 1 0
BITMAP
18C0
0D80
0700
0200
0000
FFE0
FFE0
00C0
01C0
0180
0380
0300
0600
0E00
0C00
1800
3800
3000
6000
6000
FFE0
FFE0
ENDCHAR
STARTCHAR 017E
ENCODING 382
SWIDTH 625 0
DWIDTH 15 0
BBX 11 18 2 0
BITMAP
3180
1B00
0E00
0000
0000
FFC0
FFC0
0180
0380
0700
0E00
0C00
1800
3800
7000
6000
FFE0
FFE0
ENDCHAR
STARTCHAR 017F
ENCODING 383
SWIDTH 583 0
DWIDTH 14 0
BBX 7 19 5 0
BITMAP
1E
7E
70
E0
C0
C0
C0
C0
C0
C0
C0
C0
C0
C0
C0
C0
C0
C0
C0
ENDCHAR
STARTCHAR 0192
ENCODING 402
SWIDTH 625 0
DWIDTH 15 0
BBX 11 24 2 -5
BITMAP
01E0
07E0
0E00
0C00
0C00
0C00
3F80
3F80
0C00
0C00
0C00
0C00
0C00
0C00
0C00
0C00
0C00
0C00
0C00
0C00
0C00
1C00
F800
F000
ENDCHAR
STARTCHAR 01A0
ENCODING 416
SWIDTH 625 0
DWIDTH 15 0
BBX 13 18 1 0
BITMAP
0018
0F18
3FF8
70F0
6060
E070
C030
C030
C030
C030
C030
C030
C030
E070
6060
70E0
3FC0
0F00
ENDCHAR
STARTCHAR 01A1
ENCODING 417
SWIDTH 583 0
DWIDTH 14 0
BBX 13 15 1 0
BITMAP
0038
0030
1F30
3FF0
70E0
E0E0
C060
C060
C060
C060
C060
E0E0
70C0
3F80
1F00
ENDCHAR
STARTCHAR 01AF
ENCODING 431
SWIDTH 625 0
DWIDTH 15 0
BBX 15 18 2 0
BITMAP
0006
C066
C06E
C07C
C070
C060
C060
C060
C060
C060
C060
C060
C060
C060
E0E0
70C0
3F80
1F00
ENDCHAR
STARTCHAR 01B0
ENCODING 432
SWIDTH 625 0
DWIDTH 15 0
BBX 14 14 2 0
BITMAP
000C
C0CC
C0D8
C0F8
C0C0
C0C0
C0C0
C0C0
C0C0
C0C0
C0C0
E1C0
7FC0
3EC0
ENDCHAR
STARTCHAR 01F0
ENCODING 496
SWIDTH 625 0
DWIDTH 15 0
BBX 9 23 3 -5
BITMAP
3980
0F00
0600
0000
0000
FE00
FE00
0600
0600
0600
0600
0600
0600
0600
0600
0600
0600
0600
0600
0600
0E00
FC00
F800
ENDCHAR
STARTCHAR 01FA
ENCODING 506
SWIDTH 583 0
DWIDTH 14 0
BBX 12 25 1 0
BITMAP
01C0
0300
0600
0600
0900
0900
0600
0000
0600
0600
0F00
0F00
0F00
1980
1980
1980
31C0
30C0
30C0
7FE0
7FE0
6060
E070
C030
C030
ENDCHAR
STARTCHAR 01FB
ENCODING 507
SWIDTH 583 0
DWIDTH 14 0
BBX 11 21 2 0
BITMAP
0180
0300
0600
0600
0900
0900
0600
0000
1F00
7F80
61C0
E0C0
00C0
07C0
7FC0
60C0
C0C0
C0C0
E1C0
7FC0
3EE0
ENDCHAR
STARTCHAR 01FC
ENCODING 508
SWIDTH 625 0
DWIDTH 15 0
BBX 13 22 1 0
BITMAP
0060
00C0
0180
0100
0000
03F8
03F8
0780
0780
0D80
0D80
0D80
19F8
19F8
3980
3180
3F80
7F80
6180
6180
C1F8
C1F8
ENDCHAR
STARTCHAR 01FD
ENCODING 509
SWIDTH 625 0
DWIDTH 15 0
BBX 13 18 1 0
BITMAP
01C0
0180
0300
0000
0000
3DE0
7FF0
E718
0618
0618
3FF8
7FF8
E600
C600
C600
C700
FFF8
79F0
ENDCHAR
STARTCHAR 01FE
ENCODING 510
SWIDTH 583 0
DWIDTH 14 0
BBX 12 24 1 -1
BITMAP
01C0
0180
0300
0600
0000
0010
0F30
3FE0
70E0
60E0
E0F0
C1B0
C130
C330
C630
C430
CC30
C830
F870
7060
70E0
7FC0
4F00
C000
ENDCHAR
STARTCHAR 01FF
ENCODING 511
SWIDTH 583 0
DWIDTH 14 0
BBX 11 21 1 -2
BITMAP
0380
0300
0600
0C00
0000
00C0
1F80
3F80
71C0
E3E0
C260
C660
C460
CC60
C860
68E0
70C0
3F80
3F00
2000
6000
ENDCHAR
STARTCHAR 0218
ENCODING 536
SWIDTH 583 0
DWIDTH 14 0
BBX 11 23 2 -6
BITMAP
1F00
7FC0
60C0
C060
C060
C000
6000
7C00
1F00
07C0
00E0
0060
C060
C060
E0E0
7FC0
1F00
0000
0600
0600
0600
0C00
0400
ENDCHAR
STARTCHAR 0219
ENCODING 537
SWIDTH 625 0
DWIDTH 15 0
BBX 11 19 2 -6
BITMAP
1F00
3FC0
70E0
6060
6000
3C00
1F80
01C0
0060
C060
E0E0
7FC0
1F80
0000
0C00
0C00
0C00
0800
0800
ENDCHAR
STARTCHAR 021A
ENCODING 538
SWIDTH 625 0
DWIDTH 15 0
BBX 13 23 1 -6
BITMAP
FFF8
FFF8
0600
0600
0600
0600
0600
0600
0600
0600
0600
0600
0600
0600
0600
0600
0600
0000
0600
0600
0600
0600
0400
ENDCHAR
STARTCHAR 021B
ENCODING 539
SWIDTH 583 0
DWIDTH 14 0
BBX 10 22 2 -6
BITMAP
1800
1800
1800
FFC0
FFC0
1800
1800
1800
1800
1800
1800
1800
1800
1C00
0FC0
07C0
0000
0300
0300
0300
0600
0200
ENDCHAR
STARTCHAR 0237
ENCODING 567
SWIDTH 625 0
DWIDTH 15 0
BBX 7 18 3 -5
BITMAP
FE
FE
06
06
06
06
06
06
06
06
06
06
06
06
06
0E
FC
F8
ENDCHAR
STARTCHAR 0259
ENCODING 601
SWIDTH 583 0
DWIDTH 14 0
BBX 11 13 2 0
BITMAP
3F00
FF80
41C0
00C0
0060
0060
FFE0
FFE0
C060
C0C0
61C0
7F80
1F00
ENDCHAR
STARTCHAR 02BC
ENCODING 700
SWIDTH 583 0
DWIDTH 14 0
BBX 3 6 5 12
BITMAP
60
60
60
60
C0
C0
ENDCHAR
STARTCHAR 02C6
ENCODING 710
SWIDTH 583 0
DWIDTH 14 0
BBX 7 3 2 15
BITMAP
38
6C
C6
ENDCHAR
STARTCHAR 02C7
ENCODING 711
SWIDTH 583 0
DWIDTH 14 0
BBX 7 3 4 15
BITMAP
C6
6C
38
ENDCHAR
STARTCHAR 02C9
ENCODING 713
SWIDTH 583 0
DWIDTH 14 0
BBX 8 2 3 15
BITMAP
FF
FF
ENDCHAR
STARTCHAR 02D8
ENCODING 728
SWIDTH 625 0
DWIDTH 15 0
BBX 7 3 4 14
BITMAP
C6
FE
7C
ENDCHAR
STARTCHAR 02D9
ENCODING 729
SWIDTH 583 0
DWIDTH 14 0
BBX 2 3 6 15
BITMAP
C0
C0
C0
ENDCHAR
STARTCHAR 02DA
ENCODING 730
SWIDTH 625 0
DWIDTH 15 0
BBX 5 5 5 13
BITMAP
70
88
88
88
70
ENDCHAR
STARTCHAR 02DB
ENCODING 731
SWIDTH 625 0
DWIDTH 15 0
BBX 5 6 5 -5
BITMAP
30
60
C0
C0
F0
78
ENDCHAR
STARTCHAR 02DC
ENCODING 732
SWIDTH 625 0
DWIDTH 15 0
BBX 8 3 2 15
BITMAP
71
FF
8E
ENDCHAR
STARTCHAR 02DD
ENCODING 733
SWIDTH 583 0
DWIDTH 14 0
BBX 8 3 3 15
BITMAP
37
6E
DC
ENDCHAR
STARTCHAR 02F3
ENCODING 755
SWIDTH 625 0
DWIDTH 15 0
BBX 4 3 5 -4
BITMAP
70
90
F0
ENDCHAR
STARTCHAR 0300
ENCODING 768
SWIDTH 583 0
DWIDTH 14 0
BBX 3 4 -9 14
BITMAP
C0
C0
40
60
ENDCHAR
STARTCHAR 0301
ENCODING 769
SWIDTH 583 0
DWIDTH 14 0
BBX 3 4 -8 14
BITMAP
20
60
40
C0
ENDCHAR
STARTCHAR 0303
ENCODING 771
SWIDTH 625 0
DWIDTH 15 0
BBX 8 3 -10 15
BITMAP
71
FF
8E
ENDCHAR
STARTCHAR 0309
ENCODING 777
SWIDTH 583 0
DWIDTH 14 0
BBX 3 5 -8 15
BITMAP
C0
60
20
E0
C0
ENDCHAR
STARTCHAR 030F
ENCODING 783
SWIDTH 583 0
DWIDTH 14 0
BBX 7 3 -11 15
BITMAP
CC
6E
36
ENDCHAR
STARTCHAR 0323
ENCODING 803
SWIDTH 583 0
DWIDTH 14 0
BBX 2 3 -8 -4
BITMAP
C0
C0
C0
ENDCHAR
STARTCHAR 0384
ENCODING 900
SWIDTH 583 0
DWIDTH 14 0
BBX 2 5 7 15
BITMAP
C0
C0
C0
80
80
ENDCHAR
STARTCHAR 0385
ENCODING 901
SWIDTH 583 0
DWIDTH 14 0
BBX 8 6 3 15
BITMAP
0C
0C
18
C3
C3
C3
ENDCHAR
STARTCHAR 0386
ENCODING 902
SWIDTH 583 0
DWIDTH 14 0
BBX 13 20 1 0
BITMAP
3800
3000
3000
2600
2700
0700
0F00
0D80
0D80
1980
18C0
18C0
38C0
30E0
3FE0
7FE0
6070
6030
E030
C038
ENDCHAR
STARTCHAR 0387
ENCODING 903
SWIDTH 583 0
DWIDTH 14 0
BBX 2 3 7 7
BITMAP
C0
C0
C0
ENDCHAR
STARTCHAR 0388
ENCODING 904
SWIDTH 625 0
DWIDTH 15 0
BBX 14 20 0 0
BITMAP
6000
C000
C000
DFFC
9FFC
1800
1800
1800
1800
1800
1FF8
1FF8
1800
1800
1800
1800
1800
1800
1FFC
1FFC
ENDCHAR
STARTCHAR 0389
ENCODING 905
SWIDTH 583 0
DWIDTH 14 0
BBX 14 20 -1 0
BITMAP
6000
6000
4000
D80C
980C
180C
180C
180C
180C
180C
1FFC
1FFC
180C
180C
180C
180C
180C
180C
180C
180C
ENDCHAR
STARTCHAR 038A
ENCODING 906
SWIDTH 583 0
DWIDTH 14 0
BBX 13 20 0 0
BITMAP
C000
C000
C000
9FF8
9FF8
0180
0180
0180
0180
0180
0180
0180
0180
0180
0180
0180
0180
0180
1FF8
1FF8
ENDCHAR
STARTCHAR 038C
ENCODING 908
SWIDTH 583 0
DWIDTH 14 0
BBX 13 20 0 0
BITMAP
E000
C000
C000
8780
9FE0
3870
3030
7038
6018
6018
6018
6018
6018
6018
6018
7038
3030
3870
1FE0
0780
ENDCHAR
STARTCHAR 038E
ENCODING 910
SWIDTH 625 0
DWIDTH 15 0
BBX 15 20 -1 0
BITMAP
6000
C000
C000
D806
9C0E
0C0C
0E1C
0618
0718
0330
03B0
01E0
01E0
00C0
00C0
00C0
00C0
00C0
00C0
00C0
ENDCHAR
STARTCHAR 038F
ENCODING 911
SWIDTH 583 0
DWIDTH 14 0
BBX 13 20 0 0
BITMAP
E000
C000
C000
8780
9FE0
3870
3030
7038
6018
6018
6018
6018
6018
6018
2030
3030
3030
1860
7CF8
7CF8
ENDCHAR
STARTCHAR 0390
ENCODING 912
SWIDTH 583 0
DWIDTH 14 0
BBX 10 20 2 0
BITMAP
0600
0E00
0C00
6180
6180
6180
0000
FC00
FC00
0C00
0C00
0C00
0C00
0C00
0C00
0C00
0C00
0C00
07C0
07C0
ENDCHAR
STARTCHAR 0391
ENCODING 913
SWIDTH 583 0
DWIDTH 14 0
BBX 13 17 1 0
BITMAP
0600
0700
0700
0F00
0D80
0D80
1980
18C0
18C0
38C0
30E0
3FE0
7FE0
6070
6030
E030
C038
ENDCHAR
STARTCHAR 0392
ENCODING 914
SWIDTH 583 0
DWIDTH 14 0
BBX 11 17 2 0
BITMAP
FF00
FFC0
C0E0
C060
C060
C060
C0C0
FF80
FF80
C0C0
C060
C060
C060
C060
C0E0
FFC0
FF00
ENDCHAR
STARTCHAR 0393
ENCODING 915
SWIDTH 583 0
DWIDTH 14 0
BBX 11 17 2 0
BITMAP
FFE0
FFE0
C000
C000
C000
C000
C000
C000
C000
C000
C000
C000
C000
C000
C000
C000
C000
ENDCHAR
STARTCHAR 0394
ENCODING 916
SWIDTH 583 0
DWIDTH 14 0
BBX 13 17 1 0
BITMAP
0700
0700
0700
0D80
0D80
0D80
18C0
18C0
18C0
3060
3060
3060
6070
6030
E030
FFF8
FFF8
ENDCHAR
STARTCHAR 0395
ENCODING 917
SWIDTH 583 0
DWIDTH 14 0
BBX 11 17 2 0
BITMAP
FFE0
FFE0
C000
C000
C000
C000
C000
FFC0
FFC0
C000
C000
C000
C000
C000
C000
FFE0
FFE0
ENDCHAR
STARTCHAR 0396
ENCODING 918
SWIDTH 583 0
DWIDTH 14 0
BBX 11 17 1 0
BITMAP
FFE0
FFE0
00C0
01C0
0180
0380
0300
0600
0E00
0C00
1800
3800
3000
6000
6000
FFE0
FFE0
ENDCHAR
STARTCHAR 0397
ENCODING 919
SWIDTH 625 0
DWIDTH 15 0
BBX 11 17 2 0
BITMAP
C060
C060
C060
C060
C060
C060
C060
FFE0
FFE0
C060
C060
C060
C060
C060
C060
C060
C060
ENDCHAR
STARTCHAR 0398
ENCODING 920
SWIDTH 583 0
DWIDTH 14 0
BBX 12 17 1 0
BITMAP
0F00
3FC0
70E0
6060
E070
C030
C030
DF30
DF30
C030
C030
C030
E070
6060
70E0
3FC0
0F00
ENDCHAR
STARTCHAR 0399
ENCODING 921
SWIDTH 583 0
DWIDTH 14 0
BBX 10 17 2 0
BITMAP
FFC0
FFC0
0C00
0C00
0C00
0C00
0C00
0C00
0C00
0C00
0C00
0C00
0C00
0C00
0C00
FFC0
FFC0
ENDCHAR
STARTCHAR 039A
ENCODING 922
SWIDTH 583 0
DWIDTH 14 0
BBX 12 17 2 0
BITMAP
C0E0
C0C0
C180
C380
C700
CE00
CC00
DC00
FC00
FE00
E700
C300
C380
C1C0
C0C0
C0E0
C070
ENDCHAR
STARTCHAR 039B
ENCODING 923
SWIDTH 583 0
DWIDTH 14 0
BBX 13 17 1 0
BITMAP
0600
0700
0F00
0F00
0D80
1980
1980
18C0
38C0
30C0
3060
7060
6060
6030
E030
C030
C038
ENDCHAR
STARTCHAR 039C
ENCODING 924
SWIDTH 625 0
DWIDTH 15 0
BBX 11 17 2 0
BITMAP
E0E0
E0E0
F0E0
F1E0
D1E0
DB60
DB60
DB60
CE60
CE60
CE60
C460
C060
C060
C060
C060
C060
ENDCHAR
STARTCHAR 039D
ENCODING 925
SWIDTH 625 0
DWIDTH 15 0
BBX 11 17 2 0
BITMAP
C060
E060
E060
F060
F860
D860
DC60
CC60
CE60
C660
C760
C360
C3E0
C1E0
C0E0
C0E0
C060
ENDCHAR
STARTCHAR 039E
ENCODING 926
SWIDTH 625 0
DWIDTH 15 0
BBX 11 17 2 0
BITMAP
FFE0
FFE0
0000
0000
0000
0000
0000
7FC0
7FC0
0000
0000
0000
0000
0000
0000
FFE0
FFE0
ENDCHAR
STARTCHAR 039F
ENCODING 927
SWIDTH 583 0
DWIDTH 14 0
BBX 12 17 1 0
BITMAP
0F00
3FC0
70E0
6060
E070
C030
C030
C030
C030
C030
C030
C030
E070
6060
70E0
3FC0
0F00
ENDCHAR
STARTCHAR 03A0
ENCODING 928
SWIDTH 625 0
DWIDTH 15 0
BBX 11 17 2 0
BITMAP
FFE0
FFE0
C060
C060
C060
C060
C060
C060
C060
C060
C060
C060
C060
C060
C060
C060
C060
ENDCHAR
STARTCHAR 03A1
ENCODING 929
SWIDTH 583 0
DWIDTH 14 0
BBX 11 17 2 0
BITMAP
FF00
FFC0
C0E0
C060
C060
C060
C060
C0E0
FFC0
FF00
C000
C000
C000
C000
C000
C000
C000
ENDCHAR
STARTCHAR 03A3
ENCODING 931
SWIDTH 583 0
DWIDTH 14 0
BBX 12 17 1 0
BITMAP
FFE0
FFE0
6000
7000
3800
1C00
0C00
0600
0700
0600
0C00
1800
3800
7000
6000
FFF0
FFF0
ENDCHAR
STARTCHAR 03A4
ENCODING 932
SWIDTH 625 0
DWIDTH 15 0
BBX 13 17 1 0
BITMAP
FFF8
FFF8
0600
0600
0600
0600
0600
0600
0600
0600
0600
0600
0600
0600
0600
0600
0600
ENDCHAR
STARTCHAR 03A5
ENCODING 933
SWIDTH 583 0
DWIDTH 14 0
BBX 12 17 1 0
BITMAP
C030
E070
6060
70E0
30C0
38C0
1980
1D80
0F00
0F00
0600
0600
0600
0600
0600
0600
0600
ENDCHAR
STARTCHAR 03A6
ENCODING 934
SWIDTH 583 0
DWIDTH 14 0
BBX 12 17 1 0
BITMAP
0600
0600
0F00
3FC0
76E0
6670
C630
C630
C630
C630
C630
6670
76E0
3FC0
0F00
0600
0600
ENDCHAR
STARTCHAR 03A7
ENCODING 935
SWIDTH 583 0
DWIDTH 14 0
BBX 12 17 1 0
BITMAP
E030
7070
3060
38E0
18C0
1D80
0F80
0700
0700
0F00
0D80
1D80
18C0
38E0
7060
6070
E030
ENDCHAR
STARTCHAR 03A8
ENCODING 936
SWIDTH 583 0
DWIDTH 14 0
BBX 12 17 1 0
BITMAP
C630
C630
C630
C630
C630
C630
C630
C630
C630
E630
6660
7FE0
1F80
0600
0600
0600
0600
ENDCHAR
STARTCHAR 03A9
ENCODING 937
SWIDTH 583 0
DWIDTH 14 0
BBX 12 17 1 0
BITMAP
0F00
3FC0
70E0
6060
E070
C030
C030
C030
C030
C030
C030
4060
6060
6060
30C0
F9F0
F9F0
ENDCHAR
STARTCHAR 03AA
ENCODING 938
SWIDTH 583 0
DWIDTH 14 0
BBX 10 21 2 0
BITMAP
6300
6300
0000
0000
FFC0
FFC0
0C00
0C00
0C00
0C00
0C00
0C00
0C00
0C00
0C00
0C00
0C00
0C00
0C00
FFC0
FFC0
ENDCHAR
STARTCHAR 03AB
ENCODING 939
SWIDTH 583 0
DWIDTH 14 0
BBX 11 22 1 0
BITMAP
3180
3180
3180
0000
0000
C060
E060
60E0
60C0
31C0
3180
1B80
1B00
0B00
0F00
0600
0600
0600
0600
0600
0600
0600
ENDCHAR
STARTCHAR 03AC
ENCODING 940
SWIDTH 625 0
DWIDTH 15 0
BBX 12 20 2 0
BITMAP
0300
0200
0600
0600
0400
0000
0000
1E40
7FC0
61C0
E0C0
C0C0
C0C0
C0C0
C0C0
C0C0
E0C0
61C0
7FF0
1E70
ENDCHAR
STARTCHAR 03AD
ENCODING 941
SWIDTH 625 0
DWIDTH 15 0
BBX 11 20 2 0
BITMAP
0300
0300
0600
0600
0400
0000
0000
3F80
7FC0
E0E0
C060
E000
7F80
3F80
E000
C000
C060
E0E0
7FC0
1F80
ENDCHAR
STARTCHAR 03AE
ENCODING 942
SWIDTH 583 0
DWIDTH 14 0
BBX 10 25 2 -5
BITMAP
0600
0600
0600
0400
0400
0000
0000
CF00
DF80
E1C0
C0C0
C0C0
C0C0
C0C0
C0C0
C0C0
C0C0
C0C0
C0C0
C0C0
00C0
00C0
00C0
00C0
00C0
ENDCHAR
STARTCHAR 03AF
ENCODING 943
SWIDTH 583 0
DWIDTH 14 0
BBX 10 20 2 0
BITMAP
0600
0600
0400
0400
0C00
0000
0000
FC00
FC00
0C00
0C00
0C00
0C00
0C00
0C00
0C00
0C00
0C00
07C0
07C0
ENDCHAR
STARTCHAR 03B0
ENCODING 944
SWIDTH 625 0
DWIDTH 15 0
BBX 11 20 2 0
BITMAP
0600
0E00
0C00
6180
6180
6180
0000
C0C0
C0C0
C0C0
C060
C060
C060
C060
C060
C0E0
E0C0
61C0
7F80
1F00
ENDCHAR
STARTCHAR 03B1
ENCODING 945
SWIDTH 625 0
DWIDTH 15 0
BBX 12 13 2 0
BITMAP
1E40
7FC0
61C0
E0C0
C0C0
C0C0
C0C0
C0C0
C0C0
E0C0
61C0
7FF0
1E70
ENDCHAR
STARTCHAR 03B2
ENCODING 946
SWIDTH 583 0
DWIDTH 14 0
BBX 11 22 2 -5
BITMAP
1F00
7F80
61C0
C0C0
C0C0
C0C0
C1C0
CF80
CF80
C1C0
C0E0
C060
C060
C060
E0C0
FFC0
DF00
C000
C000
C000
C000
C000
ENDCHAR
STARTCHAR 03B3
ENCODING 947
SWIDTH 583 0
DWIDTH 14 0
BBX 12 18 1 -5
BITMAP
C030
C030
6060
6060
30E0
30C0
38C0
1980
1980
0F00
0F00
0700
0600
0600
0600
0600
0600
0600
ENDCHAR
STARTCHAR 03B4
ENCODING 948
SWIDTH 583 0
DWIDTH 14 0
BBX 12 19 1 0
BITMAP
0F00
1FC0
3840
3000
3000
3C00
1F00
1FC0
30E0
6060
E070
C030
C030
C030
C030
6060
70E0
3FC0
1F80
ENDCHAR
STARTCHAR 03B5
ENCODING 949
SWIDTH 625 0
DWIDTH 15 0
BBX 11 13 2 0
BITMAP
3F80
7FC0
E0E0
C060
E000
7F80
3F80
E000
C000
C060
E0E0
7FC0
1F80
ENDCHAR
STARTCHAR 03B6
ENCODING 950
SWIDTH 583 0
DWIDTH 14 0
BBX 11 22 1 -5
BITMAP
FFE0
FFE0
00C0
0180
0300
0600
0C00
1800
3000
3000
6000
6000
6000
6000
7000
3E00
1FC0
00C0
0060
00C0
00C0
0080
ENDCHAR
STARTCHAR 03B7
ENCODING 951
SWIDTH 583 0
DWIDTH 14 0
BBX 10 18 2 -5
BITMAP
CF00
DF80
E1C0
C0C0
C0C0
C0C0
C0C0
C0C0
C0C0
C0C0
C0C0
C0C0
C0C0
00C0
00C0
00C0
00C0
00C0
ENDCHAR
STARTCHAR 03B8
ENCODING 952
SWIDTH 583 0
DWIDTH 14 0
BBX 10 17 2 0
BITMAP
1E00
7F80
6180
E0C0
C0C0
C0C0
C0C0
FFC0
FFC0
C0C0
C0C0
C0C0
C0C0
E0C0
6180
3F80
1E00
ENDCHAR
STARTCHAR 03B9
ENCODING 953
SWIDTH 583 0
DWIDTH 14 0
BBX 10 13 2 0
BITMAP
FC00
FC00
0C00
0C00
0C00
0C00
0C00
0C00
0C00
0C00
0C00
07C0
07C0
ENDCHAR
STARTCHAR 03BA
ENCODING 954
SWIDTH 583 0
DWIDTH 14 0
BBX 11 13 2 0
BITMAP
C0C0
C180
C300
C700
CE00
DC00
FC00
FE00
E700
C300
C380
C1C0
C0E0
ENDCHAR
STARTCHAR 03BB
ENCODING 955
SWIDTH 583 0
DWIDTH 14 0
BBX 12 17 1 0
BITMAP
7000
7800
1C00
0C00
0E00
0600
0E00
0F00
1B00
1B80
1980
3180
31C0
70C0
60E0
6070
E030
ENDCHAR
STARTCHAR 03BC
ENCODING 956
SWIDTH 583 0
DWIDTH 14 0
BBX 10 18 2 -5
BITMAP
C0C0
C0C0
C0C0
C0C0
C0C0
C0C0
C0C0
C0C0
C0C0
C0C0
E1C0
FFC0
DEC0
C000
C000
C000
C000
C000
ENDCHAR
STARTCHAR 03BD
ENCODING 957
SWIDTH 583 0
DWIDTH 14 0
BBX 12 13 1 0
BITMAP
E030
6070
6060
3060
30C0
30C0
18C0
1980
0D80
0D00
0F00
0700
0600
ENDCHAR
STARTCHAR 03BE
ENCODING 958
SWIDTH 583 0
DWIDTH 14 0
BBX 10 22 2 -5
BITMAP
0FC0
3FC0
7000
6000
6000
7000
1F80
1F80
7000
6000
C000
C000
C000
E000
7000
3E00
1FC0
01C0
00C0
00C0
0180
0080
ENDCHAR
STARTCHAR 03BF
ENCODING 959
SWIDTH 583 0
DWIDTH 14 0
BBX 11 13 1 0
BITMAP
1F00
3F80
70C0
E0E0
C060
C060
C060
C060
C060
E0E0
70C0
3F80
1F00
ENDCHAR
STARTCHAR 03C0
ENCODING 960
SWIDTH 625 0
DWIDTH 15 0
BBX 13 13 1 0
BITMAP
FFF0
FFF0
30C0
30C0
30C0
30C0
30C0
30C0
30C0
30C0
30C0
30F8
3078
ENDCHAR
STARTCHAR 03C1
ENCODING 961
SWIDTH 625 0
DWIDTH 15 0
BBX 11 18 2 -5
BITMAP
1F00
3F80
71C0
E0C0
C060
C060
C060
C060
C060
C0E0
E0C0
FFC0
CF00
C000
C000
C000
C000
C000
ENDCHAR
STARTCHAR 03C2
ENCODING 962
SWIDTH 583 0
DWIDTH 14 0
BBX 11 18 1 -5
BITMAP
1F00
3FC0
70E0
6060
C060
C000
C000
C000
C000
6000
7000
3F00
0FC0
00E0
0060
00E0
01C0
0180
ENDCHAR
STARTCHAR 03C3
ENCODING 963
SWIDTH 583 0
DWIDTH 14 0
BBX 13 13 1 0
BITMAP
1FF8
3FF8
70C0
E0C0
C060
C060
C060
C060
C060
60E0
70C0
3F80
1F00
ENDCHAR
STARTCHAR 03C4
ENCODING 964
SWIDTH 625 0
DWIDTH 15 0
BBX 11 13 2 0
BITMAP
FFE0
FFE0
0C00
0C00
0C00
0C00
0C00
0C00
0C00
0C00
0E00
07E0
03C0
ENDCHAR
STARTCHAR 03C5
ENCODING 965
SWIDTH 625 0
DWIDTH 15 0
BBX 11 13 2 0
BITMAP
C0C0
C0C0
C0E0
C060
C060
C060
C060
C060
C0E0
E0C0
61C0
7F80
1F00
ENDCHAR
STARTCHAR 03C6
ENCODING 966
SWIDTH 583 0
DWIDTH 14 0
BBX 12 18 1 -5
BITMAP
23C0
77E0
6660
E630
C630
C630
C630
C630
C630
6670
76E0
3FC0
1F80
0600
0600
0600
0600
0600
ENDCHAR
STARTCHAR 03C7
ENCODING 967
SWIDTH 583 0
DWIDTH 14 0
BBX 11 13 2 0
BITMAP
C0E0
60C0
7180
3380
1F00
1E00
0E00
1E00
1B00
3380
71C0
E0C0
C0E0
ENDCHAR
STARTCHAR 03C8
ENCODING 968
SWIDTH 583 0
DWIDTH 14 0
BBX 12 18 1 -5
BITMAP
C660
C670
C630
C630
C630
C630
C630
C630
E630
6670
76E0
3FC0
0F00
0600
0600
0600
0600
0600
ENDCHAR
STARTCHAR 03C9
ENCODING 969
SWIDTH 583 0
DWIDTH 14 0
BBX 12 13 1 0
BITMAP
6060
6070
E030
C030
C630
C630
C630
C630
C630
C630
6770
7FE0
39C0
ENDCHAR
STARTCHAR 03CA
ENCODING 970
SWIDTH 625 0
DWIDTH 15 0
BBX 11 17 2 0
BITMAP
3180
3180
0000
0000
FE00
FE00
0600
0600
0600
0600
0600
0600
0600
0600
0600
07E0
03C0
ENDCHAR
STARTCHAR 03CB
ENCODING 971
SWIDTH 625 0
DWIDTH 15 0
BBX 11 17 2 0
BITMAP
6300
6300
0000
0000
C1C0
C0C0
C0C0
C0E0
C060
C060
C060
C060
C0E0
E0C0
61C0
7F80
1F00
ENDCHAR
STARTCHAR 03CC
ENCODING 972
SWIDTH 583 0
DWIDTH 14 0
BBX 11 20 1 0
BITMAP
0300
0200
0600
0600
0400
0000
0000
1F00
3F80
70C0
E0E0
C060
C060
C060
C060
C060
E0E0
70C0
3F80
1F00
ENDCHAR
STARTCHAR 03CD
ENCODING 973
SWIDTH 625 0
DWIDTH 15 0
BBX 11 20 2 0
BITMAP
0600
0600
0600
0400
0400
0000
0000
C0C0
C0C0
C0E0
C060
C060
C060
C060
C060
C0E0
E0C0
61C0
7F80
1F00
ENDCHAR
STARTCHAR 03CE
ENCODING 974
SWIDTH 583 0
DWIDTH 14 0
BBX 12 20 1 0
BITMAP
0300
0300
0300
0200
0200
0000
0000
6060
6070
E030
C030
C630
C630
C630
C630
C630
C630
6770
7FE0
39C0
ENDCHAR
STARTCHAR 03D1
ENCODING 977
SWIDTH 625 0
DWIDTH 15 0
BBX 12 17 2 0
BITMAP
0F00
1F80
18C0
18C0
18C0
18C0
1CC0
0EC0
C7F0
C3F0
C0C0
C0C0
C0C0
C0C0
61C0
7F80
1F00
ENDCHAR
STARTCHAR 03D2
ENCODING 978
SWIDTH 583 0
DWIDTH 14 0
BBX 14 17 0 0
BITMAP
E01C
703C
3830
1860
1C60
0CC0
0CC0
0780
0780
0380
0300
0300
0300
0300
0300
0300
0300
ENDCHAR
STARTCHAR 03D6
ENCODING 982
SWIDTH 625 0
DWIDTH 15 0
BBX 13 13 1 0
BITMAP
FFF8
FFF8
6030
E038
E638
C618
C618
C618
C618
C618
EF38
7DF0
38E0
ENDCHAR
STARTCHAR 0400
ENCODING 1024
SWIDTH 583 0
DWIDTH 14 0
BBX 11 22 2 0
BITMAP
7000
3800
1800
0C00
0000
FFE0
FFE0
C000
C000
C000
C000
C000
FFC0
FFC0
C000
C000
C000
C000
C000
C000
FFE0
FFE0
ENDCHAR
STARTCHAR 0401
ENCODING 1025
SWIDTH 583 0
DWIDTH 14 0
BBX 11 21 2 0
BITMAP
3180
3180
0000
0000
FFE0
FFE0
C000
C000
C000
C000
C000
FFC0
FFC0
C000
C000
C000
C000
C000
C000
FFE0
FFE0
ENDCHAR
STARTCHAR 0402
ENCODING 1026
SWIDTH 625 0
DWIDTH 15 0
BBX 13 17 1 0
BITMAP
FFF0
FFF0
0C00
0C00
0C00
0C00
0C00
0FC0
0FF0
0C30
0C18
0C18
0C18
0C18
0C38
0CF0
0CE0
ENDCHAR
STARTCHAR 0403
ENCODING 1027
SWIDTH 583 0
DWIDTH 14 0
BBX 11 22 2 0
BITMAP
0380
0300
0600
0C00
0000
FFE0
FFE0
C000
C000
C000
C000
C000
C000
C000
C000
C000
C000
C000
C000
C000
C000
C000
ENDCHAR
STARTCHAR 0404
ENCODING 1028
SWIDTH 625 0
DWIDTH 15 0
BBX 12 17 2 0
BITMAP
1F80
3FC0
70E0
6070
C030
C000
C000
FF80
FF80
C000
C000
C000
E030
6060
70E0
3FC0
1F80
ENDCHAR
STARTCHAR 0405
ENCODING 1029
SWIDTH 583 0
DWIDTH 14 0
BBX 11 17 2 0
BITMAP
1F00
7FC0
60C0
C060
C060
C000
6000
7C00
1F00
07C0
00E0
0060
C060
C060
E0E0
7FC0
1F00
ENDCHAR
STARTCHAR 0406
ENCODING 1030
SWIDTH 583 0
DWIDTH 14 0
BBX 10 17 2 0
BITMAP
FFC0
FFC0
0C00
0C00
0C00
0C00
0C00
0C00
0C00
0C00
0C00
0C00
0C00
0C00
0C00
FFC0
FFC0
ENDCHAR
STARTCHAR 0407
ENCODING 1031
SWIDTH 583 0
DWIDTH 14 0
BBX 10 21 2 0
BITMAP
6300
6300
0000
0000
FFC0
FFC0
0C00
0C00
0C00
0C00
0C00
0C00
0C00
0C00
0C00
0C00
0C00
0C00
0C00
FFC0
FFC0
ENDCHAR
STARTCHAR 0408
ENCODING 1032
SWIDTH 583 0
DWIDTH 14 0
BBX 11 17 1 0
BITMAP
0060
0060
0060
0060
0060
0060
0060
0060
0060
0060
0060
0060
E060
6060
70C0
3FC0
1F00
ENDCHAR
STARTCHAR 0409
ENCODING 1033
SWIDTH 625 0
DWIDTH 15 0
BBX 14 17 0 0
BITMAP
3F80
3F80
3180
3180
3180
3180
31E0
31F8
3198
318C
318C
318C
318C
318C
719C
E1F8
C1F0
ENDCHAR
STARTCHAR 040A
ENCODING 1034
SWIDTH 625 0
DWIDTH 15 0
BBX 12 17 2 0
BITMAP
C600
C600
C600
C600
C600
C600
C600
FF80
FFE0
C670
C630
C630
C630
C630
C670
C7E0
C7C0
ENDCHAR
STARTCHAR 040B
ENCODING 1035
SWIDTH 583 0
DWIDTH 14 0
BBX 12 17 1 0
BITMAP
FFF0
FFF0
0C00
0C00
0C00
0C00
0C00
0FC0
0FE0
0C70
0C30
0C30
0C30
0C30
0C30
0C30
0C30
ENDCHAR
STARTCHAR 040C
ENCODING 1036
SWIDTH 583 0
DWIDTH 14 0
BBX 12 22 2 0
BITMAP
0380
0300
0600
0400
0000
C0E0
C0C0
C180
C380
C700
CE00
CC00
DC00
FC00
FE00
E700
C300
C380
C1C0
C0C0
C0E0
C070
ENDCHAR
STARTCHAR 040D
ENCODING 1037
SWIDTH 625 0
DWIDTH 15 0
BBX 11 22 2 0
BITMAP
7000
1800
0C00
0400
0000
C060
C0E0
C1E0
C1E0
C3E0
C360
C760
C660
CE60
CC60
DC60
D860
F860
F060
F060
E060
C060
ENDCHAR
STARTCHAR 040E
ENCODING 1038
SWIDTH 583 0
DWIDTH 14 0
BBX 13 23 1 0
BITMAP
18C0
18C0
0F80
0700
0000
0000
C038
E030
6070
6060
3060
30E0
38C0
19C0
1D80
0D80
0F00
0700
0600
0600
0E00
FC00
F800
ENDCHAR
STARTCHAR 040F
ENCODING 1039
SWIDTH 583 0
DWIDTH 14 0
BBX 10 21 2 -4
BITMAP
C0C0
C0C0
C0C0
C0C0
C0C0
C0C0
C0C0
C0C0
C0C0
C0C0
C0C0
C0C0
C0C0
C0C0
C0C0
FFC0
FFC0
0C00
0C00
0C00
0C00
ENDCHAR
STARTCHAR 0410
ENCODING 1040
SWIDTH 583 0
DWIDTH 14 0
BBX 13 17 1 0
BITMAP
0600
0700
0700
0F00
0D80
0D80
1980
18C0
18C0
38C0
30E0
3FE0
7FE0
6070
6030
E030
C038
ENDCHAR
STARTCHAR 0411
ENCODING 1041
SWIDTH 625 0
DWIDTH 15 0
BBX 11 17 2 0
BITMAP
FFC0
FFC0
C000
C000
C000
C000
C000
FF00
FFC0
C0C0
C0E0
C060
C060
C0E0
C0C0
FFC0
FF00
ENDCHAR
STARTCHAR 0412
ENCODING 1042
SWIDTH 583 0
DWIDTH 14 0
BBX 11 17 2 0
BITMAP
FF00
FFC0
C0E0
C060
C060
C060
C0C0
FF80
FF80
C0C0
C060
C060
C060
C060
C0E0
FFC0
FF00
ENDCHAR
STARTCHAR 0413
ENCODING 1043
SWIDTH 583 0
DWIDTH 14 0
BBX 11 17 2 0
BITMAP
FFE0
FFE0
C000
C000
C000
C000
C000
C000
C000
C000
C000
C000
C000
C000
C000
C000
C000
ENDCHAR
STARTCHAR 0414
ENCODING 1044
SWIDTH 583 0
DWIDTH 14 0
BBX 12 21 1 -4
BITMAP
1FE0
1FE0
1860
1860
1860
1860
1860
1860
1860
1860
1860
1860
3860
3060
7060
FFF0
FFF0
C030
C030
C030
C030
ENDCHAR
STARTCHAR 0415
ENCODING 1045
SWIDTH 583 0
DWIDTH 14 0
BBX 11 17 2 0
BITMAP
FFE0
FFE0
C000
C000
C000
C000
C000
FFC0
FFC0
C000
C000
C000
C000
C000
C000
FFE0
FFE0
ENDCHAR
STARTCHAR 0416
ENCODING 1046
SWIDTH 583 0
DWIDTH 14 0
BBX 14 17 0 0
BITMAP
6318
7338
7338
3330
3330
3B70
1B60
1FE0
1FE0
1B60
3B70
3B30
3330
7338
7338
6318
E31C
ENDCHAR
STARTCHAR 0417
ENCODING 1047
SWIDTH 583 0
DWIDTH 14 0
BBX 12 17 1 0
BITMAP
1F80
7FE0
E070
C030
0030
0030
0060
0FC0
0FC0
0070
0030
0030
C030
E030
7060
7FE0
1F80
ENDCHAR
STARTCHAR 0418
ENCODING 1048
SWIDTH 625 0
DWIDTH 15 0
BBX 11 17 2 0
BITMAP
C060
C0E0
C1E0
C1E0
C3E0
C360
C760
C660
CE60
CC60
DC60
D860
F860
F060
F060
E060
C060
ENDCHAR
STARTCHAR 0419
ENCODING 1049
SWIDTH 625 0
DWIDTH 15 0
BBX 11 22 2 0
BITMAP
3180
3180
1F00
0E00
0000
C060
C0E0
C1E0
C1E0
C3E0
C360
C760
C660
CE60
CC60
DC60
D860
F860
F060
F060
E060
C060
ENDCHAR
STARTCHAR 041A
ENCODING 1050
SWIDTH 583 0
DWIDTH 14 0
BBX 12 17 2 0
BITMAP
C060
C0E0
C1C0
C180
C300
C700
C600
FC00
FC00
CE00
C700
C300
C380
C1C0
C0C0
C0E0
C070
ENDCHAR
STARTCHAR 041B
ENCODING 1051
SWIDTH 583 0
DWIDTH 14 0
BBX 12 17 0 0
BITMAP
1FF0
1FF0
1830
1830
1830
1830
1830
1830
1830
1830
1830
1830
1830
1830
3830
F030
E030
ENDCHAR
STARTCHAR 041C
ENCODING 1052
SWIDTH 625 0
DWIDTH 15 0
BBX 11 17 2 0
BITMAP
E0E0
E0E0
F0E0
F1E0
D1E0
DB60
DB60
DB60
CE60
CE60
CE60
C460
C060
C060
C060
C060
C060
ENDCHAR
STARTCHAR 041D
ENCODING 1053
SWIDTH 625 0
DWIDTH 15 0
BBX 11 17 2 0
BITMAP
C060
C060
C060
C060
C060
C060
C060
FFE0
FFE0
C060
C060
C060
C060
C060
C060
C060
C060
ENDCHAR
STARTCHAR 041E
ENCODING 1054
SWIDTH 583 0
DWIDTH 14 0
BBX 12 17 1 0
BITMAP
0F00
3FC0
70E0
6060
E070
C030
C030
C030
C030
C030
C030
C030
E070
6060
70E0
3FC0
0F00
ENDCHAR
STARTCHAR 041F
ENCODING 1055
SWIDTH 625 0
DWIDTH 15 0
BBX 11 17 2 0
BITMAP
FFE0
FFE0
C060
C060
C060
C060
C060
C060
C060
C060
C060
C060
C060
C060
C060
C060
C060
ENDCHAR
STARTCHAR 0420
ENCODING 1056
SWIDTH 583 0
DWIDTH 14 0
BBX 11 17 2 0
BITMAP
FF00
FFC0
C0E0
C060
C060
C060
C060
C0E0
FFC0
FF00
C000
C000
C000
C000
C000
C000
C000
ENDCHAR
STARTCHAR 0421
ENCODING 1057
SWIDTH 583 0
DWIDTH 14 0
BBX 12 17 1 0
BITMAP
0F80
3FC0
70E0
6060
E070
C000
C000
C000
C000
C000
C000
C000
E070
6060
70E0
3FC0
0F80
ENDCHAR
STARTCHAR 0422
ENCODING 1058
SWIDTH 625 0
DWIDTH 15 0
BBX 13 17 1 0
BITMAP
FFF8
FFF8
0600
0600
0600
0600
0600
0600
0600
0600
0600
0600
0600
0600
0600
0600
0600
ENDCHAR
STARTCHAR 0423
ENCODING 1059
SWIDTH 583 0
DWIDTH 14 0
BBX 13 17 1 0
BITMAP
C038
E030
6030
7070
3060
30E0
18C0
19C0
1D80
0D80
0F00
0700
0700
0600
0E00
FC00
F800
ENDCHAR
STARTCHAR 0424
ENCODING 1060
SWIDTH 583 0
DWIDTH 14 0
BBX 12 17 1 0
BITMAP
0600
0600
0F00
3FC0
76E0
6670
C630
C630
C630
C630
C630
6670
76E0
3FC0
0F00
0600
0600
ENDCHAR
STARTCHAR 0425
ENCODING 1061
SWIDTH 583 0
DWIDTH 14 0
BBX 12 17 1 0
BITMAP
E030
7070
3060
38E0
18C0
1D80
0F80
0700
0700
0F00
0D80
1D80
18C0
38E0
7060
6070
E030
ENDCHAR
STARTCHAR 0426
ENCODING 1062
SWIDTH 625 0
DWIDTH 15 0
BBX 12 21 2 -4
BITMAP
C0C0
C0C0
C0C0
C0C0
C0C0
C0C0
C0C0
C0C0
C0C0
C0C0
C0C0
C0C0
C0C0
C0C0
C0C0
FFF0
FFF0
0030
0030
0030
0030
ENDCHAR
STARTCHAR 0427
ENCODING 1063
SWIDTH 583 0
DWIDTH 14 0
BBX 10 17 2 0
BITMAP
C0C0
C0C0
C0C0
C0C0
C0C0
C0C0
C0C0
C0C0
60C0
7FC0
1EC0
00C0
00C0
00C0
00C0
00C0
00C0
ENDCHAR
STARTCHAR 0428
ENCODING 1064
SWIDTH 583 0
DWIDTH 14 0
BBX 12 17 1 0
BITMAP
C630
C630
C630
C630
C630
C630
C630
C630
C630
C630
C630
C630
C630
C630
C630
FFF0
FFF0
ENDCHAR
STARTCHAR 0429
ENCODING 1065
SWIDTH 583 0
DWIDTH 14 0
BBX 12 21 1 -4
BITMAP
C660
C660
C660
C660
C660
C660
C660
C660
C660
C660
C660
C660
C660
C660
C660
FFF0
FFF0
0030
0030
0030
0030
ENDCHAR
STARTCHAR 042A
ENCODING 1066
SWIDTH 583 0
DWIDTH 14 0
BBX 13 17 0 0
BITMAP
FC00
FC00
0C00
0C00
0C00
0C00
0C00
0FC0
0FF0
0C38
0C18
0C18
0C18
0C18
0C38
0FF0
0FC0
ENDCHAR
STARTCHAR 042B
ENCODING 1067
SWIDTH 625 0
DWIDTH 15 0
BBX 11 17 2 0
BITMAP
C060
C060
C060
C060
C060
C060
C060
FC60
FE60
C760
C360
C360
C360
C360
C660
FE60
FC60
ENDCHAR
STARTCHAR 042C
ENCODING 1068
SWIDTH 583 0
DWIDTH 14 0
BBX 11 17 2 0
BITMAP
C000
C000
C000
C000
C000
C000
C000
FF00
FFC0
C0C0
C060
C060
C060
C0E0
C0C0
FFC0
FF00
ENDCHAR
STARTCHAR 042D
ENCODING 1069
SWIDTH 583 0
DWIDTH 14 0
BBX 12 17 1 0
BITMAP
1F00
3FC0
60E0
E060
C030
0030
0030
0FF0
0FF0
0030
0030
C030
C070
E060
70E0
3FC0
1F00
ENDCHAR
STARTCHAR 042E
ENCODING 1070
SWIDTH 583 0
DWIDTH 14 0
BBX 12 17 1 0
BITMAP
C3C0
C7E0
CE60
CC30
CC30
CC30
CC30
CC30
FC30
FC30
CC30
CC30
CC30
CC30
CE60
C7E0
C3C0
ENDCHAR
STARTCHAR 042F
ENCODING 1071
SWIDTH 583 0
DWIDTH 14 0
BBX 11 17 1 0
BITMAP
1FE0
7FE0
6060
C060
C060
C060
E060
7060
3FE0
1FE0
1860
3060
3060
6060
6060
C060
C060
ENDCHAR
STARTCHAR 0430
ENCODING 1072
SWIDTH 583 0
DWIDTH 14 0
BBX 11 13 2 0
BITMAP
1F00
7F80
61C0
C0C0
00C0
1FC0
7FC0
E0C0
C0C0
C0C0
E1C0
7FC0
3EE0
ENDCHAR
STARTCHAR 0431
ENCODING 1073
SWIDTH 625 0
DWIDTH 15 0
BBX 11 19 2 0
BITMAP
00C0
00C0
07C0
1F80
3C00
7000
6000
CF00
FFC0
E0C0
E060
C060
C060
C060
C060
E0E0
60C0
3F80
1F00
ENDCHAR
STARTCHAR 0432
ENCODING 1074
SWIDTH 625 0
DWIDTH 15 0
BBX 11 13 2 0
BITMAP
FF00
FF80
C1C0
C0C0
C0C0
C1C0
FF80
FFC0
C0E0
C060
C0E0
FFC0
FF80
ENDCHAR
STARTCHAR 0433
ENCODING 1075
SWIDTH 583 0
DWIDTH 14 0
BBX 11 13 2 0
BITMAP
FFE0
FFE0
C000
C000
C000
C000
C000
C000
C000
C000
C000
C000
C000
ENDCHAR
STARTCHAR 0434
ENCODING 1076
SWIDTH 625 0
DWIDTH 15 0
BBX 13 17 1 -4
BITMAP
1FE0
1FE0
1860
1860
1860
1860
1860
1860
1860
3860
3060
FFF8
FFF8
C018
C018
C018
C018
ENDCHAR
STARTCHAR 0435
ENCODING 1077
SWIDTH 625 0
DWIDTH 15 0
BBX 11 13 2 0
BITMAP
1F00
3FC0
70C0
6060
C060
FFE0
FFE0
C000
C000
E000
7060
3FC0
1F80
ENDCHAR
STARTCHAR 0436
ENCODING 1078
SWIDTH 583 0
DWIDTH 14 0
BBX 14 13 0 0
BITMAP
6318
7318
3330
3330
1B70
1B60
0FE0
1FE0
1B70
3330
3338
7318
E31C
ENDCHAR
STARTCHAR 0437
ENCODING 1079
SWIDTH 625 0
DWIDTH 15 0
BBX 11 13 2 0
BITMAP
1F80
7FC0
E0E0
C060
0060
1FC0
1FC0
00E0
0060
C060
E0E0
7FC0
1F80
ENDCHAR
STARTCHAR 0438
ENCODING 1080
SWIDTH 583 0
DWIDTH 14 0
BBX 10 13 2 0
BITMAP
C0C0
C1C0
C3C0
C3C0
C6C0
C6C0
CCC0
DCC0
D8C0
F0C0
F0C0
E0C0
C0C0
ENDCHAR
STARTCHAR 0439
ENCODING 1081
SWIDTH 583 0
DWIDTH 14 0
BBX 10 18 2 0
BITMAP
2100
3300
3F00
0C00
0000
C0C0
C1C0
C3C0
C3C0
C6C0
C6C0
CCC0
DCC0
D8C0
F0C0
F0C0
E0C0
C0C0
ENDCHAR
STARTCHAR 043A
ENCODING 1082
SWIDTH 583 0
DWIDTH 14 0
BBX 11 13 2 0
BITMAP
C0E0
C0C0
C180
C380
C700
CE00
FC00
FE00
C700
C380
C1C0
C0C0
C060
ENDCHAR
STARTCHAR 043B
ENCODING 1083
SWIDTH 583 0
DWIDTH 14 0
BBX 12 13 0 0
BITMAP
1FF0
1FF0
1830
1830
1830
1830
1830
1830
1830
1830
3830
F030
E030
ENDCHAR
STARTCHAR 043C
ENCODING 1084
SWIDTH 625 0
DWIDTH 15 0
BBX 11 13 2 0
BITMAP
E0E0
E0E0
F0E0
F1E0
F1E0
F1E0
DB60
DB60
DB60
CA60
CE60
CE60
C460
ENDCHAR
STARTCHAR 043D
ENCODING 1085
SWIDTH 583 0
DWIDTH 14 0
BBX 10 13 2 0
BITMAP
C0C0
C0C0
C0C0
C0C0
C0C0
C0C0
FFC0
FFC0
C0C0
C0C0
C0C0
C0C0
C0C0
ENDCHAR
STARTCHAR 043E
ENCODING 1086
SWIDTH 583 0
DWIDTH 14 0
BBX 11 13 1 0
BITMAP
1F00
3F80
70C0
E0E0
C060
C060
C060
C060
C060
E0E0
70C0
3F80
1F00
ENDCHAR
STARTCHAR 043F
ENCODING 1087
SWIDTH 583 0
DWIDTH 14 0
BBX 10 13 2 0
BITMAP
FFC0
FFC0
C0C0
C0C0
C0C0
C0C0
C0C0
C0C0
C0C0
C0C0
C0C0
C0C0
C0C0
ENDCHAR
STARTCHAR 0440
ENCODING 1088
SWIDTH 625 0
DWIDTH 15 0
BBX 11 18 2 -5
BITMAP
DF00
FF80
E1C0
C0E0
C060
C060
C060
C060
C060
C0E0
E1C0
FF80
DF00
C000
C000
C000
C000
C000
ENDCHAR
STARTCHAR 0441
ENCODING 1089
SWIDTH 625 0
DWIDTH 15 0
BBX 11 13 2 0
BITMAP
1F00
3FC0
70C0
E060
C060
C000
C000
C000
C000
E060
70E0
3FC0
1F00
ENDCHAR
STARTCHAR 0442
ENCODING 1090
SWIDTH 583 0
DWIDTH 14 0
BBX 12 13 1 0
BITMAP
FFF0
FFF0
0600
0600
0600
0600
0600
0600
0600
0600
0600
0600
0600
ENDCHAR
STARTCHAR 0443
ENCODING 1091
SWIDTH 583 0
DWIDTH 14 0
BBX 12 18 1 -5
BITMAP
C030
E030
6060
7060
30E0
38C0
18C0
1980
0D80
0F00
0F00
0700
0600
0600
0C00
1C00
7800
7000
ENDCHAR
STARTCHAR 0444
ENCODING 1092
SWIDTH 583 0
DWIDTH 14 0
BBX 12 23 1 -5
BITMAP
0600
0600
0600
0600
0600
0F00
3FC0
76E0
6660
E670
C630
C630
C630
C670
E660
66E0
3FC0
1F80
0600
0600
0600
0600
0600
ENDCHAR
STARTCHAR 0445
ENCODING 1093
SWIDTH 583 0
DWIDTH 14 0
BBX 11 13 2 0
BITMAP
C0E0
60C0
7180
3380
1F00
1E00
0E00
1E00
1B00
3380
71C0
E0C0
C0E0
ENDCHAR
STARTCHAR 0446
ENCODING 1094
SWIDTH 625 0
DWIDTH 15 0
BBX 12 17 2 -4
BITMAP
C0C0
C0C0
C0C0
C0C0
C0C0
C0C0
C0C0
C0C0
C0C0
C0C0
C0C0
FFF0
FFF0
0030
0030
0030
0030
ENDCHAR
STARTCHAR 0447
ENCODING 1095
SWIDTH 625 0
DWIDTH 15 0
BBX 11 13 2 0
BITMAP
C060
C060
C060
C060
C060
C060
6060
7FE0
1F60
0060
0060
0060
0060
ENDCHAR
STARTCHAR 0448
ENCODING 1096
SWIDTH 625 0
DWIDTH 15 0
BBX 12 13 2 0
BITMAP
C630
C630
C630
C630
C630
C630
C630
C630
C630
C630
C630
FFF0
FFF0
ENDCHAR
STARTCHAR 0449
ENCODING 1097
SWIDTH 583 0
DWIDTH 14 0
BBX 12 17 1 -4
BITMAP
C660
C660
C660
C660
C660
C660
C660
C660
C660
C660
C660
FFF0
FFF0
0030
0030
0030
0030
ENDCHAR
STARTCHAR 044A
ENCODING 1098
SWIDTH 583 0
DWIDTH 14 0
BBX 13 13 0 0
BITMAP
FC00
FC00
0C00
0C00
0C00
0FE0
0FF0
0C38
0C18
0C18
0C38
0FF0
0FE0
ENDCHAR
STARTCHAR 044B
ENCODING 1099
SWIDTH 625 0
DWIDTH 15 0
BBX 11 13 2 0
BITMAP
C060
C060
C060
C060
C060
F860
FC60
C660
C660
C660
C660
FC60
F860
ENDCHAR
STARTCHAR 044C
ENCODING 1100
SWIDTH 625 0
DWIDTH 15 0
BBX 11 13 2 0
BITMAP
C000
C000
C000
C000
C000
FF80
FFC0
C0E0
C060
C060
C0E0
FFC0
FF80
ENDCHAR
STARTCHAR 044D
ENCODING 1101
SWIDTH 625 0
DWIDTH 15 0
BBX 11 13 2 0
BITMAP
1F00
7F80
E1C0
C0C0
0060
0FE0
0FE0
0060
C060
C0C0
61C0
7F80
1F00
ENDCHAR
STARTCHAR 044E
ENCODING 1102
SWIDTH 583 0
DWIDTH 14 0
BBX 12 13 1 0
BITMAP
C3C0
C7E0
CE60
CC30
CC30
CC30
FC30
FC30
CC30
CC30
CE60
C7E0
C3C0
ENDCHAR
STARTCHAR 044F
ENCODING 1103
SWIDTH 625 0
DWIDTH 15 0
BBX 11 13 2 0
BITMAP
3FE0
7FE0
E060
C060
C060
E060
7FE0
3FE0
3060
7060
6060
E060
C060
ENDCHAR
STARTCHAR 0450
ENCODING 1104
SWIDTH 625 0
DWIDTH 15 0
BBX 11 18 2 0
BITMAP
3800
1C00
0C00
0000
0000
1F00
3FC0
70C0
6060
C060
FFE0
FFE0
C000
C000
E000
7060
3FC0
1F80
ENDCHAR
STARTCHAR 0451
ENCODING 1105
SWIDTH 625 0
DWIDTH 15 0
BBX 11 17 2 0
BITMAP
3180
3180
0000
0000
1F00
3FC0
70C0
6060
E060
FFE0
FFE0
C000
E000
E040
70E0
3FC0
1F80
ENDCHAR
STARTCHAR 0452
ENCODING 1106
SWIDTH 625 0
DWIDTH 15 0
BBX 13 23 0 -5
BITMAP
3000
3000
FE00
FE00
3000
33E0
37F0
3838
3018
3018
3018
3018
3018
3018
3018
3018
3018
3018
0018
0018
0038
01F0
01E0
ENDCHAR
STARTCHAR 0453
ENCODING 1107
SWIDTH 583 0
DWIDTH 14 0
BBX 11 17 2 0
BITMAP
0300
0600
0C00
0000
FFE0
FFE0
C000
C000
C000
C000
C000
C000
C000
C000
C000
C000
C000
ENDCHAR
STARTCHAR 0454
ENCODING 1108
SWIDTH 625 0
DWIDTH 15 0
BBX 11 13 2 0
BITMAP
1F00
3FC0
70E0
E060
C000
FE00
FE00
C000
C000
E060
70C0
3FC0
1F00
ENDCHAR
STARTCHAR 0455
ENCODING 1109
SWIDTH 625 0
DWIDTH 15 0
BBX 11 13 2 0
BITMAP
1F00
3FC0
70E0
6060
6000
3C00
1F80
01C0
0060
C060
E0E0
7FC0
1F80
ENDCHAR
STARTCHAR 0456
ENCODING 1110
SWIDTH 583 0
DWIDTH 14 0
BBX 11 17 2 0
BITMAP
0C00
0C00
0C00
0000
FC00
FC00
0C00
0C00
0C00
0C00
0C00
0C00
0C00
0C00
0C00
FFE0
FFE0
ENDCHAR
STARTCHAR 0457
ENCODING 1111
SWIDTH 583 0
DWIDTH 14 0
BBX 11 17 2 0
BITMAP
3180
3180
0000
0000
FC00
FC00
0C00
0C00
0C00
0C00
0C00
0C00
0C00
0C00
0C00
FFE0
FFE0
ENDCHAR
STARTCHAR 0458
ENCODING 1112
SWIDTH 583 0
DWIDTH 14 0
BBX 7 22 2 -5
BITMAP
06
06
06
00
7E
7E
06
06
06
06
06
06
06
06
06
06
06
06
06
0E
FC
F8
ENDCHAR
STARTCHAR 0459
ENCODING 1113
SWIDTH 666 0
DWIDTH 16 0
BBX 14 13 1 0
BITMAP
3F80
3F80
3180
3180
3180
31F0
31F8
319C
318C
318C
719C
E1F8
C1F0
ENDCHAR
STARTCHAR 045A
ENCODING 1114
SWIDTH 625 0
DWIDTH 15 0
BBX 12 13 2 0
BITMAP
C600
C600
C600
C600
C600
FFC0
FFE0
C630
C630
C630
C630
C7E0
C7C0
ENDCHAR
STARTCHAR 045B
ENCODING 1115
SWIDTH 625 0
DWIDTH 15 0
BBX 12 18 1 0
BITMAP
3000
3000
FE00
FE00
3000
33C0
3FE0
3870
3030
3030
3030
3030
3030
3030
3030
3030
3030
3030
ENDCHAR
STARTCHAR 045C
ENCODING 1116
SWIDTH 583 0
DWIDTH 14 0
BBX 11 17 2 0
BITMAP
0700
0C00
1800
0000
C0E0
C0C0
C180
C380
C700
CE00
FC00
FE00
C700
C380
C1C0
C0C0
C060
ENDCHAR
STARTCHAR 045D
ENCODING 1117
SWIDTH 583 0
DWIDTH 14 0
BBX 10 17 2 0
BITMAP
3000
1800
0C00
0000
C0C0
C1C0
C3C0
C3C0
C6C0
C6C0
CCC0
DCC0
D8C0
F0C0
F0C0
E0C0
C0C0
ENDCHAR
STARTCHAR 045E
ENCODING 1118
SWIDTH 583 0
DWIDTH 14 0
BBX 12 23 1 -5
BITMAP
18C0
1FC0
0F80
0000
0000
E030
6030
6070
7060
30E0
38C0
18C0
1980
0D80
0F80
0700
0700
0600
0600
0C00
1C00
7800
7000
ENDCHAR
STARTCHAR 045F
ENCODING 1119
SWIDTH 583 0
DWIDTH 14 0
BBX 10 17 2 -4
BITMAP
C0C0
C0C0
C0C0
C0C0
C0C0
C0C0
C0C0
C0C0
C0C0
C0C0
C0C0
FFC0
FFC0
0C00
0C00
0C00
0C00
ENDCHAR
STARTCHAR 0460
ENCODING 1120
SWIDTH 583 0
DWIDTH 14 0
BBX 12 17 1 0
BITMAP
C630
C630
C630
C630
C630
C630
C630
C630
C630
C630
C630
C630
C630
C630
C630
7FF0
39E0
ENDCHAR
STARTCHAR 0461
ENCODING 1121
SWIDTH 583 0
DWIDTH 14 0
BBX 12 13 1 0
BITMAP
C630
C630
C630
C630
C630
C630
C630
C630
C630
C630
C630
7FF0
39E0
ENDCHAR
STARTCHAR 0462
ENCODING 1122
SWIDTH 625 0
DWIDTH 15 0
BBX 13 17 0 0
BITMAP
1800
1800
FE00
FE00
1800
1800
1800
1FC0
1FF0
1838
1818
1818
1818
1818
1838
1FF0
1FC0
ENDCHAR
STARTCHAR 0463
ENCODING 1123
SWIDTH 625 0
DWIDTH 15 0
BBX 12 19 1 0
BITMAP
3000
3000
3000
3000
FF00
FF00
3000
3000
3000
3000
3000
3FC0
3FE0
3070
3030
3030
3070
3FE0
3FC0
ENDCHAR
STARTCHAR 0464
ENCODING 1124
SWIDTH 583 0
DWIDTH 14 0
BBX 12 17 1 0
BITMAP
C3C0
C7E0
CE30
CC30
CC30
CC00
CC00
FFC0
FFC0
CC00
CC00
CC00
CC30
CC30
CE30
C7E0
C3C0
ENDCHAR
STARTCHAR 0465
ENCODING 1125
SWIDTH 625 0
DWIDTH 15 0
BBX 12 13 2 0
BITMAP
C3C0
C7E0
C670
CC30
CC00
CC00
FFC0
FFC0
CC00
CC30
C670
C7E0
C3C0
ENDCHAR
STARTCHAR 0466
ENCODING 1126
SWIDTH 583 0
DWIDTH 14 0
BBX 14 17 0 0
BITMAP
0300
0380
0780
0780
06C0
0CC0
0CC0
0C60
1860
1860
1FF0
3FF0
3330
3318
6318
6318
E30C
ENDCHAR
STARTCHAR 0467
ENCODING 1127
SWIDTH 583 0
DWIDTH 14 0
BBX 12 13 1 0
BITMAP
0600
0700
0F00
0F00
1980
1980
39C0
30C0
3FC0
7FE0
6660
E670
C630
ENDCHAR
STARTCHAR 0468
ENCODING 1128
SWIDTH 583 0
DWIDTH 14 0
BBX 13 17 1 0
BITMAP
C180
C1C0
C3C0
C3C0
C3C0
C3C0
C660
C660
C660
C660
FFF0
FFF0
CDB0
CDB0
D9B8
D998
D998
ENDCHAR
STARTCHAR 0469
ENCODING 1129
SWIDTH 583 0
DWIDTH 14 0
BBX 13 13 1 0
BITMAP
C180
C3C0
C3C0
C3C0
C3C0
C660
C660
C660
FFF0
FFF0
CDB0
D9B8
D998
ENDCHAR
STARTCHAR 046A
ENCODING 1130
SWIDTH 583 0
DWIDTH 14 0
BBX 12 17 1 0
BITMAP
7FE0
7FE0
30C0
30C0
39C0
1980
1D80
0F00
3FC0
7FF0
E630
C630
C630
C630
C630
C630
C630
ENDCHAR
STARTCHAR 046B
ENCODING 1131
SWIDTH 583 0
DWIDTH 14 0
BBX 12 13 1 0
BITMAP
7FE0
7FE0
30C0
39C0
1980
1F00
3FC0
7FE0
E670
C630
C630
C630
C630
ENDCHAR
STARTCHAR 046C
ENCODING 1132
SWIDTH 625 0
DWIDTH 15 0
BBX 13 17 1 0
BITMAP
DFF8
CFF0
CE70
CE70
C660
C7E0
C3C0
C3C0
FFF0
FFF8
D998
D998
D998
D998
D998
D998
D998
ENDCHAR
STARTCHAR 046D
ENCODING 1133
SWIDTH 625 0
DWIDTH 15 0
BBX 13 13 1 0
BITMAP
DFF8
CFF0
CE70
C660
C760
C3C0
FFF0
FFF8
D998
D998
D998
D998
D998
ENDCHAR
STARTCHAR 046E
ENCODING 1134
SWIDTH 583 0
DWIDTH 14 0
BBX 10 28 2 -5
BITMAP
6300
7600
1C00
0800
0000
0000
7E00
7F80
01C0
00C0
00C0
00C0
0180
3F00
3F00
0180
00C0
00C0
00C0
01C0
0180
3F80
FE00
C000
C000
E000
7000
3000
ENDCHAR
STARTCHAR 046F
ENCODING 1135
SWIDTH 583 0
DWIDTH 14 0
BBX 9 24 3 -5
BITMAP
6300
6600
1C00
0800
0000
0000
7E00
7F00
0380
0180
0180
3F00
3F00
0380
0180
0180
0380
3F00
FE00
C000
C000
E000
7000
2000
ENDCHAR
STARTCHAR 0470
ENCODING 1136
SWIDTH 583 0
DWIDTH 14 0
BBX 12 17 1 0
BITMAP
C630
C630
C630
C630
C630
C630
C630
C630
C630
E630
6660
7FE0
1F80
0600
0600
0600
0600
ENDCHAR
STARTCHAR 0471
ENCODING 1137
SWIDTH 583 0
DWIDTH 14 0
BBX 12 18 1 -5
BITMAP
C660
C670
C630
C630
C630
C630
C630
C630
E630
6670
76E0
3FC0
0F00
0600
0600
0600
0600
0600
ENDCHAR
STARTCHAR 0472
ENCODING 1138
SWIDTH 583 0
DWIDTH 14 0
BBX 12 17 1 0
BITMAP
0F00
3FC0
70E0
6060
E070
C030
C030
FFF0
FFF0
C030
C030
C030
E070
6060
70E0
3FC0
0F00
ENDCHAR
STARTCHAR 0473
ENCODING 1139
SWIDTH 625 0
DWIDTH 15 0
BBX 12 13 1 0
BITMAP
1F80
3FC0
70E0
6060
C030
FFF0
FFF0
C030
E070
6060
70E0
3FC0
1F80
ENDCHAR
STARTCHAR 0474
ENCODING 1140
SWIDTH 583 0
DWIDTH 14 0
BBX 15 17 0 0
BITMAP
E00E
601E
7018
3018
3030
3830
1830
1860
1C60
0C60
0CC0
0CC0
06C0
0780
0780
0380
0300
ENDCHAR
STARTCHAR 0475
ENCODING 1141
SWIDTH 583 0
DWIDTH 14 0
BBX 12 13 1 0
BITMAP
C070
E070
60C0
60C0
31C0
3180
3180
1B00
1B00
1B00
0E00
0E00
0600
ENDCHAR
STARTCHAR 0476
ENCODING 1142
SWIDTH 583 0
DWIDTH 14 0
BBX 15 22 0 0
BITMAP
3300
1980
0D80
0000
0000
E00E
601E
7018
3018
3030
3830
1830
1860
1C60
0C60
0CC0
0CC0
06C0
0780
0780
0380
0300
ENDCHAR
STARTCHAR 0477
ENCODING 1143
SWIDTH 583 0
DWIDTH 14 0
BBX 12 18 1 0
BITMAP
EE00
3600
1B00
0000
0000
C070
E070
60C0
60C0
31C0
3180
3180
1B00
1B00
1B00
0E00
0E00
0600
ENDCHAR
STARTCHAR 0478
ENCODING 1144
SWIDTH 625 0
DWIDTH 15 0
BBX 13 22 1 -5
BITMAP
3800
7C00
EE00
C600
C6C8
C6D8
C6D8
C6D8
C6D8
C6D8
C650
C670
C670
C670
EC70
7C60
3860
0060
0060
0060
01C0
0180
ENDCHAR
STARTCHAR 0479
ENCODING 1145
SWIDTH 583 0
DWIDTH 14 0
BBX 13 18 1 -5
BITMAP
3998
7D98
66D8
C6D8
C6D0
C6F0
C6F0
C6F0
C6F0
C660
6660
7C60
3860
0060
0040
00C0
01C0
0180
ENDCHAR
STARTCHAR 047A
ENCODING 1146
SWIDTH 583 0
DWIDTH 14 0
BBX 12 21 1 -2
BITMAP
0600
0600
0F00
3FC0
76C0
6060
E060
C070
C030
C030
C030
C030
C030
C070
E060
6060
76E0
3FC0
0F00
0600
0600
ENDCHAR
STARTCHAR 047B
ENCODING 1147
SWIDTH 583 0
DWIDTH 14 0
BBX 12 17 1 -2
BITMAP
0600
0600
1F00
3FC0
76E0
6060
C070
C030
C030
C030
C070
6060
76E0
3FC0
1F00
0600
0600
ENDCHAR
STARTCHAR 047C
ENCODING 1148
SWIDTH 625 0
DWIDTH 15 0
BBX 13 23 1 0
BITMAP
0E00
1F80
11E0
1060
0600
0600
3EE0
70F0
E038
C018
C018
C018
C018
C618
C618
C618
C618
C618
C618
C618
E738
7FF0
39E0
ENDCHAR
STARTCHAR 047D
ENCODING 1149
SWIDTH 583 0
DWIDTH 14 0
BBX 12 17 1 0
BITMAP
1FE0
1FE0
0600
0600
36C0
74E0
E030
C030
C030
C030
C630
C630
C630
C630
C630
7FF0
39E0
ENDCHAR
STARTCHAR 047E
ENCODING 1150
SWIDTH 583 0
DWIDTH 14 0
BBX 12 22 1 0
BITMAP
3FC0
3FC0
0600
0600
0000
C630
C630
C630
C630
C630
C630
C630
C630
C630
C630
C630
C630
C630
C630
C730
7FF0
39E0
ENDCHAR
STARTCHAR 047F
ENCODING 1151
SWIDTH 583 0
DWIDTH 14 0
BBX 12 17 1 0
BITMAP
3FE0
3FE0
0600
0000
C630
C630
C630
C630
C630
C630
C630
C630
C630
C630
C630
7FF0
39E0
ENDCHAR
STARTCHAR 0480
ENCODING 1152
SWIDTH 583 0
DWIDTH 14 0
BBX 11 22 2 -5
BITMAP
1F00
3FC0
70C0
6060
E060
C060
C000
C000
C000
C000
C000
C000
C000
6000
7000
3800
1F00
0700
0300
0300
0300
0300
ENDCHAR
STARTCHAR 0481
ENCODING 1153
SWIDTH 583 0
DWIDTH 14 0
BBX 10 18 2 -5
BITMAP
1F00
3F80
71C0
60C0
C0C0
C000
C000
C000
C000
E000
6000
7000
3E00
0E00
0600
0600
0600
0600
ENDCHAR
STARTCHAR 0482
ENCODING 1154
SWIDTH 583 0
DWIDTH 14 0
BBX 11 16 2 0
BITMAP
0060
00C0
10C0
1D80
0F00
0380
06E0
0660
8C00
EC00
3800
1C00
3700
3300
6000
C000
ENDCHAR
STARTCHAR 0483
ENCODING 1155
SWIDTH 583 0
DWIDTH 14 0
BBX 8 4 2 14
BITMAP
FF
FF
C0
C0
ENDCHAR
STARTCHAR 0484
ENCODING 1156
SWIDTH 583 0
DWIDTH 14 0
BBX 9 3 3 15
BITMAP
0F00
FF80
F180
ENDCHAR
STARTCHAR 0485
ENCODING 1157
SWIDTH 583 0
DWIDTH 14 0
BBX 3 3 5 15
BITMAP
C0
C0
60
ENDCHAR
STARTCHAR 0486
ENCODING 1158
SWIDTH 583 0
DWIDTH 14 0
BBX 2 3 7 15
BITMAP
C0
C0
80
ENDCHAR
STARTCHAR 0488
ENCODING 1160
SWIDTH 583 0
DWIDTH 14 0
BBX 23 21 -4 -4
BITMAP
003800
004C00
004C00
000000
1C0070
360098
000000
000000
000000
000000
70001C
D80026
000000
000000
000000
000000
1C00F0
260090
000000
003800
004C00
ENDCHAR
STARTCHAR 0489
ENCODING 1161
SWIDTH 625 0
DWIDTH 15 0
BBX 22 22 -4 -5
BITMAP
001000
001000
003000
183000
080060
0C01C0
040000
000000
000000
000000
F00030
30003C
000000
000000
000000
000000
040080
1C00C0
103040
003040
002000
002000
ENDCHAR
STARTCHAR 048A
ENCODING 1162
SWIDTH 625 0
DWIDTH 15 0
BBX 13 26 2 -4
BITMAP
3180
3180
1F00
0E00
0000
C060
C0E0
C1E0
C1E0
C3E0
C360
C760
C660
CE60
CC60
DC60
D860
F860
F060
F060
E078
C078
0018
0018
0030
0030
ENDCHAR
STARTCHAR 048B
ENCODING 1163
SWIDTH 625 0
DWIDTH 15 0
BBX 13 22 2 -4
BITMAP
2100
3300
3F00
0C00
0000
C0C0
C1C0
C3C0
C3C0
C6C0
C6C0
CCC0
DCC0
D8C0
F0C0
F0C0
E0D8
C0D8
0018
0018
0030
0060
ENDCHAR
STARTCHAR 048C
ENCODING 1164
SWIDTH 625 0
DWIDTH 15 0
BBX 13 17 0 0
BITMAP
1800
1800
FE00
FE00
1800
1800
1800
1FC0
1FF0
1838
1818
1818
1818
1818
1838
1FF0
1FC0
ENDCHAR
STARTCHAR 048D
ENCODING 1165
SWIDTH 625 0
DWIDTH 15 0
BBX 12 13 1 0
BITMAP
3000
3000
FE00
FE00
3000
3FC0
3FE0
3070
3030
3030
3070
3FE0
3FC0
ENDCHAR
STARTCHAR 048E
ENCODING 1166
SWIDTH 583 0
DWIDTH 14 0
BBX 11 17 2 0
BITMAP
FF00
FFC0
C0E0
C060
C060
C060
C660
C6E0
FFC0
FF80
C1C0
C0C0
C000
C000
C000
C000
C000
ENDCHAR
STARTCHAR 048F
ENCODING 1167
SWIDTH 625 0
DWIDTH 15 0
BBX 11 18 2 -5
BITMAP
DF00
FF80
E1C0
C0E0
C060
C060
C060
C060
C260
C7E0
E3C0
FFC0
DFE0
C040
C000
C000
C000
C000
ENDCHAR
STARTCHAR 0490
ENCODING 1168
SWIDTH 625 0
DWIDTH 15 0
BBX 11 21 2 0
BITMAP
0060
0060
0060
0060
FFE0
FFE0
C000
C000
C000
C000
C000
C000
C000
C000
C000
C000
C000
C000
C000
C000
C000
ENDCHAR
STARTCHAR 0491
ENCODING 1169
SWIDTH 583 0
DWIDTH 14 0
BBX 10 17 2 0
BITMAP
00C0
00C0
00C0
00C0
FFC0
FFC0
C000
C000
C000
C000
C000
C000
C000
C000
C000
C000
C000
ENDCHAR
STARTCHAR 0492
ENCODING 1170
SWIDTH 583 0
DWIDTH 14 0
BBX 13 17 0 0
BITMAP
3FF8
3FF8
3000
3000
3000
3000
3000
FE00
FE00
3000
3000
3000
3000
3000
3000
3000
3000
ENDCHAR
STARTCHAR 0493
ENCODING 1171
SWIDTH 583 0
DWIDTH 14 0
BBX 13 13 0 0
BITMAP
3FF8
3FF8
3000
3000
3000
FE00
FE00
3000
3000
3000
3000
3000
3000
ENDCHAR
STARTCHAR 0494
ENCODING 1172
SWIDTH 583 0
DWIDTH 14 0
BBX 11 21 2 -4
BITMAP
FFC0
FFC0
C000
C000
C000
C000
C000
FE00
FF80
C1C0
C0C0
C060
C060
C060
C060
C060
C060
00E0
01C0
0380
0300
ENDCHAR
STARTCHAR 0495
ENCODING 1173
SWIDTH 583 0
DWIDTH 14 0
BBX 11 16 2 -3
BITMAP
FFE0
FFE0
C000
C000
C000
FE00
FF80
C1C0
C0E0
C060
C060
C060
C0E0
00C0
03C0
0300
ENDCHAR
STARTCHAR 0496
ENCODING 1174
SWIDTH 625 0
DWIDTH 15 0
BBX 15 21 0 -4
BITMAP
6318
7318
7338
3330
3330
3B70
1B60
1FE0
1FE0
1B60
3B70
3B30
3330
7338
7318
631E
E31E
0006
0006
0006
0006
ENDCHAR
STARTCHAR 0497
ENCODING 1175
SWIDTH 625 0
DWIDTH 15 0
BBX 15 17 0 -4
BITMAP
631C
7318
3338
3330
1B70
1B60
0FE0
1FE0
1B70
3330
3338
731E
E31E
0006
0006
0006
0006
ENDCHAR
STARTCHAR 0498
ENCODING 1176
SWIDTH 583 0
DWIDTH 14 0
BBX 12 22 1 -5
BITMAP
1F80
7FE0
E070
C030
0030
0030
0060
0FC0
0FE0
0070
0030
0030
C030
E030
7060
7FE0
1F80
0600
0600
0600
0600
0600
ENDCHAR
STARTCHAR 0499
ENCODING 1177
SWIDTH 583 0
DWIDTH 14 0
BBX 11 18 1 -5
BITMAP
1F80
7FC0
70E0
E060
0060
1FC0
1FC0
00E0
0060
6060
70E0
3FC0
1F80
0600
0600
0600
0600
0600
ENDCHAR
STARTCHAR 049A
ENCODING 1178
SWIDTH 625 0
DWIDTH 15 0
BBX 13 21 2 -4
BITMAP
C070
C0E0
C0C0
C180
C380
C700
C600
FC00
FC00
C600
C700
C380
C180
C1C0
C0E0
C078
C078
0018
0018
0018
0018
ENDCHAR
STARTCHAR 049B
ENCODING 1179
SWIDTH 625 0
DWIDTH 15 0
BBX 12 17 2 -4
BITMAP
C0E0
C0C0
C180
C380
C700
CE00
FC00
FE00
C700
C380
C180
C0F0
C070
0030
0030
0030
0030
ENDCHAR
STARTCHAR 049C
ENCODING 1180
SWIDTH 583 0
DWIDTH 14 0
BBX 12 17 2 0
BITMAP
C070
C060
C0E0
C0C0
D9C0
D980
DB80
FF00
FF00
DB80
DB80
D9C0
C1C0
C0E0
C0E0
C070
C070
ENDCHAR
STARTCHAR 049D
ENCODING 1181
SWIDTH 625 0
DWIDTH 15 0
BBX 11 13 2 0
BITMAP
C0E0
C0C0
C1C0
D980
DB80
DB00
FE00
FF00
DB80
D980
C1C0
C0E0
C060
ENDCHAR
STARTCHAR 049E
ENCODING 1182
SWIDTH 583 0
DWIDTH 14 0
BBX 13 17 0 0
BITMAP
3038
3030
FE60
FEE0
30C0
3180
3380
3F00
3F00
3380
3180
30C0
30E0
3060
3030
3038
3018
ENDCHAR
STARTCHAR 049F
ENCODING 1183
SWIDTH 583 0
DWIDTH 14 0
BBX 13 18 0 0
BITMAP
1800
1800
FE00
FE00
1800
1870
18E0
18C0
1980
1B00
1E00
1F00
1D80
19C0
18C0
1860
1870
1838
ENDCHAR
STARTCHAR 04A0
ENCODING 1184
SWIDTH 625 0
DWIDTH 15 0
BBX 13 17 1 0
BITMAP
FC38
FC30
0C30
0C60
0C60
0CE0
0CC0
0FC0
0FC0
0CC0
0CE0
0C60
0C70
0C70
0C30
0C38
0C18
ENDCHAR
STARTCHAR 04A1
ENCODING 1185
SWIDTH 625 0
DWIDTH 15 0
BBX 13 13 1 0
BITMAP
FC38
FC30
0C70
0C60
0CE0
0CC0
0F80
0FC0
0CE0
0C60
0C70
0C38
0C18
ENDCHAR
STARTCHAR 04A2
ENCODING 1186
SWIDTH 625 0
DWIDTH 15 0
BBX 12 21 2 -4
BITMAP
C060
C060
C060
C060
C060
C060
C060
FFE0
FFE0
C060
C060
C060
C060
C060
C060
C070
C070
0030
0030
0030
0030
ENDCHAR
STARTCHAR 04A3
ENCODING 1187
SWIDTH 625 0
DWIDTH 15 0
BBX 12 17 2 -4
BITMAP
C0C0
C0C0
C0C0
C0C0
C0C0
C0C0
FFC0
FFC0
C0C0
C0C0
C0C0
C0F0
C0F0
0030
0030
0030
0030
ENDCHAR
STARTCHAR 04A4
ENCODING 1188
SWIDTH 583 0
DWIDTH 14 0
BBX 13 17 1 0
BITMAP
C1F8
C1F8
C180
C180
C180
C180
C180
FF80
FF80
C180
C180
C180
C180
C180
C180
C180
C180
ENDCHAR
STARTCHAR 04A5
ENCODING 1189
SWIDTH 583 0
DWIDTH 14 0
BBX 13 13 1 0
BITMAP
C1F8
C1F8
C180
C180
C180
C180
FF80
FF80
C180
C180
C180
C180
C180
ENDCHAR
STARTCHAR 04A6
ENCODING 1190
SWIDTH 583 0
DWIDTH 14 0
BBX 12 21 1 -4
BITMAP
FE00
FE00
C600
C600
C600
C600
C600
C780
C7C0
C660
C670
C630
C630
C630
C630
C630
C630
0030
0060
00E0
0080
ENDCHAR
STARTCHAR 04A7
ENCODING 1191
SWIDTH 583 0
DWIDTH 14 0
BBX 12 16 1 -3
BITMAP
FE00
FE00
C600
C600
C600
C780
C7C0
C660
C670
C630
C630
C630
C630
0070
00E0
00C0
ENDCHAR
STARTCHAR 04A8
ENCODING 1192
SWIDTH 583 0
DWIDTH 14 0
BBX 12 17 1 0
BITMAP
33C0
77E0
6660
CC30
CC30
CC30
CC30
CC30
CC30
CC30
CC30
CC30
E670
6760
73E0
3FF0
0F70
ENDCHAR
STARTCHAR 04A9
ENCODING 1193
SWIDTH 583 0
DWIDTH 14 0
BBX 13 13 1 0
BITMAP
31C0
73E0
6670
C630
C630
C630
C630
C630
E670
6360
73E0
3FF8
0F78
ENDCHAR
STARTCHAR 04AA
ENCODING 1194
SWIDTH 583 0
DWIDTH 14 0
BBX 12 22 1 -5
BITMAP
0F80
3FC0
70E0
6060
E030
C000
C000
C000
C000
C000
C000
C000
E030
6060
70E0
3FC0
0F80
0600
0600
0600
0600
0600
ENDCHAR
STARTCHAR 04AB
ENCODING 1195
SWIDTH 625 0
DWIDTH 15 0
BBX 11 18 2 -5
BITMAP
1F00
3FC0
70C0
E060
C060
C000
C000
C000
C000
E060
70E0
3FC0
1F00
0600
0600
0600
0600
0600
ENDCHAR
STARTCHAR 04AC
ENCODING 1196
SWIDTH 625 0
DWIDTH 15 0
BBX 13 21 1 -4
BITMAP
FFF8
FFF8
0600
0600
0600
0600
0600
0600
0600
0600
0600
0600
0600
0600
0600
0780
0780
0180
0180
0180
0180
ENDCHAR
STARTCHAR 04AD
ENCODING 1197
SWIDTH 583 0
DWIDTH 14 0
BBX 12 17 1 -4
BITMAP
FFF0
FFF0
0600
0600
0600
0600
0600
0600
0600
0600
0600
0780
0780
0180
0180
0180
0180
ENDCHAR
STARTCHAR 04AE
ENCODING 1198
SWIDTH 583 0
DWIDTH 14 0
BBX 12 17 1 0
BITMAP
C030
E070
6060
70E0
30C0
38C0
1980
1D80
0F00
0F00
0600
0600
0600
0600
0600
0600
0600
ENDCHAR
STARTCHAR 04AF
ENCODING 1199
SWIDTH 583 0
DWIDTH 14 0
BBX 12 18 1 -5
BITMAP
C030
C030
6060
6060
30E0
30C0
38C0
1980
1980
0F00
0F00
0700
0600
0600
0600
0600
0600
0600
ENDCHAR
STARTCHAR 04B0
ENCODING 1200
SWIDTH 583 0
DWIDTH 14 0
BBX 11 17 1 0
BITMAP
C060
E060
60E0
70C0
31C0
3180
1980
1B00
0F00
3F80
3F80
0600
0600
0600
0600
0600
0600
ENDCHAR
STARTCHAR 04B1
ENCODING 1201
SWIDTH 583 0
DWIDTH 14 0
BBX 13 18 1 -5
BITMAP
E038
6030
7030
3060
3060
1860
18C0
0CC0
0D80
0780
0780
1FC0
1FC0
0300
0300
0300
0300
0300
ENDCHAR
STARTCHAR 04B2
ENCODING 1202
SWIDTH 625 0
DWIDTH 15 0
BBX 13 21 2 -4
BITMAP
C070
E060
70E0
30C0
3980
1B80
1F00
0F00
0600
0F00
1F00
1980
3980
30C0
60E0
E078
C078
0018
0018
0018
0018
ENDCHAR
STARTCHAR 04B3
ENCODING 1203
SWIDTH 583 0
DWIDTH 14 0
BBX 12 17 1 -4
BITMAP
6070
70E0
30C0
1980
1F80
0F00
0600
0F00
1F80
19C0
30C0
7070
E070
0030
0030
0030
0030
ENDCHAR
STARTCHAR 04B4
ENCODING 1204
SWIDTH 625 0
DWIDTH 15 0
BBX 13 21 1 -4
BITMAP
FF30
FF30
1830
1830
1830
1830
1830
1830
1830
1830
1830
1830
1830
1830
1830
1FF8
1FF8
0018
0018
0018
0018
ENDCHAR
STARTCHAR 04B5
ENCODING 1205
SWIDTH 625 0
DWIDTH 15 0
BBX 13 17 1 -4
BITMAP
FF60
FF60
1860
1860
1860
1860
1860
1860
1860
1860
1860
1FF8
1FF8
0018
0018
0018
0018
ENDCHAR
STARTCHAR 04B6
ENCODING 1206
SWIDTH 625 0
DWIDTH 15 0
BBX 12 21 2 -4
BITMAP
C0C0
C0C0
C0C0
C0C0
C0C0
C0C0
C0C0
C0C0
60C0
7FC0
1EC0
00C0
00C0
00C0
00C0
00F0
00F0
0030
0030
0030
0030
ENDCHAR
STARTCHAR 04B7
ENCODING 1207
SWIDTH 625 0
DWIDTH 15 0
BBX 12 17 2 -4
BITMAP
C060
C060
C060
C060
C060
C060
6060
7FE0
1F60
0060
0060
0070
0070
0030
0030
0030
0030
ENDCHAR
STARTCHAR 04B8
ENCODING 1208
SWIDTH 583 0
DWIDTH 14 0
BBX 10 17 2 0
BITMAP
C0C0
C0C0
C0C0
C0C0
C0C0
CCC0
CCC0
CCC0
6CC0
7FC0
1EC0
0CC0
0CC0
0CC0
00C0
00C0
00C0
ENDCHAR
STARTCHAR 04B9
ENCODING 1209
SWIDTH 625 0
DWIDTH 15 0
BBX 11 13 2 0
BITMAP
C060
C060
C060
C060
CC60
CC60
6C60
7FE0
1F60
0C60
0C60
0060
0060
ENDCHAR
STARTCHAR 04BA
ENCODING 1210
SWIDTH 583 0
DWIDTH 14 0
BBX 10 17 3 0
BITMAP
C000
C000
C000
C000
C000
C000
DE00
FF80
E1C0
C0C0
C0C0
C0C0
C0C0
C0C0
C0C0
C0C0
C0C0
ENDCHAR
STARTCHAR 04BB
ENCODING 1211
SWIDTH 583 0
DWIDTH 14 0
BBX 10 18 2 0
BITMAP
C000
C000
C000
C000
C000
CF00
DF80
E1C0
C0C0
C0C0
C0C0
C0C0
C0C0
C0C0
C0C0
C0C0
C0C0
C0C0
ENDCHAR
STARTCHAR 04BC
ENCODING 1212
SWIDTH 625 0
DWIDTH 15 0
BBX 13 17 1 0
BITMAP
03E0
07F0
0C30
0C18
D818
D818
F818
7FF8
3FF8
1800
1800
1800
1800
0C00
0E00
07F8
03F0
ENDCHAR
STARTCHAR 04BD
ENCODING 1213
SWIDTH 625 0
DWIDTH 15 0
BBX 13 13 1 0
BITMAP
03E0
07F0
0E38
DC18
F818
7FF8
3FF8
1800
1800
1C00
0E10
07F8
03E0
ENDCHAR
STARTCHAR 04BE
ENCODING 1214
SWIDTH 625 0
DWIDTH 15 0
BBX 13 22 1 -5
BITMAP
03E0
07F0
0C30
0C18
D818
D818
F818
7FF8
3FF8
1800
1800
1800
1800
0C00
0E00
07F8
03F0
00C0
00C0
00C0
00C0
00C0
ENDCHAR
STARTCHAR 04BF
ENCODING 1215
SWIDTH 625 0
DWIDTH 15 0
BBX 13 18 1 -5
BITMAP
03E0
07F0
0C38
DC18
F818
7FF8
1FF8
1800
1800
1C00
0E10
07F8
03E0
00C0
00C0
00C0
00C0
00C0
ENDCHAR
STARTCHAR 04C0
ENCODING 1216
SWIDTH 583 0
DWIDTH 14 0
BBX 10 17 2 0
BITMAP
FFC0
FFC0
0C00
0C00
0C00
0C00
0C00
0C00
0C00
0C00
0C00
0C00
0C00
0C00
0C00
FFC0
FFC0
ENDCHAR
STARTCHAR 04C1
ENCODING 1217
SWIDTH 583 0
DWIDTH 14 0
BBX 14 22 0 0
BITMAP
0C40
0FC0
0780
0000
0000
6318
6338
7330
3330
3330
3B60
1B60
1FE0
1FE0
1B60
3B60
3370
3330
7330
6338
6318
E31C
ENDCHAR
STARTCHAR 04C2
ENCODING 1218
SWIDTH 583 0
DWIDTH 14 0
BBX 14 18 0 0
BITMAP
0840
0CC0
0FC0
0700
0000
6318
7338
3330
3330
1B70
1B60
1FE0
1FE0
1B60
3330
3338
7318
E31C
ENDCHAR
STARTCHAR 04C3
ENCODING 1219
SWIDTH 583 0
DWIDTH 14 0
BBX 11 21 2 -4
BITMAP
C0E0
C0C0
C180
C380
C300
C600
CE00
FC00
FF00
C1C0
C0C0
C060
C060
C060
C060
C060
C060
00E0
01C0
0380
0300
ENDCHAR
STARTCHAR 04C4
ENCODING 1220
SWIDTH 583 0
DWIDTH 14 0
BBX 10 16 2 -3
BITMAP
C1C0
C180
C300
C600
C600
CC00
FF00
FF80
C1C0
C0C0
C0C0
C0C0
C0C0
0180
0780
0300
ENDCHAR
STARTCHAR 04C5
ENCODING 1221
SWIDTH 583 0
DWIDTH 14 0
BBX 14 21 0 -4
BITMAP
1FF0
1FF0
1830
1830
1830
1830
1830
1830
1830
1830
1830
1830
1830
1830
3830
F03C
E03C
000C
000C
000C
0018
ENDCHAR
STARTCHAR 04C6
ENCODING 1222
SWIDTH 583 0
DWIDTH 14 0
BBX 14 17 0 -4
BITMAP
1FF0
1FF0
1830
1830
1830
1830
1830
1830
1830
1830
3830
F03C
E03C
000C
000C
000C
0018
ENDCHAR
STARTCHAR 04C7
ENCODING 1223
SWIDTH 583 0
DWIDTH 14 0
BBX 10 22 2 -5
BITMAP
C0C0
C0C0
C0C0
C0C0
C0C0
C0C0
C0C0
FFC0
FFC0
C0C0
C0C0
C0C0
C0C0
C0C0
C0C0
C0C0
C0C0
00C0
00C0
00C0
07C0
0780
ENDCHAR
STARTCHAR 04C8
ENCODING 1224
SWIDTH 583 0
DWIDTH 14 0
BBX 10 18 2 -5
BITMAP
C0C0
C0C0
C0C0
C0C0
C0C0
C0C0
FFC0
FFC0
C0C0
C0C0
C0C0
C0C0
C0C0
00C0
00C0
00C0
0780
0700
ENDCHAR
STARTCHAR 04C9
ENCODING 1225
SWIDTH 625 0
DWIDTH 15 0
BBX 13 21 2 -4
BITMAP
C060
C060
C060
C060
C060
C060
C060
FFE0
FFE0
C060
C060
C060
C060
C060
C060
C078
C078
0018
0018
0030
0030
ENDCHAR
STARTCHAR 04CA
ENCODING 1226
SWIDTH 625 0
DWIDTH 15 0
BBX 13 17 2 -4
BITMAP
C0C0
C0C0
C0C0
C0C0
C0C0
C0C0
FFC0
FFC0
C0C0
C0C0
C0C0
C0D8
C0D8
0018
0018
0030
0060
ENDCHAR
STARTCHAR 04CB
ENCODING 1227
SWIDTH 583 0
DWIDTH 14 0
BBX 10 21 2 -4
BITMAP
C0C0
C0C0
C0C0
C0C0
C0C0
C0C0
C0C0
C0C0
60C0
7FC0
1EC0
00C0
00C0
00C0
00C0
01C0
01C0
0180
0180
0180
0180
ENDCHAR
STARTCHAR 04CC
ENCODING 1228
SWIDTH 625 0
DWIDTH 15 0
BBX 11 17 2 -4
BITMAP
C060
C060
C060
C060
C060
C060
6060
7FE0
1F60
0060
0060
01E0
01E0
0180
0180
0180
0180
ENDCHAR
STARTCHAR 04CD
ENCODING 1229
SWIDTH 625 0
DWIDTH 15 0
BBX 13 21 2 -4
BITMAP
E0E0
E0E0
F0E0
F1E0
D1E0
DB60
DB60
DB60
CE60
CE60
CE60
C460
C060
C060
C060
C078
C078
0018
0018
0018
0030
ENDCHAR
STARTCHAR 04CE
ENCODING 1230
SWIDTH 625 0
DWIDTH 15 0
BBX 13 17 2 -4
BITMAP
E0E0
E0E0
F0E0
F1E0
F1E0
F1E0
DB60
DB60
DB60
CA60
CE60
CE78
C478
0018
0018
0030
0030
ENDCHAR
STARTCHAR 04CF
ENCODING 1231
SWIDTH 583 0
DWIDTH 14 0
BBX 10 17 2 0
BITMAP
FFC0
FFC0
0C00
0C00
0C00
0C00
0C00
0C00
0C00
0C00
0C00
0C00
0C00
0C00
0C00
FFC0
FFC0
ENDCHAR
STARTCHAR 04D0
ENCODING 1232
SWIDTH 625 0
DWIDTH 15 0
BBX 13 22 1 0
BITMAP
18C0
1FC0
0F80
0000
0000
0700
0700
0700
0F80
0D80
0D80
1D80
18C0
18C0
18C0
3060
3FE0
3FE0
6070
6030
6030
C038
ENDCHAR
STARTCHAR 04D1
ENCODING 1233
SWIDTH 583 0
DWIDTH 14 0
BBX 11 18 2 0
BITMAP
3180
3F00
1E00
0000
0000
1F00
7F80
61C0
E0C0
00C0
07C0
7FC0
60C0
C0C0
C0C0
E1C0
7FC0
3EE0
ENDCHAR
STARTCHAR 04D2
ENCODING 1234
SWIDTH 583 0
DWIDTH 14 0
BBX 12 21 2 0
BITMAP
3180
3180
0000
0000
0E00
0E00
0E00
0F00
1B00
1B00
1980
3180
3180
31C0
60C0
7FC0
7FC0
E060
C060
C060
C070
ENDCHAR
STARTCHAR 04D3
ENCODING 1235
SWIDTH 583 0
DWIDTH 14 0
BBX 11 17 2 0
BITMAP
3180
3180
0000
0000
1F00
7F80
61C0
C0C0
00C0
1FC0
7FC0
E0C0
C0C0
C0C0
E1C0
7FC0
3EE0
ENDCHAR
STARTCHAR 04D4
ENCODING 1236
SWIDTH 625 0
DWIDTH 15 0
BBX 13 17 1 0
BITMAP
03F8
03F8
0780
0780
0D80
0D80
0D80
19F8
19F8
3980
3180
3F80
7F80
6180
6180
C1F8
C1F8
ENDCHAR
STARTCHAR 04D5
ENCODING 1237
SWIDTH 625 0
DWIDTH 15 0
BBX 13 13 1 0
BITMAP
3DE0
7FF0
E718
0618
0618
3FF8
7FF8
E600
C600
C600
C700
FFF8
79F0
ENDCHAR
STARTCHAR 04D6
ENCODING 1238
SWIDTH 583 0
DWIDTH 14 0
BBX 11 22 2 0
BITMAP
2100
3F00
1E00
0000
0000
FFE0
FFE0
C000
C000
C000
C000
C000
FFC0
FFC0
C000
C000
C000
C000
C000
C000
FFE0
FFE0
ENDCHAR
STARTCHAR 04D7
ENCODING 1239
SWIDTH 625 0
DWIDTH 15 0
BBX 11 19 2 0
BITMAP
3180
3180
1F80
0F00
0000
0000
1F00
3FC0
70C0
6060
C060
FFE0
FFE0
C000
C000
E000
7060
3FC0
1F80
ENDCHAR
STARTCHAR 04D8
ENCODING 1240
SWIDTH 583 0
DWIDTH 14 0
BBX 12 17 1 0
BITMAP
1F00
3FC0
20E0
0060
0070
0030
0030
0030
FFF0
FFF0
C030
C030
C070
6060
70E0
3FC0
1F00
ENDCHAR
STARTCHAR 04D9
ENCODING 1241
SWIDTH 583 0
DWIDTH 14 0
BBX 11 13 2 0
BITMAP
3F00
FF80
41C0
00C0
0060
0060
FFE0
FFE0
C060
C0C0
61C0
7F80
1F00
ENDCHAR
STARTCHAR 04DA
ENCODING 1242
SWIDTH 583 0
DWIDTH 14 0
BBX 12 21 1 0
BITMAP
18C0
18C0
18C0
0000
1F00
3FC0
20E0
0060
0070
0030
0030
0030
FFF0
FFF0
C030
C030
C070
6060
70E0
3FC0
1F00
ENDCHAR
STARTCHAR 04DB
ENCODING 1243
SWIDTH 583 0
DWIDTH 14 0
BBX 11 17 2 0
BITMAP
3180
3180
0000
0000
3F00
FF80
41C0
00C0
00E0
0060
FFE0
FFE0
C0E0
C0C0
61C0
7F80
1F00
ENDCHAR
STARTCHAR 04DC
ENCODING 1244
SWIDTH 583 0
DWIDTH 14 0
BBX 13 21 1 0
BITMAP
18C0
18C0
0000
0000
E330
6330
6330
7360
3360
3360
3340
1FC0
1FC0
33C0
3360
3360
7370
6370
6330
E338
E338
ENDCHAR
STARTCHAR 04DD
ENCODING 1245
SWIDTH 583 0
DWIDTH 14 0
BBX 13 17 0 0
BITMAP
18C0
18C0
0000
0000
6338
6330
7330
3360
3360
1B40
1FC0
1FC0
3360
3360
7330
6338
E318
ENDCHAR
STARTCHAR 04DE
ENCODING 1246
SWIDTH 583 0
DWIDTH 14 0
BBX 12 22 1 0
BITMAP
18C0
18C0
0000
0000
0000
1F80
7FE0
E070
C030
0030
0030
0060
0FC0
0FE0
0070
0030
0030
C030
E030
7060
7FE0
1F80
ENDCHAR
STARTCHAR 04DF
ENCODING 1247
SWIDTH 625 0
DWIDTH 15 0
BBX 11 17 2 0
BITMAP
3180
3180
3180
0000
1F80
7FC0
E0E0
C060
0060
1FC0
1FC0
00E0
0060
C060
E0E0
7FC0
1F80
ENDCHAR
STARTCHAR 04E0
ENCODING 1248
SWIDTH 625 0
DWIDTH 15 0
BBX 11 17 2 0
BITMAP
7FE0
7FE0
01C0
0180
0300
0600
0C00
0F00
0FC0
00E0
0060
0060
C060
C060
60E0
7FC0
1F00
ENDCHAR
STARTCHAR 04E1
ENCODING 1249
SWIDTH 625 0
DWIDTH 15 0
BBX 11 18 2 -5
BITMAP
7FE0
7FE0
01C0
0180
0380
0700
0600
0C00
0F00
0FC0
00E0
0060
0060
C060
C060
60E0
7FC0
1F00
ENDCHAR
STARTCHAR 04E2
ENCODING 1250
SWIDTH 625 0
DWIDTH 15 0
BBX 11 21 2 0
BITMAP
7F80
7F80
0000
0000
C060
C0E0
C1E0
C1E0
C3E0
C360
C760
C660
CE60
CC60
DC60
D860
F860
F060
F060
E060
C060
ENDCHAR
STARTCHAR 04E3
ENCODING 1251
SWIDTH 583 0
DWIDTH 14 0
BBX 10 17 2 0
BITMAP
7F80
7F80
0000
0000
C0C0
C1C0
C3C0
C3C0
C6C0
C6C0
CCC0
DCC0
D8C0
F0C0
F0C0
E0C0
C0C0
ENDCHAR
STARTCHAR 04E4
ENCODING 1252
SWIDTH 625 0
DWIDTH 15 0
BBX 11 21 2 0
BITMAP
3180
3180
0000
0000
C060
C0E0
C1E0
C1E0
C3E0
C360
C760
C660
CE60
CC60
DC60
D860
F860
F060
F060
E060
C060
ENDCHAR
STARTCHAR 04E5
ENCODING 1253
SWIDTH 583 0
DWIDTH 14 0
BBX 10 17 2 0
BITMAP
3180
3180
0000
0000
C0C0
C1C0
C3C0
C3C0
C6C0
C6C0
CCC0
DCC0
D8C0
F0C0
F0C0
E0C0
C0C0
ENDCHAR
STARTCHAR 04E6
ENCODING 1254
SWIDTH 583 0
DWIDTH 14 0
BBX 12 22 1 0
BITMAP
18C0
18C0
0000
0000
0000
0F00
3FC0
70E0
6060
E070
C030
C030
C030
C030
C030
C030
C030
E070
6060
70E0
3FC0
0F00
ENDCHAR
STARTCHAR 04E7
ENCODING 1255
SWIDTH 583 0
DWIDTH 14 0
BBX 11 17 1 0
BITMAP
3180
3180
0000
0000
1F00
3F80
70C0
E0E0
C060
C060
C060
C060
C060
E0E0
70C0
3F80
1F00
ENDCHAR
STARTCHAR 04E8
ENCODING 1256
SWIDTH 583 0
DWIDTH 14 0
BBX 12 17 1 0
BITMAP
0F00
3FC0
70E0
6060
E070
C030
C030
FFF0
FFF0
C030
C030
C030
E070
6060
70E0
3FC0
0F00
ENDCHAR
STARTCHAR 04E9
ENCODING 1257
SWIDTH 625 0
DWIDTH 15 0
BBX 12 13 1 0
BITMAP
1F80
3FC0
70E0
6060
C030
FFF0
FFF0
C030
E070
6060
70E0
3FC0
1F80
ENDCHAR
STARTCHAR 04EA
ENCODING 1258
SWIDTH 583 0
DWIDTH 14 0
BBX 12 21 1 0
BITMAP
18C0
18C0
0000
0000
0F00
3FC0
70E0
6060
E070
C030
C030
FFF0
FFF0
C030
C030
C030
E070
6060
70E0
3FC0
0F00
ENDCHAR
STARTCHAR 04EB
ENCODING 1259
SWIDTH 625 0
DWIDTH 15 0
BBX 12 18 1 0
BITMAP
3180
3180
0000
0000
0000
1F80
3FC0
70E0
6060
C070
FFF0
FFF0
C070
E070
60E0
70E0
3FC0
1F80
ENDCHAR
STARTCHAR 04EC
ENCODING 1260
SWIDTH 583 0
DWIDTH 14 0
BBX 12 22 1 0
BITMAP
3180
3180
0000
0000
0000
1F00
3FC0
60E0
E060
C030
0030
0030
0FF0
0FF0
0030
0030
C030
C070
E060
70E0
3FC0
1F00
ENDCHAR
STARTCHAR 04ED
ENCODING 1261
SWIDTH 625 0
DWIDTH 15 0
BBX 11 17 2 0
BITMAP
3180
3180
0000
0000
1F00
7F80
E1C0
C0C0
0060
0FE0
0FE0
0060
C0E0
C0C0
61C0
7F80
1F00
ENDCHAR
STARTCHAR 04EE
ENCODING 1262
SWIDTH 583 0
DWIDTH 14 0
BBX 13 21 0 0
BITMAP
1FE0
1FE0
0000
0000
E018
6038
7030
3070
3060
1860
18C0
1CC0
0DC0
0F80
0780
0700
0300
0600
0600
7C00
7800
ENDCHAR
STARTCHAR 04EF
ENCODING 1263
SWIDTH 583 0
DWIDTH 14 0
BBX 12 22 1 -5
BITMAP
3FC0
3FC0
0000
0000
C070
E060
6060
60C0
70C0
31C0
3980
1980
1B00
0F00
0E00
0600
0600
0C00
0C00
1800
7800
F000
ENDCHAR
STARTCHAR 04F0
ENCODING 1264
SWIDTH 583 0
DWIDTH 14 0
BBX 13 22 1 0
BITMAP
18C0
18C0
0000
0000
0000
C038
E030
6070
7060
3060
38E0
18C0
19C0
1D80
0D80
0F00
0700
0700
0600
0E00
7C00
F800
ENDCHAR
STARTCHAR 04F1
ENCODING 1265
SWIDTH 583 0
DWIDTH 14 0
BBX 12 22 1 -5
BITMAP
18C0
18C0
0000
0000
E030
6030
7070
3060
30E0
38C0
18C0
1D80
0D80
0D80
0700
0700
0600
0600
0C00
0C00
7800
7000
ENDCHAR
STARTCHAR 04F2
ENCODING 1266
SWIDTH 583 0
DWIDTH 14 0
BBX 13 22 1 0
BITMAP
0370
06E0
0DC0
0000
0000
C038
E030
6030
7070
3060
30E0
18C0
19C0
1D80
0D80
0F00
0700
0700
0600
0E00
FC00
F800
ENDCHAR
STARTCHAR 04F3
ENCODING 1267
SWIDTH 583 0
DWIDTH 14 0
BBX 12 23 1 -5
BITMAP
0770
06E0
0D80
0000
0000
C030
E030
6060
7060
30E0
38C0
18C0
1980
0D80
0F00
0F00
0700
0600
0600
0C00
1C00
7800
7000
ENDCHAR
STARTCHAR 04F4
ENCODING 1268
SWIDTH 583 0
DWIDTH 14 0
BBX 10 21 2 0
BITMAP
6300
6300
0000
0000
C0C0
C0C0
C0C0
C0C0
C0C0
C0C0
C0C0
C0C0
60C0
7FC0
1EC0
00C0
00C0
00C0
00C0
00C0
00C0
ENDCHAR
STARTCHAR 04F5
ENCODING 1269
SWIDTH 625 0
DWIDTH 15 0
BBX 11 17 2 0
BITMAP
3180
3180
0000
0000
C060
C060
C060
C060
C060
C060
6060
7FE0
1F60
0060
0060
0060
0060
ENDCHAR
STARTCHAR 04F6
ENCODING 1270
SWIDTH 583 0
DWIDTH 14 0
BBX 11 21 2 -4
BITMAP
FFE0
FFE0
C000
C000
C000
C000
C000
C000
C000
C000
C000
C000
C000
C000
C000
F000
F000
3000
3000
3000
3000
ENDCHAR
STARTCHAR 04F7
ENCODING 1271
SWIDTH 583 0
DWIDTH 14 0
BBX 11 17 2 -4
BITMAP
FFE0
FFE0
C000
C000
C000
C000
C000
C000
C000
C000
C000
E000
E000
6000
6000
6000
6000
ENDCHAR
STARTCHAR 04F8
ENCODING 1272
SWIDTH 625 0
DWIDTH 15 0
BBX 11 21 2 0
BITMAP
3180
3180
0000
0000
C060
C060
C060
C060
C060
C060
C060
FC60
FE60
C760
C360
C360
C360
C360
C660
FE60
FC60
ENDCHAR
STARTCHAR 04F9
ENCODING 1273
SWIDTH 625 0
DWIDTH 15 0
BBX 11 17 2 0
BITMAP
18C0
18C0
0000
0000
C060
C060
C060
C060
C060
F860
FC60
C660
C660
C660
C660
FC60
F860
ENDCHAR
STARTCHAR 04FA
ENCODING 1274
SWIDTH 583 0
DWIDTH 14 0
BBX 13 22 1 -5
BITMAP
3FF8
3FF8
3000
3000
3000
3000
3000
FE00
FE00
3000
3000
3000
3000
3000
3000
3C00
3C00
0C00
0C00
0C00
7C00
7800
ENDCHAR
STARTCHAR 04FB
ENCODING 1275
SWIDTH 583 0
DWIDTH 14 0
BBX 13 18 1 -5
BITMAP
3FF8
3FF8
3000
3000
3000
FF00
FF00
3000
3000
3000
3000
3C00
3C00
0C00
0C00
1C00
7800
7000
ENDCHAR
STARTCHAR 04FC
ENCODING 1276
SWIDTH 583 0
DWIDTH 14 0
BBX 14 22 1 -5
BITMAP
E030
6070
3060
38C0
19C0
1D80
0F80
0F00
0700
0F00
0F80
1D80
18C0
30E0
7060
607C
E03C
000C
000C
000C
007C
0078
ENDCHAR
STARTCHAR 04FD
ENCODING 1277
SWIDTH 625 0
DWIDTH 15 0
BBX 12 18 2 -5
BITMAP
E060
60C0
71C0
3B80
1B00
0E00
0E00
0F00
1B00
3980
71C0
60F0
C070
0030
0030
0030
01F0
01E0
ENDCHAR
STARTCHAR 04FE
ENCODING 1278
SWIDTH 583 0
DWIDTH 14 0
BBX 11 17 2 0
BITMAP
C060
E0E0
60C0
3180
3180
1B00
1F00
3F80
3F80
0E00
1B00
1B80
3180
71C0
60C0
E0E0
C060
ENDCHAR
STARTCHAR 04FF
ENCODING 1279
SWIDTH 583 0
DWIDTH 14 0
BBX 11 13 1 0
BITMAP
E0E0
60C0
3180
1B80
1F00
3F80
3F80
0F00
1B00
3980
31C0
60C0
E060
ENDCHAR
STARTCHAR 0500
ENCODING 1280
SWIDTH 583 0
DWIDTH 14 0
BBX 11 17 1 0
BITMAP
0060
0060
0060
0060
0060
0060
0060
1FE0
7FE0
6060
C060
C060
C060
E060
6060
7FE0
1FE0
ENDCHAR
STARTCHAR 0501
ENCODING 1281
SWIDTH 625 0
DWIDTH 15 0
BBX 11 18 2 0
BITMAP
0060
0060
0060
0060
0060
1F60
3FE0
70E0
E060
C060
C060
C060
C060
C060
6060
70E0
3FE0
1F60
ENDCHAR
STARTCHAR 0502
ENCODING 1282
SWIDTH 625 0
DWIDTH 15 0
BBX 13 17 1 0
BITMAP
0300
0300
0300
0300
0300
0300
0300
3F30
7F38
E318
C318
C318
C318
C318
E330
7FF0
3FE0
ENDCHAR
STARTCHAR 0503
ENCODING 1283
SWIDTH 583 0
DWIDTH 14 0
BBX 12 19 1 0
BITMAP
0300
0300
0300
0300
0300
0300
3B00
7F00
6330
C330
C330
C330
C330
C330
C330
C330
E330
7FE0
39C0
ENDCHAR
STARTCHAR 0504
ENCODING 1284
SWIDTH 625 0
DWIDTH 15 0
BBX 14 17 0 0
BITMAP
FC00
FE00
0700
0300
0300
0300
0718
3E0C
3E0C
070C
030C
030C
030C
031C
0318
03F8
01E0
ENDCHAR
STARTCHAR 0505
ENCODING 1285
SWIDTH 583 0
DWIDTH 14 0
BBX 13 13 0 0
BITMAP
FC00
FE00
0700
0300
0330
0718
7E18
7E18
0318
0318
0338
03F0
01E0
ENDCHAR
STARTCHAR 0506
ENCODING 1286
SWIDTH 583 0
DWIDTH 14 0
BBX 11 21 2 -4
BITMAP
FC00
FF00
0380
0180
0180
0180
0180
0300
7E00
7F00
0380
0180
0180
0180
0180
01E0
01E0
0060
0060
00C0
00C0
ENDCHAR
STARTCHAR 0507
ENCODING 1287
SWIDTH 583 0
DWIDTH 14 0
BBX 10 17 2 -4
BITMAP
FC00
FE00
0700
0300
0300
0700
7C00
7E00
0300
0300
0300
03C0
03C0
00C0
01C0
0180
0180
ENDCHAR
STARTCHAR 0508
ENCODING 1288
SWIDTH 625 0
DWIDTH 15 0
BBX 14 17 0 0
BITMAP
1FC0
1FC0
18C0
18C0
18C0
18C0
18CC
18CC
18CC
18CC
18CC
18CC
18CC
18CC
30DC
F0F8
E070
ENDCHAR
STARTCHAR 0509
ENCODING 1289
SWIDTH 583 0
DWIDTH 14 0
BBX 13 13 0 0
BITMAP
3F80
3F80
3180
3198
3198
3198
3198
3198
3198
3198
3198
E1F0
E0E0
ENDCHAR
STARTCHAR 050A
ENCODING 1290
SWIDTH 583 0
DWIDTH 14 0
BBX 12 17 1 0
BITMAP
C300
C300
C300
C300
C300
C300
C330
FF30
FF30
C330
C330
C330
C330
C330
C370
C3E0
C1C0
ENDCHAR
STARTCHAR 050B
ENCODING 1291
SWIDTH 583 0
DWIDTH 14 0
BBX 12 13 1 0
BITMAP
C600
C600
C660
C630
C630
FE30
FE30
C630
C630
C630
C660
C7E0
C3C0
ENDCHAR
STARTCHAR 050C
ENCODING 1292
SWIDTH 625 0
DWIDTH 15 0
BBX 12 17 2 0
BITMAP
0F80
3FC0
7000
6000
E000
C000
C000
C000
C060
C030
C030
C030
E030
6070
7060
3FE0
0F80
ENDCHAR
STARTCHAR 050D
ENCODING 1293
SWIDTH 583 0
DWIDTH 14 0
BBX 11 13 2 0
BITMAP
1F80
3F80
7000
6000
C000
C000
C000
C060
C060
6060
70E0
3FC0
0F80
ENDCHAR
STARTCHAR 050E
ENCODING 1294
SWIDTH 625 0
DWIDTH 15 0
BBX 13 17 1 0
BITMAP
FFE0
FFE0
0C00
0C00
0C00
0C00
0C30
0C38
0C18
0C18
0C18
0C18
0C18
0C38
0E30
07E0
03C0
ENDCHAR
STARTCHAR 050F
ENCODING 1295
SWIDTH 583 0
DWIDTH 14 0
BBX 12 13 1 0
BITMAP
FFE0
FFE0
0C00
0C00
0C30
0C30
0C30
0C30
0C30
0C30
0E70
07E0
03C0
ENDCHAR
STARTCHAR 0510
ENCODING 1296
SWIDTH 583 0
DWIDTH 14 0
BBX 12 17 1 0
BITMAP
1F80
7FE0
E060
C030
C000
C000
6000
3F00
3F00
7000
E000
C000
C030
E070
7060
3FE0
1F80
ENDCHAR
STARTCHAR 0511
ENCODING 1297
SWIDTH 625 0
DWIDTH 15 0
BBX 11 13 2 0
BITMAP
3F80
7FC0
E0E0
C060
E000
7F80
3F80
E000
C000
C060
E0E0
7FC0
1F80
ENDCHAR
STARTCHAR 0512
ENCODING 1298
SWIDTH 583 0
DWIDTH 14 0
BBX 14 22 0 -5
BITMAP
1FF0
1FF0
1830
1830
1830
1830
1830
1830
1830
1830
1830
1830
1830
1830
3830
F03C
E03C
000C
000C
000C
007C
0078
ENDCHAR
STARTCHAR 0513
ENCODING 1299
SWIDTH 583 0
DWIDTH 14 0
BBX 14 18 0 -5
BITMAP
1FF0
1FF0
1830
1830
1830
1830
1830
1830
1830
1830
3830
F03C
E03C
000C
000C
000C
007C
0078
ENDCHAR
STARTCHAR 1E00
ENCODING 7680
SWIDTH 583 0
DWIDTH 14 0
BBX 13 22 1 -5
BITMAP
0600
0F00
0F00
0F00
0F80
1980
1980
19C0
30C0
30C0
30E0
7FE0
7FE0
6070
E030
C030
C038
0000
0000
0F00
0900
0F00
ENDCHAR
STARTCHAR 1E01
ENCODING 7681
SWIDTH 583 0
DWIDTH 14 0
BBX 11 18 2 -5
BITMAP
1F00
7F80
61C0
E0C0
00C0
00C0
3FC0
7FC0
E0C0
C0C0
C1C0
7FC0
3EE0
0000
0000
1E00
1200
1E00
ENDCHAR
STARTCHAR 1E3E
ENCODING 7742
SWIDTH 625 0
DWIDTH 15 0
BBX 11 22 2 0
BITMAP
0180
0300
0600
0C00
0000
E0E0
E0E0
F0E0
F1E0
D1E0
DB60
DB60
DB60
CE60
CE60
CE60
C460
C060
C060
C060
C060
C060
ENDCHAR
STARTCHAR 1E3F
ENCODING 7743
SWIDTH 583 0
DWIDTH 14 0
BBX 12 18 1 0
BITMAP
01C0
0180
0300
0000
0000
DCE0
FFF0
C630
C630
C630
C630
C630
C630
C630
C630
C630
C630
C630
ENDCHAR
STARTCHAR 1E80
ENCODING 7808
SWIDTH 583 0
DWIDTH 14 0
BBX 13 22 1 0
BITMAP
1800
0C00
0E00
0600
0000
C618
C718
C718
C730
C730
6D30
6D30
6DB0
6DB0
69B0
69B0
78A0
78E0
78E0
38E0
30E0
30E0
ENDCHAR
STARTCHAR 1E81
ENCODING 7809
SWIDTH 583 0
DWIDTH 14 0
BBX 13 18 1 0
BITMAP
1800
0C00
0600
0000
0000
C618
C618
C710
C730
CF30
4D30
6DB0
69A0
79A0
38E0
38E0
30E0
30C0
ENDCHAR
STARTCHAR 1E82
ENCODING 7810
SWIDTH 583 0
DWIDTH 14 0
BBX 13 22 1 0
BITMAP
01C0
0180
0300
0600
0000
C618
C718
C718
C730
C730
6D30
6D30
6DB0
6DB0
69B0
69B0
78A0
78E0
78E0
38E0
30E0
30E0
ENDCHAR
STARTCHAR 1E83
ENCODING 7811
SWIDTH 583 0
DWIDTH 14 0
BBX 13 18 1 0
BITMAP
01C0
0380
0300
0000
0000
C618
C618
C710
C730
CF30
4D30
6DB0
69A0
79A0
38E0
38E0
30E0
30C0
ENDCHAR
STARTCHAR 1E84
ENCODING 7812
SWIDTH 583 0
DWIDTH 14 0
BBX 13 21 0 0
BITMAP
18C0
18C0
0000
0000
E318
6718
6718
6718
6730
67B0
65B0
6DB0
6DB0
2CB0
2CB0
38F0
38E0
38E0
38E0
3860
3860
ENDCHAR
STARTCHAR 1E85
ENCODING 7813
SWIDTH 583 0
DWIDTH 14 0
BBX 13 17 0 0
BITMAP
18C0
18C0
0000
0000
C318
C718
4718
6710
6530
65B0
6DB0
2CB0
28A0
38A0
38E0
1860
1040
ENDCHAR
STARTCHAR 1EA0
ENCODING 7840
SWIDTH 583 0
DWIDTH 14 0
BBX 12 21 1 -4
BITMAP
0600
0600
0700
0F00
0F00
0980
1980
1980
1980
30C0
30C0
3FC0
7FE0
6060
6060
E070
C030
0000
0600
0600
0600
ENDCHAR
STARTCHAR 1EA1
ENCODING 7841
SWIDTH 583 0
DWIDTH 14 0
BBX 11 17 2 -4
BITMAP
1F00
7F80
61C0
E0C0
00C0
1FC0
7FC0
E0C0
C0C0
C0C0
E1C0
7FC0
3EE0
0000
0C00
0C00
0C00
ENDCHAR
STARTCHAR 1EA2
ENCODING 7842
SWIDTH 583 0
DWIDTH 14 0
BBX 12 24 1 0
BITMAP
0600
0700
0180
0700
0600
0000
0000
0600
0600
0F00
0F00
0F00
1B80
1980
1980
3180
30C0
30C0
7FC0
7FE0
6060
E060
C030
C030
ENDCHAR
STARTCHAR 1EA3
ENCODING 7843
SWIDTH 583 0
DWIDTH 14 0
BBX 11 20 2 0
BITMAP
0E00
0F00
0300
0F00
0C00
0000
0000
1F00
7F80
61C0
C0C0
00C0
1FC0
7FC0
E0C0
C0C0
C0C0
E1C0
7FC0
3EE0
ENDCHAR
STARTCHAR 1EA4
ENCODING 7844
SWIDTH 583 0
DWIDTH 14 0
BBX 13 24 1 0
BITMAP
0018
0018
0730
0D80
18C0
0000
0000
0600
0700
0700
0F00
0D80
0D80
1980
18C0
18C0
38C0
30E0
3FE0
7FE0
6070
6030
E030
C038
ENDCHAR
STARTCHAR 1EA5
ENCODING 7845
SWIDTH 583 0
DWIDTH 14 0
BBX 12 20 2 0
BITMAP
0030
0030
0E60
1B00
3180
0000
0000
1F00
7F80
61C0
C0C0
00C0
1FC0
7FC0
E0C0
C0C0
C0C0
E1C0
7FC0
3EE0
ENDCHAR
STARTCHAR 1EA6
ENCODING 7846
SWIDTH 583 0
DWIDTH 14 0
BBX 14 24 0 0
BITMAP
C000
6000
2300
3780
0EE0
1870
0000
0300
0380
0380
0780
06C0
06C0
0CC0
0C60
0C60
1C60
1870
1FF0
3FF0
3038
3018
7018
601C
ENDCHAR
STARTCHAR 1EA7
ENCODING 7847
SWIDTH 583 0
DWIDTH 14 0
BBX 13 20 0 0
BITMAP
E000
6000
3380
06C0
0C60
0000
0000
07C0
1FE0
1870
3830
0030
07F0
1FF0
3830
3030
3030
3870
1FF0
0FB8
ENDCHAR
STARTCHAR 1EA8
ENCODING 7848
SWIDTH 625 0
DWIDTH 15 0
BBX 13 24 1 0
BITMAP
0030
0018
0038
0F20
1980
30C0
0000
0600
0700
0700
0F00
0D80
0D80
1980
19C0
18C0
30C0
30C0
3FE0
7FE0
6060
6030
E030
C030
ENDCHAR
STARTCHAR 1EA9
ENCODING 7849
SWIDTH 625 0
DWIDTH 15 0
BBX 12 20 2 0
BITMAP
0070
0030
0E70
1B60
3180
0000
0000
1F00
7F80
61C0
C0C0
00C0
1FC0
7FC0
E0C0
C0C0
C0C0
E1C0
7FC0
3EE0
ENDCHAR
STARTCHAR 1EAA
ENCODING 7850
SWIDTH 583 0
DWIDTH 14 0
BBX 13 25 1 0
BITMAP
0480
0F80
1100
0600
0F00
19C0
3060
0000
0600
0700
0700
0F00
0D80
0D80
1980
18C0
18C0
38C0
30E0
3FE0
7FE0
6070
6030
E030
C038
ENDCHAR
STARTCHAR 1EAB
ENCODING 7851
SWIDTH 583 0
DWIDTH 14 0
BBX 11 21 2 0
BITMAP
0900
1F00
2200
0E00
1B00
3180
0000
0000
1F00
7F80
61C0
C0C0
00C0
1FC0
7FC0
E0C0
C0C0
C0C0
E1C0
7FC0
3EE0
ENDCHAR
STARTCHAR 1EAC
ENCODING 7852
SWIDTH 583 0
DWIDTH 14 0
BBX 13 26 1 -4
BITMAP
0300
0F80
1CC0
0000
0000
0300
0300
0700
0780
0780
0D80
0CC0
1CC0
18C0
18C0
3860
3FE0
3FE0
7070
6030
6030
C038
0000
0300
0300
0300
ENDCHAR
STARTCHAR 1EAD
ENCODING 7853
SWIDTH 583 0
DWIDTH 14 0
BBX 11 22 2 -4
BITMAP
0E00
1B00
3180
0000
0000
1F00
7F80
61C0
E0C0
00C0
1FC0
7FC0
E0C0
C0C0
C0C0
E1C0
7FC0
3EE0
0000
0C00
0C00
0C00
ENDCHAR
STARTCHAR 1EAE
ENCODING 7854
SWIDTH 625 0
DWIDTH 15 0
BBX 13 24 1 0
BITMAP
0180
0300
0200
18C0
0F80
0000
0000
0700
0700
0700
0780
0D80
0D80
0DC0
18C0
18C0
18C0
3060
3FE0
3FE0
7070
6030
6030
E038
ENDCHAR
STARTCHAR 1EAF
ENCODING 7855
SWIDTH 583 0
DWIDTH 14 0
BBX 11 20 2 0
BITMAP
0200
0600
0400
3180
1F00
0000
0000
1F00
7F80
61C0
E0C0
00C0
07C0
7FC0
60C0
C0C0
C0C0
E1C0
7FC0
3EE0
ENDCHAR
STARTCHAR 1EB0
ENCODING 7856
SWIDTH 625 0
DWIDTH 15 0
BBX 13 24 1 0
BITMAP
0400
0600
18C0
18C0
0F80
0000
0000
0700
0700
0700
0780
0D80
0D80
0DC0
18C0
18C0
18C0
3060
3FE0
3FE0
7030
6030
6030
E038
ENDCHAR
STARTCHAR 1EB1
ENCODING 7857
SWIDTH 583 0
DWIDTH 14 0
BBX 11 21 2 0
BITMAP
1800
0800
0C00
3180
1F00
0000
0000
0000
1F00
7F80
61C0
E0C0
00C0
07C0
7FC0
60C0
C0C0
C0C0
E1C0
7FC0
3EE0
ENDCHAR
STARTCHAR 1EB2
ENCODING 7858
SWIDTH 625 0
DWIDTH 15 0
BBX 13 25 1 0
BITMAP
0700
0180
0780
0600
18C0
0F80
0000
0000
0700
0700
0700
0F80
0D80
0D80
1DC0
18C0
18C0
38E0
3060
3FE0
3FF0
6030
6030
6038
C018
ENDCHAR
STARTCHAR 1EB3
ENCODING 7859
SWIDTH 583 0
DWIDTH 14 0
BBX 11 21 2 0
BITMAP
0E00
0300
0E00
0C00
3180
1F00
0000
0000
1F00
7F80
61C0
E0C0
00C0
07C0
7FC0
60C0
C0C0
C0C0
E1C0
7FC0
3EE0
ENDCHAR
STARTCHAR 1EB4
ENCODING 7860
SWIDTH 625 0
DWIDTH 15 0
BBX 13 25 1 0
BITMAP
0440
0FC0
1980
0000
18C0
0F80
0000
0000
0300
0700
0700
0780
0D80
0D80
0CC0
18C0
18C0
18E0
3860
3FE0
3FF0
7030
6030
6030
C018
ENDCHAR
STARTCHAR 1EB5
ENCODING 7861
SWIDTH 583 0
DWIDTH 14 0
BBX 11 21 2 0
BITMAP
0880
1F00
2200
0000
3180
1F00
0000
0000
1F00
7F80
61C0
E0C0
00C0
07C0
7FC0
60C0
C0C0
C0C0
E1C0
7FC0
3EE0
ENDCHAR
STARTCHAR 1EB6
ENCODING 7862
SWIDTH 625 0
DWIDTH 15 0
BBX 13 26 1 -4
BITMAP
18C0
1FC0
0F80
0000
0000
0600
0600
0700
0F00
0F00
0D80
1980
1980
18C0
30C0
30E0
3FE0
7FE0
6070
6030
6030
C038
0000
0600
0600
0600
ENDCHAR
STARTCHAR 1EB7
ENCODING 7863
SWIDTH 583 0
DWIDTH 14 0
BBX 11 22 2 -4
BITMAP
3180
3F00
1E00
0000
0000
1F00
7F80
61C0
E0C0
00C0
07C0
7FC0
60C0
C0C0
C0C0
E1C0
7FC0
3EE0
0000
0C00
0C00
0C00
ENDCHAR
STARTCHAR 1EB8
ENCODING 7864
SWIDTH 583 0
DWIDTH 14 0
BBX 11 21 2 -4
BITMAP
FFE0
FFE0
C000
C000
C000
C000
C000
FFC0
FFC0
C000
C000
C000
C000
C000
C000
FFE0
FFE0
0000
0C00
0C00
0C00
ENDCHAR
STARTCHAR 1EB9
ENCODING 7865
SWIDTH 625 0
DWIDTH 15 0
BBX 12 17 1 -4
BITMAP
0F80
1FC0
3060
6070
6030
7FF0
FFF0
6000
6000
6020
3070
3FE0
0F80
0000
0600
0600
0600
ENDCHAR
STARTCHAR 1EBA
ENCODING 7866
SWIDTH 583 0
DWIDTH 14 0
BBX 11 24 2 0
BITMAP
0C00
0F00
0300
0F00
0C00
0000
0000
FFE0
FFE0
C000
C000
C000
C000
C000
FFC0
FFC0
C000
C000
C000
C000
C000
C000
FFE0
FFE0
ENDCHAR
STARTCHAR 1EBB
ENCODING 7867
SWIDTH 625 0
DWIDTH 15 0
BBX 11 20 2 0
BITMAP
0600
0700
0300
0700
0400
0000
0000
1F00
3FC0
70C0
6060
C060
FFE0
FFE0
C000
C000
E000
7060
3FC0
1F80
ENDCHAR
STARTCHAR 1EBC
ENCODING 7868
SWIDTH 583 0
DWIDTH 14 0
BBX 11 22 2 0
BITMAP
3880
7F80
4300
0000
0000
FFE0
FFE0
C000
C000
C000
C000
C000
FFC0
FFC0
C000
C000
C000
C000
C000
C000
FFE0
FFE0
ENDCHAR
STARTCHAR 1EBD
ENCODING 7869
SWIDTH 625 0
DWIDTH 15 0
BBX 11 18 2 0
BITMAP
1CC0
3F80
2300
0000
0000
1F00
3FC0
70C0
6060
C060
FFE0
FFE0
C000
C000
E000
7060
3FC0
1F80
ENDCHAR
STARTCHAR 1EBE
ENCODING 7870
SWIDTH 583 0
DWIDTH 14 0
BBX 12 24 2 0
BITMAP
0030
0060
0E60
3F00
7180
0000
0000
FFE0
FFE0
C000
C000
C000
C000
C000
FFC0
FFC0
C000
C000
C000
C000
C000
C000
FFE0
FFE0
ENDCHAR
STARTCHAR 1EBF
ENCODING 7871
SWIDTH 625 0
DWIDTH 15 0
BBX 13 21 2 0
BITMAP
0018
0030
0030
0E60
1B00
3180
0000
0000
1F00
3FC0
70C0
6060
C060
FFE0
FFE0
C000
C000
E000
7060
3FC0
1F80
ENDCHAR
STARTCHAR 1EC0
ENCODING 7872
SWIDTH 583 0
DWIDTH 14 0
BBX 13 24 0 0
BITMAP
C000
E000
6300
3780
0CC0
1870
0000
3FF8
3FF8
3000
3000
3000
3000
3000
3FF0
3FF0
3000
3000
3000
3000
3000
3000
3FF8
3FF8
ENDCHAR
STARTCHAR 1EC1
ENCODING 7873
SWIDTH 625 0
DWIDTH 15 0
BBX 12 20 1 0
BITMAP
C000
C000
6700
0D80
18C0
0000
0000
0F80
1FE0
3860
3030
6030
7FF0
7FF0
6000
6000
7000
3830
1FE0
0FC0
ENDCHAR
STARTCHAR 1EC2
ENCODING 7874
SWIDTH 625 0
DWIDTH 15 0
BBX 12 24 2 0
BITMAP
0060
0030
0070
1E40
3300
6180
0000
FFE0
FFE0
C000
C000
C000
C000
C000
FFC0
FFC0
C000
C000
C000
C000
C000
C000
FFE0
FFE0
ENDCHAR
STARTCHAR 1EC3
ENCODING 7875
SWIDTH 625 0
DWIDTH 15 0
BBX 12 21 2 0
BITMAP
0070
0010
0010
0E70
1B60
3180
0000
0000
1F00
3FC0
70C0
6060
C060
FFE0
FFE0
C000
C000
E000
7060
3FC0
1F80
ENDCHAR
STARTCHAR 1EC4
ENCODING 7876
SWIDTH 583 0
DWIDTH 14 0
BBX 11 25 2 0
BITMAP
0100
3F00
2200
0C00
1E00
3300
60C0
0000
FFE0
FFE0
C000
C000
C000
C000
C000
FFC0
FFC0
C000
C000
C000
C000
C000
C000
FFE0
FFE0
ENDCHAR
STARTCHAR 1EC5
ENCODING 7877
SWIDTH 625 0
DWIDTH 15 0
BBX 11 21 2 0
BITMAP
0880
1F00
1200
0E00
1B00
3180
0000
0000
1F00
3FC0
70C0
6060
C060
FFE0
FFE0
C000
C000
E000
7060
3FC0
1F80
ENDCHAR
STARTCHAR 1EC6
ENCODING 7878
SWIDTH 583 0
DWIDTH 14 0
BBX 11 26 2 -4
BITMAP
0C00
1E00
3380
0000
0000
FFE0
FFE0
C000
C000
C000
C000
C000
FFC0
FFC0
C000
C000
C000
C000
C000
C000
FFE0
FFE0
0000
0C00
0C00
0C00
ENDCHAR
STARTCHAR 1EC7
ENCODING 7879
SWIDTH 625 0
DWIDTH 15 0
BBX 11 22 2 -4
BITMAP
0600
1F00
3980
0000
0000
1F00
3F80
70C0
60E0
C060
FFE0
FFE0
C000
C000
E040
70E0
3FC0
1F80
0000
0600
0600
0600
ENDCHAR
STARTCHAR 1EC8
ENCODING 7880
SWIDTH 583 0
DWIDTH 14 0
BBX 10 24 2 0
BITMAP
0C00
0E00
0600
0E00
0800
0000
0000
FFC0
FFC0
0C00
0C00
0C00
0C00
0C00
0C00
0C00
0C00
0C00
0C00
0C00
0C00
0C00
FFC0
FFC0
ENDCHAR
STARTCHAR 1EC9
ENCODING 7881
SWIDTH 583 0
DWIDTH 14 0
BBX 11 20 2 0
BITMAP
0C00
0F00
0300
0300
0E00
0C00
0000
FC00
FC00
0C00
0C00
0C00
0C00
0C00
0C00
0C00
0C00
0C00
FFE0
FFE0
ENDCHAR
STARTCHAR 1ECA
ENCODING 7882
SWIDTH 583 0
DWIDTH 14 0
BBX 10 21 2 -4
BITMAP
FFC0
FFC0
0C00
0C00
0C00
0C00
0C00
0C00
0C00
0C00
0C00
0C00
0C00
0C00
0C00
FFC0
FFC0
0000
0C00
0C00
0C00
ENDCHAR
STARTCHAR 1ECB
ENCODING 7883
SWIDTH 583 0
DWIDTH 14 0
BBX 11 21 2 -4
BITMAP
0C00
0C00
0C00
0000
FC00
FC00
0C00
0C00
0C00
0C00
0C00
0C00
0C00
0C00
0C00
FFE0
FFE0
0000
0C00
0E00
0E00
ENDCHAR
STARTCHAR 1ECC
ENCODING 7884
SWIDTH 583 0
DWIDTH 14 0
BBX 12 21 1 -4
BITMAP
0F80
3FC0
70E0
6060
E030
C030
C030
C030
C030
C030
C030
C030
E030
6060
70E0
3FC0
0F80
0000
0600
0600
0600
ENDCHAR
STARTCHAR 1ECD
ENCODING 7885
SWIDTH 583 0
DWIDTH 14 0
BBX 11 17 1 -4
BITMAP
1F00
3F80
70C0
E0E0
C060
C060
C060
C060
C060
E0E0
70C0
3F80
1F00
0000
0600
0600
0600
ENDCHAR
STARTCHAR 1ECE
ENCODING 7886
SWIDTH 583 0
DWIDTH 14 0
BBX 12 24 1 0
BITMAP
0700
0780
0180
0700
0600
0000
0000
0F00
3FC0
70E0
6060
E070
C030
C030
C030
C030
C030
C030
C030
E070
6060
70E0
3FC0
0F00
ENDCHAR
STARTCHAR 1ECF
ENCODING 7887
SWIDTH 583 0
DWIDTH 14 0
BBX 11 20 1 0
BITMAP
0600
0700
0300
0700
0400
0000
0000
1F00
3F80
70C0
E0E0
C060
C060
C060
C060
C060
E0E0
70C0
3F80
1F00
ENDCHAR
STARTCHAR 1ED0
ENCODING 7888
SWIDTH 583 0
DWIDTH 14 0
BBX 14 25 1 0
BITMAP
001C
0018
0630
0F20
1980
30E0
0000
0000
0F00
3FC0
70E0
6060
E070
C030
C030
C030
C030
C030
C030
C030
E070
6060
70E0
3FC0
0F00
ENDCHAR
STARTCHAR 1ED1
ENCODING 7889
SWIDTH 583 0
DWIDTH 14 0
BBX 13 21 1 0
BITMAP
0038
0030
0060
0E60
1B00
3180
0000
0000
1F00
3F80
70C0
E0E0
C060
C060
C060
C060
C060
E0E0
70C0
3F80
1F00
ENDCHAR
STARTCHAR 1ED2
ENCODING 7890
SWIDTH 583 0
DWIDTH 14 0
BBX 13 24 0 0
BITMAP
C000
6000
3380
06C0
1C60
0000
0000
0780
1FE0
3870
3030
7038
6018
6018
6018
6018
6018
6018
6018
7038
3030
3870
1FE0
0780
ENDCHAR
STARTCHAR 1ED3
ENCODING 7891
SWIDTH 583 0
DWIDTH 14 0
BBX 12 20 0 0
BITMAP
C000
E000
6700
0D80
18C0
0000
0000
0F80
1FC0
3860
7070
6030
6030
6030
6030
6030
7070
3860
1FC0
0F80
ENDCHAR
STARTCHAR 1ED4
ENCODING 7892
SWIDTH 625 0
DWIDTH 15 0
BBX 13 25 1 0
BITMAP
0030
0018
0018
0F30
0DB0
18C0
30C0
0000
0F00
3FC0
70E0
6060
E070
C030
C030
C030
C030
C030
C030
C030
E070
6060
70E0
3FC0
0F00
ENDCHAR
STARTCHAR 1ED5
ENCODING 7893
SWIDTH 583 0
DWIDTH 14 0
BBX 12 21 1 0
BITMAP
0070
0010
0010
0E70
1B60
3180
0000
0000
1F00
3F80
70C0
E0E0
C060
C060
C060
C060
C060
E0E0
70C0
3F80
1F00
ENDCHAR
STARTCHAR 1ED6
ENCODING 7894
SWIDTH 583 0
DWIDTH 14 0
BBX 12 25 1 0
BITMAP
0080
1F80
1100
0700
0D80
30C0
0000
0000
0F00
3FC0
70E0
6060
E070
C030
C030
C030
C030
C030
C030
C030
E070
6060
70E0
3FC0
0F00
ENDCHAR
STARTCHAR 1ED7
ENCODING 7895
SWIDTH 583 0
DWIDTH 14 0
BBX 11 21 1 0
BITMAP
0800
1F00
1200
0E00
1B00
3180
0000
0000
1F00
3F80
70C0
E0E0
C060
C060
C060
C060
C060
E0E0
70C0
3F80
1F00
ENDCHAR
STARTCHAR 1ED8
ENCODING 7896
SWIDTH 583 0
DWIDTH 14 0
BBX 12 27 1 -4
BITMAP
0200
0700
0D80
18C0
0000
0000
0F00
3FC0
70E0
6060
E030
C030
C030
C030
C030
C030
C030
C030
E030
6060
70E0
3FC0
0F00
0000
0600
0600
0600
ENDCHAR
STARTCHAR 1ED9
ENCODING 7897
SWIDTH 583 0
DWIDTH 14 0
BBX 11 22 1 -4
BITMAP
0600
0F00
3980
0000
0000
1F00
3F80
70C0
E0E0
C060
C060
C060
C060
C060
E0E0
70C0
3F80
1F00
0000
0600
0600
0600
ENDCHAR
STARTCHAR 1EDA
ENCODING 7898
SWIDTH 625 0
DWIDTH 15 0
BBX 13 22 1 0
BITMAP
01C0
0380
0200
0000
0018
0F18
3FF8
70F0
6060
E070
C030
C030
C030
C030
C030
C030
C030
E070
6060
70E0
3FC0
0F00
ENDCHAR
STARTCHAR 1EDB
ENCODING 7899
SWIDTH 583 0
DWIDTH 14 0
BBX 13 19 1 0
BITMAP
0180
0300
0600
0400
0038
0030
1F30
3FF0
70E0
E0E0
C060
C060
C060
C060
C060
E0E0
70C0
3F80
1F00
ENDCHAR
STARTCHAR 1EDC
ENCODING 7900
SWIDTH 625 0
DWIDTH 15 0
BBX 13 23 1 0
BITMAP
1800
1C00
0C00
0600
0000
0018
0F18
3FF8
70F0
6060
E070
C030
C030
C030
C030
C030
C030
C030
E070
6060
70E0
3FC0
0F00
ENDCHAR
STARTCHAR 1EDD
ENCODING 7901
SWIDTH 583 0
DWIDTH 14 0
BBX 13 19 1 0
BITMAP
3800
1800
0C00
0600
0038
0030
1F30
3FF0
70E0
E0E0
C060
C060
C060
C060
C060
E0E0
70C0
3F80
1F00
ENDCHAR
STARTCHAR 1EDE
ENCODING 7902
SWIDTH 625 0
DWIDTH 15 0
BBX 13 24 1 0
BITMAP
0700
0780
0180
0780
0600
0000
0018
0F18
3FF8
70F0
6060
E070
C030
C030
C030
C030
C030
C030
C030
E070
6060
70E0
3FC0
0F00
ENDCHAR
STARTCHAR 1EDF
ENCODING 7903
SWIDTH 583 0
DWIDTH 14 0
BBX 12 20 1 0
BITMAP
0600
0700
0300
0700
0400
0000
0030
1F30
3FF0
70E0
E0E0
C060
C060
C060
C060
C060
E0E0
70C0
3F80
1F00
ENDCHAR
STARTCHAR 1EE0
ENCODING 7904
SWIDTH 625 0
DWIDTH 15 0
BBX 13 22 1 0
BITMAP
1C40
3FC0
3180
0000
0018
0F18
3FF8
70F0
6060
E070
C030
C030
C030
C030
C030
C030
C030
E070
6060
70E0
3FC0
0F00
ENDCHAR
STARTCHAR 1EE1
ENCODING 7905
SWIDTH 583 0
DWIDTH 14 0
BBX 13 19 1 0
BITMAP
0080
3E80
3780
0000
0038
0030
1F30
3FF0
70C0
E0E0
C060
C060
C060
C060
C060
E0E0
70C0
3F80
1F00
ENDCHAR
STARTCHAR 1EE2
ENCODING 7906
SWIDTH 625 0
DWIDTH 15 0
BBX 13 22 1 -4
BITMAP
0018
0F18
3FF8
70F0
6060
E070
C030
C030
C030
C030
C030
C030
C030
E070
6060
70E0
3FC0
0F00
0000
0600
0600
0600
ENDCHAR
STARTCHAR 1EE3
ENCODING 7907
SWIDTH 583 0
DWIDTH 14 0
BBX 13 19 1 -4
BITMAP
0038
0030
1F30
3FF0
70E0
E0E0
C060
C060
C060
C060
C060
E0E0
70C0
3F80
1F00
0000
0600
0600
0600
ENDCHAR
STARTCHAR 1EE4
ENCODING 7908
SWIDTH 625 0
DWIDTH 15 0
BBX 11 21 2 -4
BITMAP
C060
C060
C060
C060
C060
C060
C060
C060
C060
C060
C060
C060
C060
E0E0
70C0
3F80
1F00
0000
0600
0600
0600
ENDCHAR
STARTCHAR 1EE5
ENCODING 7909
SWIDTH 583 0
DWIDTH 14 0
BBX 10 17 2 -4
BITMAP
C0C0
C0C0
C0C0
C0C0
C0C0
C0C0
C0C0
C0C0
C0C0
C0C0
E1C0
7FC0
3EC0
0000
0C00
0C00
0C00
ENDCHAR
STARTCHAR 1EE6
ENCODING 7910
SWIDTH 625 0
DWIDTH 15 0
BBX 11 24 2 0
BITMAP
0600
0780
0180
0700
0600
0000
0000
C060
C060
C060
C060
C060
C060
C060
C060
C060
C060
C060
C060
C060
E0E0
70C0
3F80
1F00
ENDCHAR
STARTCHAR 1EE7
ENCODING 7911
SWIDTH 583 0
DWIDTH 14 0
BBX 10 20 2 0
BITMAP
0C00
0E00
0300
0300
0E00
0C00
0000
C0C0
C0C0
C0C0
C0C0
C0C0
C0C0
C0C0
C0C0
C0C0
C0C0
E1C0
7FC0
3EC0
ENDCHAR
STARTCHAR 1EE8
ENCODING 7912
SWIDTH 625 0
DWIDTH 15 0
BBX 15 22 2 0
BITMAP
0380
0300
0600
0000
0006
C066
C06E
C07C
C070
C060
C060
C060
C060
C060
C060
C060
C060
C060
E0E0
70C0
3F80
1F00
ENDCHAR
STARTCHAR 1EE9
ENCODING 7913
SWIDTH 625 0
DWIDTH 15 0
BBX 14 18 2 0
BITMAP
0300
0600
0C00
0000
000C
C0CC
C0D8
C0F8
C0C0
C0C0
C0C0
C0C0
C0C0
C0C0
C0C0
E1C0
7FC0
3EC0
ENDCHAR
STARTCHAR 1EEA
ENCODING 7914
SWIDTH 625 0
DWIDTH 15 0
BBX 15 23 2 0
BITMAP
3000
1800
0C00
0C00
0000
0006
C066
C06E
C07C
C070
C060
C060
C060
C060
C060
C060
C060
C060
C060
E0E0
70C0
3F80
1F00
ENDCHAR
STARTCHAR 1EEB
ENCODING 7915
SWIDTH 625 0
DWIDTH 15 0
BBX 14 18 2 0
BITMAP
3000
1800
0C00
0000
000C
C0CC
C0D8
C0F8
C0C0
C0C0
C0C0
C0C0
C0C0
C0C0
C0C0
E1C0
7FC0
3CC0
ENDCHAR
STARTCHAR 1EEC
ENCODING 7916
SWIDTH 625 0
DWIDTH 15 0
BBX 15 24 2 0
BITMAP
0600
0700
0300
0700
0400
0000
0006
C066
C06E
C07C
C070
C060
C060
C060
C060
C060
C060
C060
C060
C060
E0E0
70C0
3F80
1F00
ENDCHAR
STARTCHAR 1EED
ENCODING 7917
SWIDTH 625 0
DWIDTH 15 0
BBX 14 20 2 0
BITMAP
0E00
0F00
0300
0E00
0C00
0000
000C
C0CC
C0D8
C0F8
C0C0
C0C0
C0C0
C0C0
C0C0
C0C0
C0C0
E1C0
7FC0
3EC0
ENDCHAR
STARTCHAR 1EEE
ENCODING 7918
SWIDTH 625 0
DWIDTH 15 0
BBX 15 22 2 0
BITMAP
1CC0
3F80
2300
0000
0006
C066
C06E
C07C
C070
C060
C060
C060
C060
C060
C060
C060
C060
C060
E0E0
70C0
3F80
1F00
ENDCHAR
STARTCHAR 1EEF
ENCODING 7919
SWIDTH 625 0
DWIDTH 15 0
BBX 14 18 2 0
BITMAP
3880
7F80
4700
0000
000C
C0CC
C0D8
C0F8
C0C0
C0C0
C0C0
C0C0
C0C0
C0C0
C0C0
E1C0
7FC0
3EC0
ENDCHAR
STARTCHAR 1EF0
ENCODING 7920
SWIDTH 625 0
DWIDTH 15 0
BBX 15 22 2 -4
BITMAP
0006
C066
C06E
C07C
C070
C060
C060
C060
C060
C060
C060
C060
C060
C060
E0E0
70C0
3F80
1F00
0000
0600
0600
0600
ENDCHAR
STARTCHAR 1EF1
ENCODING 7921
SWIDTH 625 0
DWIDTH 15 0
BBX 14 18 2 -4
BITMAP
000C
C0CC
C0D8
C0F8
C0C0
C0C0
C0C0
C0C0
C0C0
C0C0
C0C0
E1C0
7FC0
3EC0
0000
1800
1800
1800
ENDCHAR
STARTCHAR 1EF2
ENCODING 7922
SWIDTH 583 0
DWIDTH 14 0
BBX 12 22 1 0
BITMAP
3800
1C00
0C00
0600
0000
C030
E070
6060
70E0
30C0
38C0
1980
1D80
0F00
0F00
0600
0600
0600
0600
0600
0600
0600
ENDCHAR
STARTCHAR 1EF3
ENCODING 7923
SWIDTH 583 0
DWIDTH 14 0
BBX 12 23 1 -5
BITMAP
1C00
0C00
0600
0000
0000
C030
E030
6060
7060
30E0
38C0
18C0
1980
0D80
0F00
0F00
0700
0600
0600
0C00
1C00
7800
7000
ENDCHAR
STARTCHAR 1EF4
ENCODING 7924
SWIDTH 583 0
DWIDTH 14 0
BBX 12 21 1 -4
BITMAP
E070
6060
7060
30E0
30C0
19C0
1980
1D80
0F00
0F00
0600
0600
0600
0600
0600
0600
0600
0000
0600
0600
0600
ENDCHAR
STARTCHAR 1EF5
ENCODING 7925
SWIDTH 541 0
DWIDTH 13 0
BBX 11 19 1 -6
BITMAP
C060
C060
E0E0
60C0
70C0
3180
3980
1980
1B00
0F00
0E00
0600
0400
0C00
0C00
1800
7180
E180
0180
ENDCHAR
STARTCHAR 1EF6
ENCODING 7926
SWIDTH 625 0
DWIDTH 15 0
BBX 12 24 1 0
BITMAP
0600
0780
0180
0780
0600
0000
0000
C030
E070
6060
7060
30C0
38C0
1980
1D80
0F00
0F00
0600
0600
0600
0600
0600
0600
0600
ENDCHAR
STARTCHAR 1EF7
ENCODING 7927
SWIDTH 583 0
DWIDTH 14 0
BBX 12 25 1 -5
BITMAP
0600
0700
0180
0700
0600
0000
0000
C070
C060
E060
60C0
70C0
31C0
3180
1980
1B00
0F00
0E00
0E00
0600
0C00
0C00
1800
7800
E000
ENDCHAR
STARTCHAR 1EF8
ENCODING 7928
SWIDTH 583 0
DWIDTH 14 0
BBX 12 22 1 0
BITMAP
1C40
3FC0
2380
0000
0000
C030
E070
6060
70E0
30C0
39C0
1980
1B80
0F00
0F00
0600
0600
0600
0600
0600
0600
0600
ENDCHAR
STARTCHAR 1EF9
ENCODING 7929
SWIDTH 583 0
DWIDTH 14 0
BBX 12 23 1 -5
BITMAP
1C40
3FC0
2380
0000
0000
C070
C060
6060
60E0
70C0
30C0
3980
1980
1B00
0F00
0F00
0600
0600
0C00
0C00
1800
7800
F000
ENDCHAR
STARTCHAR 1F4D
ENCODING 8013
SWIDTH 583 0
DWIDTH 14 0
BBX 14 19 -1 0
BITMAP
9800
9800
93E0
A7F0
0E38
0C18
180C
180C
180C
180C
180C
180C
180C
180C
180C
0C18
0E38
07F0
03E0
ENDCHAR
STARTCHAR 2000
ENCODING 8192
SWIDTH 583 0
DWIDTH 14 0
BBX 0 0 0 0
BITMAP
ENDCHAR
STARTCHAR 2001
ENCODING 8193
SWIDTH 583 0
DWIDTH 14 0
BBX 0 0 0 0
BITMAP
ENDCHAR
STARTCHAR 2002
ENCODING 8194
SWIDTH 583 0
DWIDTH 14 0
BBX 0 0 0 0
BITMAP
ENDCHAR
STARTCHAR 2003
ENCODING 8195
SWIDTH 583 0
DWIDTH 14 0
BBX 0 0 0 0
BITMAP
ENDCHAR
STARTCHAR 2004
ENCODING 8196
SWIDTH 583 0
DWIDTH 14 0
BBX 0 0 0 0
BITMAP
ENDCHAR
STARTCHAR 2005
ENCODING 8197
SWIDTH 583 0
DWIDTH 14 0
BBX 0 0 0 0
BITMAP
ENDCHAR
STARTCHAR 2006
ENCODING 8198
SWIDTH 583 0
DWIDTH 14 0
BBX 0 0 0 0
BITMAP
ENDCHAR
STARTCHAR 2007
ENCODING 8199
SWIDTH 583 0
DWIDTH 14 0
BBX 0 0 0 0
BITMAP
ENDCHAR
STARTCHAR 2008
ENCODING 8200
SWIDTH 583 0
DWIDTH 14 0
BBX 0 0 0 0
BITMAP
ENDCHAR
STARTCHAR 2009
ENCODING 8201
SWIDTH 583 0
DWIDTH 14 0
BBX 0 0 0 0
BITMAP
ENDCHAR
STARTCHAR 200A
ENCODING 8202
SWIDTH 583 0
DWIDTH 14 0
BBX 0 0 0 0
BITMAP
ENDCHAR
STARTCHAR 200B
ENCODING 8203
SWIDTH 583 0
DWIDTH 14 0
BBX 0 0 0 0
BITMAP
ENDCHAR
STARTCHAR 2013
ENCODING 8211
SWIDTH 625 0
DWIDTH 15 0
BBX 13 2 1 8
BITMAP
FFF8
FFF8
ENDCHAR
STARTCHAR 2014
ENCODING 8212
SWIDTH 625 0
DWIDTH 15 0
BBX 13 2 1 8
BITMAP
FFF8
FFF8
ENDCHAR
STARTCHAR 2015
ENCODING 8213
SWIDTH 625 0
DWIDTH 15 0
BBX 13 2 1 8
BITMAP
FFF8
FFF8
ENDCHAR
STARTCHAR 2017
ENCODING 8215
SWIDTH 625 0
DWIDTH 15 0
BBX 11 5 2 -5
BITMAP
FFE0
FFE0
0000
FFE0
FFE0
ENDCHAR
STARTCHAR 2018
ENCODING 8216
SWIDTH 625 0
DWIDTH 15 0
BBX 3 6 6 12
BITMAP
60
60
C0
C0
C0
C0
ENDCHAR
STARTCHAR 2019
ENCODING 8217
SWIDTH 583 0
DWIDTH 14 0
BBX 3 6 5 12
BITMAP
60
60
60
60
C0
C0
ENDCHAR
STARTCHAR 201A
ENCODING 8218
SWIDTH 583 0
DWIDTH 14 0
BBX 3 6 5 -3
BITMAP
60
60
60
60
C0
C0
ENDCHAR
STARTCHAR 201B
ENCODING 8219
SWIDTH 583 0
DWIDTH 14 0
BBX 3 6 5 12
BITMAP
C0
C0
C0
C0
60
60
ENDCHAR
STARTCHAR 201C
ENCODING 8220
SWIDTH 625 0
DWIDTH 15 0
BBX 7 6 4 12
BITMAP
66
66
CC
CC
CC
CC
ENDCHAR
STARTCHAR 201D
ENCODING 8221
SWIDTH 625 0
DWIDTH 15 0
BBX 7 6 4 12
BITMAP
66
66
66
66
CC
CC
ENDCHAR
STARTCHAR 201E
ENCODING 8222
SWIDTH 583 0
DWIDTH 14 0
BBX 6 6 4 -3
BITMAP
6C
6C
6C
6C
C8
D8
ENDCHAR
STARTCHAR 2020
ENCODING 8224
SWIDTH 583 0
DWIDTH 14 0
BBX 12 17 1 0
BITMAP
0600
0600
0600
0600
FFF0
FFF0
0600
0600
0600
0600
0600
0600
0600
0600
0600
0600
0600
ENDCHAR
STARTCHAR 2021
ENCODING 8225
SWIDTH 583 0
DWIDTH 14 0
BBX 12 22 1 -5
BITMAP
0600
0600
0600
0600
FFF0
FFF0
0600
0600
0600
0600
0600
0600
0600
0600
0600
FFF0
FFF0
0600
0600
0600
0600
0600
ENDCHAR
STARTCHAR 2022
ENCODING 8226
SWIDTH 625 0
DWIDTH 15 0
BBX 5 5 5 6
BITMAP
70
F8
F8
F8
70
ENDCHAR
STARTCHAR 2025
ENCODING 8229
SWIDTH 583 0
DWIDTH 14 0
BBX 8 3 4 0
BITMAP
E7
E7
E7
ENDCHAR
STARTCHAR 2026
ENCODING 8230
SWIDTH 583 0
DWIDTH 14 0
BBX 12 3 3 0
BITMAP
E770
E770
E770
ENDCHAR
STARTCHAR 2030
ENCODING 8240
SWIDTH 625 0
DWIDTH 15 0
BBX 13 17 1 0
BITMAP
7800
FC00
CC00
CC40
CCC0
7980
3300
0400
0800
3000
6E70
5FF8
1998
1998
1998
1FF8
0F70
ENDCHAR
STARTCHAR 2032
ENCODING 8242
SWIDTH 625 0
DWIDTH 15 0
BBX 2 6 6 12
BITMAP
C0
C0
C0
C0
C0
C0
ENDCHAR
STARTCHAR 2033
ENCODING 8243
SWIDTH 625 0
DWIDTH 15 0
BBX 6 6 4 12
BITMAP
CC
CC
CC
CC
CC
CC
ENDCHAR
STARTCHAR 2039
ENCODING 8249
SWIDTH 583 0
DWIDTH 14 0
BBX 4 9 5 2
BITMAP
10
30
60
C0
C0
C0
60
30
10
ENDCHAR
STARTCHAR 203A
ENCODING 8250
SWIDTH 583 0
DWIDTH 14 0
BBX 5 9 5 2
BITMAP
C0
60
60
30
18
30
60
40
C0
ENDCHAR
STARTCHAR 203C
ENCODING 8252
SWIDTH 541 0
DWIDTH 13 0
BBX 11 17 1 0
BITMAP
C060
C060
C060
C060
C060
C060
C060
C060
C060
C060
C060
C060
0000
0000
C060
C060
C060
ENDCHAR
STARTCHAR 2044
ENCODING 8260
SWIDTH 583 0
DWIDTH 14 0
BBX 7 12 4 3
BITMAP
04
06
0C
0C
18
18
30
30
60
40
C0
80
ENDCHAR
STARTCHAR 2074
ENCODING 8308
SWIDTH 583 0
DWIDTH 14 0
BBX 9 11 3 6
BITMAP
0600
0E00
1E00
1600
3600
6600
C600
FF80
0600
0600
0600
ENDCHAR
STARTCHAR 207F
ENCODING 8319
SWIDTH 583 0
DWIDTH 14 0
BBX 7 9 4 8
BITMAP
DC
FE
C6
C6
C6
C6
C6
C6
C6
ENDCHAR
STARTCHAR 20A3
ENCODING 8355
SWIDTH 625 0
DWIDTH 15 0
BBX 13 17 1 0
BITMAP
3FF8
3FF8
3000
3000
3000
3000
3000
3000
3FF0
3FF0
3000
3000
FF00
FF00
3000
3000
3000
ENDCHAR
STARTCHAR 20A4
ENCODING 8356
SWIDTH 583 0
DWIDTH 14 0
BBX 12 17 1 0
BITMAP
07C0
1FE0
3870
3030
3000
3000
3000
FF00
FF00
3000
FF00
FF00
3000
3000
3000
FFF0
FFF0
ENDCHAR
STARTCHAR 20A7
ENCODING 8359
SWIDTH 583 0
DWIDTH 14 0
BBX 12 17 1 0
BITMAP
F800
FCC0
CEC0
C6C0
C7F0
C7F0
C6C0
CEC0
FCC0
F8C0
C0C0
C0C0
C0C0
C0C0
C0C0
C0F0
C070
ENDCHAR
STARTCHAR 20AB
ENCODING 8363
SWIDTH 583 0
DWIDTH 14 0
BBX 13 21 1 -3
BITMAP
0060
03F8
03F8
0060
0060
1F60
3FE0
70E0
E060
C060
C060
C060
C060
C060
6060
70E0
3FE0
1F60
0000
7FF0
7FF0
ENDCHAR
STARTCHAR 20AC
ENCODING 8364
SWIDTH 583 0
DWIDTH 14 0
BBX 11 17 1 0
BITMAP
03E0
0FE0
1C00
3800
3000
3000
FF80
FF80
3000
FF80
FF80
3000
3000
1800
1C00
0FE0
07E0
ENDCHAR
STARTCHAR 2105
ENCODING 8453
SWIDTH 583 0
DWIDTH 14 0
BBX 13 17 1 0
BITMAP
7800
CC00
CC00
C0C0
CCC0
CD80
7980
0300
0300
0600
04F0
0D98
0998
1918
0198
0198
00F0
ENDCHAR
STARTCHAR 2113
ENCODING 8467
SWIDTH 583 0
DWIDTH 14 0
BBX 9 17 3 0
BITMAP
0E00
1F00
3980
3180
3180
3180
3300
3300
3E00
3C00
F800
F000
3000
3000
1800
1E00
0600
ENDCHAR
STARTCHAR 2116
ENCODING 8470
SWIDTH 583 0
DWIDTH 14 0
BBX 12 17 1 0
BITMAP
C6F0
C690
E690
E690
E690
F6F0
F660
F600
D6F0
DE00
DE00
DE00
CE00
CE00
CE00
C600
C600
ENDCHAR
STARTCHAR 2122
ENCODING 8482
SWIDTH 583 0
DWIDTH 14 0
BBX 11 6 1 11
BITMAP
FE20
2660
2660
25A0
25A0
25A0
ENDCHAR
STARTCHAR 2126
ENCODING 8486
SWIDTH 583 0
DWIDTH 14 0
BBX 12 17 1 0
BITMAP
0F00
3FC0
70E0
6060
E070
C030
C030
C030
C030
C030
C030
4060
6060
6060
30C0
F9F0
F9F0
ENDCHAR
STARTCHAR 212E
ENCODING 8494
SWIDTH 583 0
DWIDTH 14 0
BBX 12 13 2 0
BITMAP
0F00
30C0
6060
6060
E070
E070
FFF0
E000
E000
6000
6000
3040
1F80
ENDCHAR
STARTCHAR 215B
ENCODING 8539
SWIDTH 583 0
DWIDTH 14 0
BBX 13 17 0 0
BITMAP
3800
F800
1840
1840
18C0
1880
1980
1900
0370
02F8
06C8
04C8
0C78
18F8
08C8
00F8
0078
ENDCHAR
STARTCHAR 215C
ENCODING 8540
SWIDTH 625 0
DWIDTH 15 0
BBX 14 17 0 0
BITMAP
3C00
7E00
0600
3860
0640
06C0
C680
7D80
0170
03FC
06CC
06CC
0C78
0CFC
08C4
00FC
0078
ENDCHAR
STARTCHAR 215D
ENCODING 8541
SWIDTH 625 0
DWIDTH 15 0
BBX 13 17 1 0
BITMAP
FC00
FC00
8000
F8C0
0C80
0D80
8D00
FB00
02E0
07F8
0D98
0D98
18F0
19F8
1118
01F8
00F0
ENDCHAR
STARTCHAR 215E
ENCODING 8542
SWIDTH 625 0
DWIDTH 15 0
BBX 13 17 1 0
BITMAP
FE00
FE00
0400
0C80
1980
1100
3300
6200
06E0
05F8
0D98
0998
18F0
11F8
1118
01F8
00F0
ENDCHAR
STARTCHAR 2202
ENCODING 8706
SWIDTH 583 0
DWIDTH 14 0
BBX 11 18 2 0
BITMAP
3E00
7F00
4380
01C0
00C0
00E0
1E60
7FE0
60E0
E060
C060
C060
C060
C060
E0C0
61C0
3F80
1F00
ENDCHAR
STARTCHAR 2206
ENCODING 8710
SWIDTH 583 0
DWIDTH 14 0
BBX 13 17 1 0
BITMAP
0700
0700
0700
0D80
0D80
0D80
18C0
18C0
18C0
3060
3060
3060
6070
6030
E030
FFF8
FFF8
ENDCHAR
STARTCHAR 220F
ENCODING 8719
SWIDTH 583 0
DWIDTH 14 0
BBX 10 20 2 -3
BITMAP
FFC0
FFC0
C0C0
C0C0
C0C0
C0C0
C0C0
C0C0
C0C0
C0C0
C0C0
C0C0
C0C0
C0C0
C0C0
C0C0
C0C0
C0C0
C0C0
C0C0
ENDCHAR
STARTCHAR 2211
ENCODING 8721
SWIDTH 583 0
DWIDTH 14 0
BBX 13 20 1 -3
BITMAP
FFF0
FFF0
E000
7000
3800
1800
0C00
0600
0700
0380
0380
0300
0600
0C00
1800
3800
7000
E000
FFF8
FFF8
ENDCHAR
STARTCHAR 2212
ENCODING 8722
SWIDTH 583 0
DWIDTH 14 0
BBX 10 2 2 8
BITMAP
FFC0
FFC0
ENDCHAR
STARTCHAR 2215
ENCODING 8725
SWIDTH 583 0
DWIDTH 14 0
BBX 9 19 3 -2
BITMAP
0180
0300
0300
0300
0600
0600
0600
0C00
0C00
1800
1800
1800
3000
3000
6000
6000
6000
C000
C000
ENDCHAR
STARTCHAR 221A
ENCODING 8730
SWIDTH 583 0
DWIDTH 14 0
BBX 13 17 1 0
BITMAP
0038
0030
0030
0060
0060
0060
00C0
00C0
F0C0
F180
3180
3B00
1B00
1B00
0E00
0E00
0E00
ENDCHAR
STARTCHAR 221E
ENCODING 8734
SWIDTH 583 0
DWIDTH 14 0
BBX 13 8 1 3
BITMAP
78F0
CD18
8718
8608
8608
8718
CD18
78F0
ENDCHAR
STARTCHAR 222B
ENCODING 8747
SWIDTH 583 0
DWIDTH 14 0
BBX 8 24 3 -5
BITMAP
07
0F
1C
18
18
18
18
18
18
18
18
18
18
18
18
18
18
18
18
18
18
38
F0
E0
ENDCHAR
STARTCHAR 2248
ENCODING 8776
SWIDTH 583 0
DWIDTH 14 0
BBX 11 9 2 3
BITMAP
3000
FC20
CFE0
83C0
0000
3000
FC20
CFE0
83C0
ENDCHAR
STARTCHAR 2260
ENCODING 8800
SWIDTH 583 0
DWIDTH 14 0
BBX 10 11 2 2
BITMAP
0100
0100
FFC0
FFC0
0600
0400
0C00
FFC0
FFC0
1000
3000
ENDCHAR
STARTCHAR 2264
ENCODING 8804
SWIDTH 583 0
DWIDTH 14 0
BBX 10 14 2 0
BITMAP
0040
01C0
0FC0
3E00
F000
F000
3E00
07C0
01C0
0040
0000
0000
FFC0
FFC0
ENDCHAR
STARTCHAR 2265
ENCODING 8805
SWIDTH 583 0
DWIDTH 14 0
BBX 11 14 2 0
BITMAP
C000
F000
3E00
0780
00E0
03E0
1F00
F800
E000
0000
0000
0000
FFC0
FFC0
ENDCHAR
STARTCHAR 25CA
ENCODING 9674
SWIDTH 583 0
DWIDTH 14 0
BBX 11 17 2 0
BITMAP
0C00
1E00
1E00
3300
3380
6180
61C0
C0C0
C0E0
C0C0
61C0
6180
3380
3300
1E00
0E00
0C00
ENDCHAR
STARTCHAR F6C3
ENCODING 63171
SWIDTH 583 0
DWIDTH 14 0
BBX 3 5 3 -2
BITMAP
60
60
60
C0
40
ENDCHAR
STARTCHAR FEFF
ENCODING 65279
SWIDTH 583 0
DWIDTH 14 0
BBX 0 0 0 0
BITMAP
ENDCHAR
STARTCHAR FFFC
ENCODING 65532
SWIDTH 583 0
DWIDTH 14 0
BBX 13 12 1 0
BITMAP
D6D8
8008
8008
8008
3720
CD28
CF28
B668
8008
0000
8008
D6D8
ENDCHAR
STARTCHAR FFFD
ENCODING 65533
SWIDTH 583 0
DWIDTH 14 0
BBX 14 22 0 -1
BITMAP
0100
0300
0780
07C0
0FC0
0FE0
1C60
3030
3138
7F38
7F3C
FE3C
7C78
3CF8
3FF0
1CE0
1CE0
0FC0
07C0
0780
0300
0100
ENDCHAR
ENDFONT
